<svg id="Lager_1" data-name="Lager 1" xmlns="http://www.w3.org/2000/svg" viewBox="0 0 136.38 136.38"><defs><style>.cls-1{fill:none;}.cls-2{fill:#00446e;}</style></defs><rect class="cls-1" width="136.38" height="136.38"/><path class="cls-2" d="M216.49,241.29l10.12-27.56s-1.89-6-2.83-6-4.4-3.77-4.4-3.77l-4.71-3.77v-3.38s-2.52-5-5.35-7.22l-2.83-2.2v-5.66l-9.11-11.32.94-9.11s-6-5.66-8.17-6.6a3.4,3.4,0,0,1-1.88-3.46l.31-3.77-2.2-2.83.16-4.4-3.3-.94-2.36-2.36L178.52,139l-3.3,1.88-.31,3.46-1.42,3.3,1.26,1.88-.16,4.72-1.41,3-2.36-1.57-3.61-1.25-.32,1.41a.82.82,0,0,1-.65.93h-.13a27.37,27.37,0,0,1-2.83.47c-.63,0-1.57.63-1.88,0a31.77,31.77,0,0,0-1.58-3.14c-.47-.63-2.2-2.67-2.2-2.67l-2.51.63-.63,1.1,1.1.94.32,2.36.78,1.88,8.17,3.15,3.47,1.33,1.1,7.23,1.1.31.47,3.93a6.46,6.46,0,0,0,.94,1.73,26.94,26.94,0,0,1,1.89,3.14v5.35L177,189l.24-.13.62-.47,2.52-.79s.94.16,1.1.63-.16.78.47.94a7.37,7.37,0,0,1,1.26.47l1.1.47.63,2v2.51a5.17,5.17,0,0,1,0,1.57c-.16.63-1.42,1.42-1.42,1.42l-.63,1.1,1,2.82-1,3-2,4.4s-2,4.09-2.67,4.4-3,1.1-3.3,1.57a2.29,2.29,0,0,0-.32,1.73,5.28,5.28,0,0,0,1,1.26V219l-1,1.57-1.72.31L171,222.48v3l2.83,6.29,1.88,4.87,1.89.94-1.31,6.33.79,3.92,2,3.15h3.21l4.25.78a10.79,10.79,0,0,0-1.1,2.36c-.32,1.1-1.1.94-.32,1.1a21.51,21.51,0,0,0,2.67.16l2.36-.32.47,1.1c.95-.15,2.36-.31,2.36-.31l2-.94,1.1-1.73,1.57-1.1,3-.63,1.89-2.52,1.1-1.57a18.07,18.07,0,0,0,2.51-.63,15.58,15.58,0,0,0,4.71-2.82,6.43,6.43,0,0,0,3-.48,27,27,0,0,0,2.62-2.15Z" transform="translate(-122.35 -128.36)"/></svg>