<svg id="Lager_1" data-name="Lager 1" xmlns="http://www.w3.org/2000/svg" viewBox="0 0 115.16 86.64"><defs><style>.cls-1{fill:none;}.cls-2{fill:#00446e;}</style></defs><rect class="cls-1" width="115.16" height="86.64"/><path class="cls-2" d="M345.55,180.61l-5.8-3.75L337.07,168l6.48-5.76,1-2.05a49.59,49.59,0,0,0-4.76-2.72c-1-.32-2.37-4-2.37-4s.36-5.12-1.36-5.8.36-4.4.36-4.4v-.81l-5.44-.2-3.73-2.36L330,128.68l-4.76-4.41-2.72-2.4-9.5-.32-3.24-3.4-10.85.68v7.22l-12.22,1-10.53-2.37-5.76-6.09c-6.22,2.3-12.44,4.7-18.66,7.13l-2.79,1.07,4.47,12.5,8.13,1.33,3.76,10.21,20.35,6.48,4.4,14.58,5.8,1.36,9.72-6.09.68,9.72a71.6,71.6,0,0,0,11.54,8.16c3.24,1,3.24,4.08,11.21,4.41,2.88,0,7,.19,11.05.26Z" transform="translate(-240.59 -110.68)"/></svg>