<svg id="Lager_1" data-name="Lager 1" xmlns="http://www.w3.org/2000/svg" viewBox="0 0 136.38 92.55"><defs><style>.cls-1{fill:none;}.cls-2{fill:#00446e;}</style></defs><rect class="cls-1" width="136.38" height="92.55"/><path class="cls-2" d="M340.63,232.41l-5.92-3.83-2.74-9,6.61-5.89,1-2.08a48.74,48.74,0,0,0-4.86-2.78c-1-.33-2.42-4.13-2.42-4.13s.37-5.23-1.39-5.92.37-4.5.37-4.5v-.83l-5.56-.2-3.8-2.41,2.78-11.45-4.87-4.49-2.77-2.45-9.69-.33-3.31-3.47-11.08.69v7.38l-12.47,1-10.75-2.41-5.89-6.22c-6.35,2.35-12.7,4.79-19,7.27l-2.84,1.1,4.56,12.76,8.3,1.36L258.71,202l20.77,6.61,4.5,14.89,5.92,1.39,9.92-6.22.69,9.92A73.56,73.56,0,0,0,312.29,237c3.31,1,3.31,4.16,11.44,4.49,2.95,0,7.11.2,11.28.27Z" transform="translate(-228.09 -156.79)"/></svg>