<svg id="Lager_1" data-name="Lager 1" xmlns="http://www.w3.org/2000/svg" viewBox="0 0 136.38 136.38"><defs><style>.cls-1{fill:none;}.cls-2{fill:#00446e;}</style></defs><rect class="cls-1" width="136.38" height="136.38"/><path class="cls-2" d="M336.27,250.67,331,247.28l-2.43-8,5.85-5.21.91-1.84a44.6,44.6,0,0,0-4.3-2.46c-.91-.29-2.14-3.65-2.14-3.65s.32-4.62-1.23-5.24.32-4,.32-4v-.73l-4.91-.17-3.36-2.14,2.45-10.12-4.29-4-2.46-2.16-8.57-.29L304,194.28l-9.8.61v6.52l-11,.91-9.51-2.14-5.21-5.49c-5.61,2.07-11.23,4.24-16.84,6.43l-2.52,1,4,11.29,7.34,1.2,3.39,9.21,18.37,5.85,4,13.16L291.4,244l8.78-5.5.61,8.78a64.94,64.94,0,0,0,10.42,7.37c2.92.9,2.92,3.68,10.12,4,2.6,0,6.28.17,10,.23Z" transform="translate(-225.47 -155.39)"/></svg>