<svg id="Lager_1" data-name="Lager 1" xmlns="http://www.w3.org/2000/svg" viewBox="0 0 110.97 92.55"><defs><style>.cls-1{fill:none;}.cls-2{fill:#00446e;}</style></defs><rect class="cls-1" width="110.97" height="92.55"/><path class="cls-2" d="M394.48,260.93l7.28-19.85s-1.36-4.32-2-4.32-3.17-2.71-3.17-2.71l-3.39-2.72V228.9s-1.82-3.6-3.86-5.2l-2-1.58V218l-6.56-8.15.67-6.56s-4.32-4.07-5.88-4.75a2.45,2.45,0,0,1-1.35-2.49l.22-2.71-1.58-2,.11-3.17-2.37-.68-1.7-1.7-1.7,1.48-2.38,1.35-.22,2.49-1,2.38.9,1.35-.11,3.4-1,2.16-1.7-1.13-2.59-.9-.24,1a.58.58,0,0,1-.46.67h-.1a15.64,15.64,0,0,1-2,.34c-.46,0-1.13.46-1.36,0a19.92,19.92,0,0,0-1.14-2.26c-.33-.45-1.58-1.92-1.58-1.92l-1.81.45-.45.8.79.67.23,1.7.56,1.35,5.89,2.27,2.49,1,.8,5.21.79.22.34,2.83a4.64,4.64,0,0,0,.67,1.24,18.67,18.67,0,0,1,1.36,2.27V220l2.32,3.26.18-.09.44-.34,1.82-.57s.67.11.79.45-.12.56.34.68a4.89,4.89,0,0,1,.9.34l.8.34.45,1.44v1.8a3.57,3.57,0,0,1,0,1.13c-.11.46-1,1-1,1l-.46.79.72,2-.72,2.16-1.44,3.17s-1.44,2.94-1.92,3.16a11.13,11.13,0,0,0-2.37,1.13,1.67,1.67,0,0,0-.23,1.25,3.79,3.79,0,0,0,.68.91v.79l-.68,1.13-1.24.22-1.36,1.13v2.16l2,4.53,1.36,3.51,1.36.67-.95,4.56.57,2.82,1.44,2.27h2.31l3.06.56a8.46,8.46,0,0,0-.79,1.7c-.23.8-.79.68-.23.8a15.45,15.45,0,0,0,1.92.11l1.7-.23.34.79c.69-.11,1.7-.22,1.7-.22l1.44-.68.79-1.24,1.13-.8,2.16-.45,1.36-1.81.8-1.13a12.5,12.5,0,0,0,1.8-.46,11,11,0,0,0,3.4-2,4.59,4.59,0,0,0,2.16-.34,18.64,18.64,0,0,0,1.88-1.55Z" transform="translate(-320.31 -182.44)"/></svg>