<svg id="Lager_1" data-name="Lager 1" xmlns="http://www.w3.org/2000/svg" viewBox="0 0 136.38 136.38"><defs><style>.cls-1{fill:none;}.cls-2{fill:#00446e;}</style></defs><rect class="cls-1" width="136.38" height="136.38"/><path class="cls-2" d="M219.59,297.24l-3.77-.78a6.61,6.61,0,0,1-.47-1.57,11.44,11.44,0,0,0-.32-1.73l.32-1.42-1.1-.94-.32-1.26.16-5.18s1.73-1.26,2.2-1.73a12.64,12.64,0,0,1,2.2-1.26l1.42.47.47-3,1.73.47v5s.31,2.36.31,3-.79,6.45-.79,6.45Z" transform="translate(-97.37 -172.33)"/><path class="cls-2" d="M203.67,227.58l.1-1.26,1-1.36v-1.05s.73-2.93.73-3.46v-5.86l3.36-5.24s-11.32-2.31-11.74-2.41-3.24-3.56-3.24-3.56l.47-.76c-1.26,0-2.52,0-3.41-.08-2.51-.1-2.51-1-3.46-1.36a22,22,0,0,1-3.56-2.52l-.21-3-3,1.88-1.79-.42-1.36-4.5-6.28-2-1.16-3.15-2.51-.41-1.38-3.86a25.66,25.66,0,0,1-3.39,1.39c-.47,0-2.82.32-2.82.32l-1.58,8.48-10.84,6.29-.63,1.26-1.88.94-8.33-.94-1.1-2.83-.79-1.26-2.67-.31-1.88.78,1.72,5.34s2.36,6.45.16,6.45-10.37.47-10.37.47l-2.51-4.09-6.6.16h-3.39a7.27,7.27,0,0,1-1.57,1.41,10,10,0,0,0-1.89,1.89l3.62,1.89-2,1.41,12,6.76,5.34,5.18-.47,5.35,6.91,7.22,1.42,9L130.75,253l-7.86,17,1.26,2,1.89.16.31,1.89,12.57,5.5h4.4l1.1-.63,2.52.16,6.44,2.82s-.63,1.58.31,1.89,3,.94,3,.94l3.46-.78,1.88,1.88,4.48-.89c-.59-.64-1.34-1.49-1.34-1.78A30.68,30.68,0,0,1,166,280l-.79-1.57,2.68-4.25a1.87,1.87,0,0,0,1.88.32,54.65,54.65,0,0,0,4.56-3.46s3.77,1.89,4.24,2a4.74,4.74,0,0,1,1.26,1.1l3-2,1.42.63-.47.94-.48.63,1.1.32s.95.62,1.1,1.1a10.51,10.51,0,0,0,1.89,1.88l4.24.16,4.09-.47.78-1.73,2.83-2.52s1,.63,1.57-.15,1.58-2,1.58-2a17.74,17.74,0,0,1,2.84-.75l.87-3v-1.71l-4.83.06-2.41-2.24.82-1.82-.06-2.77L197,255.17l-.06-.94,3.18-.36,1.12-1.76-2.47-4.78,1.18-2.12.14,0-.34-.37-.63-3.24-.83-2.83-4.4.94-.53,2.62-2.09-.11,1.67-4.5,4.3-5,3.56-4.71-.52-1.16.42-.62Z" transform="translate(-97.37 -172.33)"/></svg>