<svg id="Lager_1" data-name="Lager 1" xmlns="http://www.w3.org/2000/svg" viewBox="0 0 100.92 100.92"><defs><style>.cls-1{fill:none;}.cls-2{fill:#00446e;}</style></defs><rect class="cls-1" width="100.92" height="100.92"/><path class="cls-2" d="M-152.38,130.4l-2.7-1.08-1.17-2.25-2.07-.81-2.25-.63-1.62-3.41.27-1.17-.81-1.71-1-1-1.54-1.71.37-1.26.72.36,1,.63s.45-1,.54-1.26a6.09,6.09,0,0,1,.81-1.08H-159c.36,0,.18-1.08.18-1.08l1.44-.36a5.49,5.49,0,0,0,1.16-.81,7.38,7.38,0,0,1,.63-.72h1.26l1.26-.9a3.77,3.77,0,0,0,.54-1.08c0-.26,1.36-.26,1.36-.26a15.58,15.58,0,0,0,2-1.44.56.56,0,0,0,.09-.63l-.09-.72,2.69-.45v.72l.18,1,1.44-.36.55-.64,1-6.24-.85-1-2-2.12a27,27,0,0,0-.29-3.12c-.14-.42-.56-2.69-.56-2.69l-.71-4.25-2-1.13-2.41-1.56V82.77l1.84-2,.14-1.84-1.7-2.69-.19-2.1-1.34-.48s-1.41-.94-1.57-1.41.63-.79-1.26-1.89a10,10,0,0,0-2.67-1.25l-4.09-.79-1.25-1.89v-.62l-1.1.78-1.89,2.52s-2.83,0-3.14.47-.94,1.57-.94,1.57l-1.58,1.73-2.35-.16s-1.89-.63-1.89-1.1a9.42,9.42,0,0,1,.47-1.73l.32-1.88V66.75a9.09,9.09,0,0,1-1.57.31,11.43,11.43,0,0,0-1.42.16h-3.46a.61.61,0,0,1-.62-.6v0c0-.63-.16-2.67-.16-2.67l-1.62-.94h-1.21l-4.29-.84-2.39-.58v.7l2.36,3.93.63.94-1.73,1.42,1.26.78.63,1-.33.78-.62.32.62.62q.61.21,1.26.48c.5.2,1,.41,1.41.62l1.57,1,1.42,2.83h-2.52l-.78-1-1.89-.78s1.11-.32-.62-.32-1.58-.78-1.72,0l-.16.79-.94,2.36s-1.89-1.58-1.89,0a1.55,1.55,0,0,1-1.51,1.57h-.06l-.32-2.67-2.35-.48-2.52.48s-.94.78-.94,1.25-1.41.16,0,1.26,1.89,1.41,1.89,1.41l-2.15,1V82l-.1,1.26.93,1-1.46,4.19s-2.83-.31-2.72.42a6.29,6.29,0,0,0,.62,1.68l2.3.42-1,3.14L-206.1,96l-.11,1.25-5.45.21.84,3.15,1.47,2.62-1.05,2.3-1.57,3.14s.84.21.84.63v1.57s-.63,1.16-.11,1.36.42,1.79.42,1.79.42,1.15.73,1.25a13.3,13.3,0,0,1,1.47.84l-.31.63-2,1.78.83,2.72,1.79,1.16-2.2,3.56s2.82,3.46,3.24,3.56,11.74,2.41,11.74,2.41l-3.36,5.24V143c0,.53-.73,3.46-.73,3.46v1.11l1.15.42a14.94,14.94,0,0,0,2.1.21l4.71.1-.52-1.78.63-.63,3.24.42s3.46,2.2,4.09,2.52c.11,0,.28.15.5.28l-.19-1.23,2.68-.47a11.7,11.7,0,0,0,1.1,1.42,16.42,16.42,0,0,0,2.2,1.41l.31-2,4.87.15.63,1.58,5.81-1.26,3.78-1.73,1.1-1.73H-158l2.52,1.57,1.73-1.41-1.42-2-2.67-2.68.79-1.88,3-1.1-.15-2.52,1.26-.47.62.32,1.41.47.69-3.71Z" transform="translate(229.24 -56.32)"/></svg>