<svg id="Lager_1" data-name="Lager 1" xmlns="http://www.w3.org/2000/svg" viewBox="0 0 136.38 136.38"><defs><style>.cls-1{fill:none;}.cls-2{fill:#00446e;}</style></defs><rect class="cls-1" width="136.38" height="136.38"/><path class="cls-2" d="M222.55,238.73l-3.24-1.29-1.41-2.7-2.48-1-2.7-.75-1.95-4.09.33-1.41-1-2-1.2-1.2-1.84-2,.43-1.51.87.43,1.2.75s.54-1.2.64-1.51a8.2,8.2,0,0,1,1-1.3h3.34c.44,0,.22-1.29.22-1.29l1.73-.43a6.52,6.52,0,0,0,1.4-1,8.82,8.82,0,0,1,.76-.86h1.51l1.51-1.08a4.8,4.8,0,0,0,.65-1.3c0-.31,1.62-.31,1.62-.31a17,17,0,0,0,2.4-1.73.65.65,0,0,0,.11-.75l-.11-.87,3.24-.54v.87l.22,1.2,1.72-.43.66-.77,1.2-7.49-1-1.2-2.4-2.54a36,36,0,0,0-.34-3.75c-.17-.5-.68-3.23-.68-3.23l-.85-5.1-2.4-1.35-2.89-1.87v-1.7l2.21-2.4.17-2.2-2-3.23-.23-2.52-1.61-.58s-1.69-1.13-1.88-1.69.75-.95-1.52-2.27a12.48,12.48,0,0,0-3.2-1.5l-4.91-.94L208.3,162v-.75l-1.32.94-2.27,3s-3.39,0-3.76.57-1.13,1.88-1.13,1.88l-1.9,2.08-2.82-.19s-2.27-.76-2.27-1.32a10.49,10.49,0,0,1,.57-2.08l.38-2.26v-1.51a9.93,9.93,0,0,1-1.88.37,14.22,14.22,0,0,0-1.71.2H186a.73.73,0,0,1-.74-.72v0c0-.76-.19-3.2-.19-3.2l-2-1.13h-1.45l-5.15-1-2.88-.7V157l2.83,4.72.76,1.13-2.08,1.7,1.52.94.75,1.14-.38.93-.76.39.76.74c.49.17,1,.36,1.51.58s1.2.49,1.69.74l1.89,1.2,1.7,3.4h-3l-.94-1.14-2.27-.94s1.32-.38-.75-.38-1.89-.94-2.07,0l-.19.94-1.13,2.84s-2.27-1.9-2.27,0a1.84,1.84,0,0,1-1.81,1.88h-.07l-.38-3.2-2.82-.58-3,.58s-1.13.93-1.13,1.5-1.69.19,0,1.51,2.27,1.69,2.27,1.69l-2.58,1.21v.12l-.12,1.51,1.13,1.2-1.76,5s-3.39-.37-3.27.51a7.64,7.64,0,0,0,.76,2l2.76.51-1.2,3.76-1.89,2.27-.13,1.5-6.54.25,1,3.79,1.76,3.14-1.26,2.76-1.88,3.77s1,.25,1,.75v1.89s-.76,1.39-.13,1.63.5,2.15.5,2.15.5,1.38.88,1.5a18.16,18.16,0,0,1,1.76,1l-.37.75-2.4,2.14,1,3.26,2.15,1.39-2.64,4.27s3.39,4.16,3.89,4.28,14.09,2.89,14.09,2.89l-4,6.29v7c0,.63-.88,4.15-.88,4.15v1.33l1.38.51a19.2,19.2,0,0,0,2.52.25l5.65.12-.62-2.14.75-.75,3.89.5s4.15,2.64,4.91,3c.13,0,.34.18.6.34l-.23-1.47,3.22-.57a13.45,13.45,0,0,0,1.32,1.71,19.09,19.09,0,0,0,2.64,1.69l.37-2.4,5.84.18.76,1.89,7-1.51,4.54-2.07,1.32-2.08h4.14l3,1.88,2.08-1.69-1.71-2.4-3.2-3.21.95-2.26,3.6-1.32-.19-3,1.51-.57.75.39,1.7.56.82-4.45Z" transform="translate(-124.03 -141.13)"/></svg>