<svg id="Lager_1" data-name="Lager 1" xmlns="http://www.w3.org/2000/svg" viewBox="0 0 63.52 45.1"><defs><style>.cls-1{fill:none;}.cls-2{fill:#00446e;}</style></defs><rect class="cls-1" width="63.52" height="45.1"/><path class="cls-2" d="M-113.44-8.26l-1.89-3.93-3.77-2.35-3.4,1.31-1.68-2.2L-127.32-14h-4l-1.26-.31s-2.93,6-3.35,5.76a3.87,3.87,0,0,0-1.26-.21l-1.36-.94-.52.31-.74,3-4.29.42-1.68,2.72L-150.49-2l-2.41.63-3.35-2.62-2.94-.1.63,4.29h-3.25l-.73,1.05,1.36.73-.94,1.26L-163,4.54l1.15,2.83V8.52l-2.09.84-.45,1.67h.66l2.51,2.94v.83l6.29,4.93,3.66-.21.84,1,6.5.84,1.57-1.78,2.15-.1,2-2.75L-136,16l.86-1.34,6.45.71a3.42,3.42,0,0,1,.94-1.1,7.79,7.79,0,0,0,.79-.63l.94-.78,3.14-.79,4.09-13,.47-2.83-.47-1.41Z" transform="translate(171.13 19.98)"/></svg>