<svg id="Lager_1" data-name="Lager 1" xmlns="http://www.w3.org/2000/svg" viewBox="0 0 136.38 136.38"><defs><style>.cls-1{fill:none;}.cls-2{fill:#00446e;}</style></defs><rect class="cls-1" width="136.38" height="136.38"/><path class="cls-2" d="M288.09,131.46l-4.26-8.85-8.48-5.28-7.65,2.94-3.78-5-7.06,3.29h-9l-2.84-.7s-6.59,13.5-7.54,13a8.24,8.24,0,0,0-2.83-.47l-3.06-2.12-1.17.7-1.67,6.75-9.65,1-3.78,6.12-10.6,2.83-5.42,1.42-7.54-5.9-6.61-.22,1.42,9.65h-7.32l-1.64,2.36,3.06,1.65-2.11,2.83-1.89,2.84,2.58,6.36v2.59l-4.7,1.89-1,3.76H175l5.65,6.61v1.87l14.15,11.09,8.24-.47,1.89,2.25,14.62,1.89,3.54-4,4.83-.23,4.5-6.19,4.95-1.59,1.94-3,14.51,1.6a7.66,7.66,0,0,1,2.12-2.48,18.54,18.54,0,0,0,1.77-1.41l2.12-1.76,7.06-1.78L276.12,148l1.05-6.36-1.05-3.18Z" transform="translate(-162.62 -88.52)"/></svg>