<svg id="Lager_1" data-name="Lager 1" xmlns="http://www.w3.org/2000/svg" viewBox="0 0 136.38 136.38"><defs><style>.cls-1{fill:none;}.cls-2{fill:#00446e;}</style></defs><rect class="cls-1" width="136.38" height="136.38"/><path class="cls-2" d="M266.53,282.66l-3.93,10,2.67,3.3-1.41,5.5h-6l-2.51-3.3h-3.3l-3.62-1.88-6-3.3-2.83-.16s-1.57-.31-1.57-1.1-.31-3-.31-3v-2.67h2.35c1,.47,1.26,1.1,1.73.63a17.93,17.93,0,0,1,1.5-1.23l1.1-1.25,2.2.78,2,1.89h4.24l3.3-.79,4.09-2.35,1.72.62,1.73-.62Z" transform="translate(-168.72 -173.84)"/><path class="cls-2" d="M196.76,254.84l-.47,3.3,3.3,5.34s-.47,1.26-.16,1.73a17.8,17.8,0,0,1,.95,2.2s-2,3-1.73,4.09.94,5.5.94,5.5l2.2.47c.79.16,2,.47,2,.47l.32-2.83h3.3s.31.79.78,0,1.89-6.91,2.05-7.54,1.1-4.71.78-5.19a17.71,17.71,0,0,1-.94-2.35l.31-1.73-1.57-3.93-2.83-3.3-6.91,4.87Z" transform="translate(-168.72 -173.84)"/><path class="cls-2" d="M290.3,256.05,289.15,255l-4.4-2.72a29.22,29.22,0,0,0-2.93-1.89c-.42-.11-6.5-1.89-6.5-1.89l-6.18-2.3-2.51-1.47-1-1.15,1.37-1.36s.62-.53.62-.94a9.8,9.8,0,0,0-.41-1.68l-3.67-.42h-3.25l-1.26.21a5.74,5.74,0,0,1-1,.21,30.41,30.41,0,0,1-3.15-1.26l-5.76-4.4-4-8.9-2.83-3.77-11-6.29s-.63-4.71-.52-5.24-.11-2.2.42-2.2h.94l.11-1-.11-1L230,202.08l1-1.57.84-.52.21,1.15h.73s0-.32,1-1l2.41-1.57,1.36-1.36v-.63h1.46l1.16.21.42-.63h1.5l-1.4-2.62.21-1.25-.21-.63-1.57-.63,2.41-3.35-9.17-.84L229.73,185l-1.57-2v-1.57l-4.09,1.89h-3.14c-.47,0-1.57,1.88-1.57,1.88l-1.73,1.1-3-.78-.35,1.63.59,1.12a2.07,2.07,0,0,1-.77.7c-.41.18-1.29.53-1.29.53V188.1l-.83.65-.82.7.88,1.89.24,1.06-.48.29-.7-.23-.53-1-1.3-.18-1.53.83h-1.83v-1.88H204.5l-.36,2.3-1.23,2.41.17,1.3.18.71s-1.18.76-1.47.47a17,17,0,0,1-1.24-1.77s.06-1-.18-1.12-2.12-1.24-2.12-1.24l-.35-2.71-2,.65-.71,1.41.3,1.54-2.06,2.35h-1.54l-1.06-.11-1.76.64-3.42-.35-1.18,2.12,2.47,4.78-1.12,1.76-3.18.36.06.94,2.71,3.54.06,2.77-.82,1.82,2.41,2.24,4.83-.06v1.59l-.87,3h.46a8.89,8.89,0,0,0,2.67-.63l2.51-1.73-.16-2.2,1.89-.63s1.41-2.51,2-2.51a7.47,7.47,0,0,1,1.89,0,15.68,15.68,0,0,1,2.67.78l3.14,2.36,2.52.63,1.57.31,1.73,2.52V223l1.88,2.67,1.1,3.15.79,3.14s2.83,2,3,2.51-.15,2.68.79,2.68,2.51.15,2.51.15l12.58,9.59s2.35,2,3.61,2,3.93-1.1,5.5-.31a24.7,24.7,0,0,1,4.24,3.45l2.05,1.42s1.25-.32.94,1.57l-.32,1.88a4.23,4.23,0,0,0,2,0,13.07,13.07,0,0,0,2-1.72l2,1.57.47.94-.47,1.57v1.21l3,1.88,2.2-.52,1.89.94,1.57,2.62,2.83,3.77,1.46,5.45v2.51l-1,.21-1.26.74-.1,3.24-1.68,1.16.31,2.51.95,1,2.2.21.62-2.62,2.73-2.83s1.78-.42,1.57-1.57-.94-3.35-.94-3.35l.94-1.78,1.57-1,1.57-.21H280l.41-.21-.31-1.25-.31-1.26-.11-1.36v-.84L276.92,266l-2.73-.94a4.76,4.76,0,0,1-.42-2,18,18,0,0,1,.32-2.83l1.78-4.61,2-1h2.41l-1.26.63v.63h.42l1.47.11,2.51.1,1.89.21a1.86,1.86,0,0,1,.94,1.15c.21.84,0,1.05.21,1.47s0,1.05.32,1.15,1.46,1.26,2,1.47a15.4,15.4,0,0,1,1.46.73s.84,1,.84,0,.1-3.45.1-3.45Z" transform="translate(-168.72 -173.84)"/></svg>