<svg id="Lager_1" data-name="Lager 1" xmlns="http://www.w3.org/2000/svg" viewBox="0 0 136.38 136.38"><defs><style>.cls-1{fill:none;}.cls-2{fill:#00446e;}</style></defs><rect class="cls-1" width="136.38" height="136.38"/><path class="cls-2" d="M213.8,249.46c0-1.41-2.84-2.12-2.84-2.12l5.3-10.6,3.55-7.76-5-8.84L212,209.5l18.39-.7.38-4.22,5.29-6.38,3.38-10.6-7.76-1.42a20.88,20.88,0,0,1-2.13-5.67c-.34-2.46,9.18-1.41,9.18-1.41l5-14.15-3.17-3.37.34-4.25V157l-2,1-5.81-8-11.68,1.08-8.5.51h-2.63l-6.75,4.79-6.92,4.76v5.3l3.71,3.37,4.25.51,1,2.12-1,10.6-.54,2.67L190.17,193l-2.66-8,2.12-6.75,2.67-1a5.81,5.81,0,0,1-2.13-4.49,15.75,15.75,0,0,0-1.08-5.3h-5.83l-2.64,9L179,187.57l-2.13,6.75s-3.71,9-6.38,9.55-6.75,1-6.75,1l2.13,2.67,6.75,4.76a2.38,2.38,0,0,1,1.58,2.13,4.45,4.45,0,0,1-3.17,4.25c-2.12.54-9.55,3.71-9.55,3.71l-5.84-2.67-3.17-3.17s-2.67-2.63-4.25-.54a6.74,6.74,0,0,0-1.59,3.71l3.71,1.62,4.26,1.59,5.29,1.59h3.18l6.92,1.58v2.13c0,1.58,1.58,2.63,0,3.17l-1.62.54-3.18-1.08a3.36,3.36,0,0,0-3.55-3.18h-9.17a16.54,16.54,0,0,0-5.3.2,11.77,11.77,0,0,0-2.29.88l6,6.34,11,2.47,12.73-1.05v-7.42l11.3-.71L189.3,232l9.89.34,2.83,2.5,5,4.59-2.83,11.67,3.88,2.47,5.67.2Z" transform="translate(-126.12 -133.72)"/></svg>