<svg id="Lager_1" data-name="Lager 1" xmlns="http://www.w3.org/2000/svg" viewBox="0 0 80.69 80.69"><defs><style>.cls-1{fill:none;}.cls-2{fill:#00446e;}</style></defs><rect class="cls-1" width="80.69" height="80.69"/><path class="cls-2" d="M120.67,323.93l1.9-1.14s6.66-6.05,6.66-6.84-1.53-1.9-1.53-1.9l-1.52-3.23,4-7.42-.94-.57-1.15-4.75.19-2.66,4.19,1,2.27-5.71-1.33-2.28,4.57-1.72-.58-10.06,8.18-3.42v-4.76l-1.53-1.9-.56-2.09-4.37-.76-7.42.37-5.51-1.51-.18-1.9.94-2.09-2.42-.19L119,261.59h-.26l-1.08,14.51-10.25,18.06H105.7s-2.66,2.42-2.66,3.42-.38,4.56-.38,4.56l-.19,1.34,7.79-3-3,3.8-3,2.09.76.94a1.28,1.28,0,0,0,1.52.58c1-.38,5.13-1.14,5.13-1.14l-3.42,3.81s.19,6,.19,6.83-4.56,8.55-4.56,8.55l.19,2.66h1.33l1.9-1.51,2.86.18,2.42,1.21,3.63,2.09,3-1.33,3-.38.18,0Z" transform="translate(-80.24 -254.1)"/></svg>