<svg id="Lager_1" data-name="Lager 1" xmlns="http://www.w3.org/2000/svg" viewBox="0 0 136.38 136.38"><defs><style>.cls-1{fill:none;}.cls-2{fill:#00446e;}</style></defs><rect class="cls-1" width="136.38" height="136.38"/><path class="cls-2" d="M168.35,206.84l2.83-1.7s9.9-9,9.9-10.18-2.27-2.83-2.27-2.83l-2.27-4.81,5.94-11-1.4-.85-1.71-7.07.28-4,6.23,1.42,3.39-8.49-2-3.39,6.8-2.55-.86-15,12.16-5.09v-7.08l-2.26-2.82-.85-3.12-6.5-1.13-11,.56-8.21-2.25-.27-2.83,1.4-3.11-3.6-.29-8.2,4.8h-.38l-1.6,21.6-15.27,26.88h-2.55s-4,3.6-4,5.09-.56,6.79-.56,6.79l-.29,2,11.59-4.52-4.52,5.65-4.53,3.12,1.13,1.4a1.92,1.92,0,0,0,2.27.86c1.42-.57,7.63-1.71,7.63-1.71l-5.09,5.67s.29,9,.29,10.17-6.79,12.73-6.79,12.73l.29,4h2l2.82-2.25,4.25.27,3.6,1.8,5.4,3.11,4.54-2,4.52-.57.27,0Z" transform="translate(-105.14 -94.77)"/></svg>