<svg id="Lager_1" data-name="Lager 1" xmlns="http://www.w3.org/2000/svg" viewBox="0 0 136.38 136.38"><defs><style>.cls-1{fill:none;}.cls-2{fill:#00446e;}</style></defs><rect class="cls-1" width="136.38" height="136.38"/><polygon class="cls-2" points="108.21 81.35 109.15 83.08 112.14 83.08 114.34 84.97 117.8 81.35 116.38 80.09 115.91 77.74 108.21 81.35"/><polygon class="cls-2" points="122.82 77.11 122.19 78.37 126.28 80.25 127.85 79.31 125.97 76.95 122.82 77.11"/><path class="cls-2" d="M276.3,207.06,274,208.32l-.48,1.73s.15,1.41.79,1.41,4.56-3.61,4.56-3.61Z" transform="translate(-177.2 -120.68)"/><path class="cls-2" d="M295.71,169.87l-4.48.89-1.88-1.88-3.46.78-3-.94c-1-.31-.31-1.89-.31-1.89L276.14,164l-2.52-.16-1.1.63h-4.4L255.55,159l-.31-1.89-1.89-.16-1.26-2-6-.16s-2.2-1.57-3.46-1.57-3.14.16-3.77.16a8.56,8.56,0,0,1-2.35-.94A13.55,13.55,0,0,0,231,151a40.4,40.4,0,0,1-5.82-.31c-.94-.16-6.91-3.62-6.91-3.62s-6.44-1.1-7.07-1.1-3.77.32-4.72,0a39.77,39.77,0,0,1-4.24-2.35s-.79-1.1-1.41-1-6.76,4.09-6.76,4.09l-7.54,2,2,6.92.31,2.35s-1.73,1.42-1.73,1.89v3.74h.21l4.56-2.67,2,.16-.78,1.73.15,1.57,4.56,1.25,6.13-.31,3.61.63.47,1.73,1.26,1.57v3.93L202.53,176l.48,8.32-3.78,1.42,1.1,1.88-1.88,4.72-3.46-.79-.16,2.2.95,3.93.78.47-3.3,6.13,1.26,2.67s1.26.94,1.26,1.57-5.5,5.66-5.5,5.66l-1.57.94,1.37,3.92,3-.3,4.24,2.67,1.41,3s-1.41,3.78-.31,4.56,6.76,6.13,6.76,6.13l4.87-4.09,4.55.48,2.52-2.52,9.58.94s4.4,1.1,4.87,1.1,3,.32,3.46,0a13.85,13.85,0,0,1,1.42-.78,9.43,9.43,0,0,0,2.2,1.1c.47,0,6.75-7.86,6.75-7.86h8l1.41-1.57s.79-6.91,1.57-7.07,8-3,8-3-2.36-7.38-2.83-7.85a12.8,12.8,0,0,1-1.26-2.83l11.79-14.62,16.34-6s3.93-2.67,4.4-3.14,2.67-2.67,2.83-3.77.63-3.14.63-3.14-.33-.33-.71-.74Z" transform="translate(-177.2 -120.68)"/></svg>