<svg id="Lager_1" data-name="Lager 1" xmlns="http://www.w3.org/2000/svg" viewBox="0 0 132.83 100.87"><defs><style>.cls-1{fill:none;}.cls-2{fill:#00446e;}</style></defs><rect class="cls-1" width="132.83" height="100.87"/><polygon class="cls-2" points="110.65 64.22 111.59 65.95 114.58 65.95 116.78 67.84 120.24 64.22 118.82 62.96 118.35 60.61 110.65 64.22"/><polygon class="cls-2" points="125.26 59.98 124.63 61.24 128.72 63.12 130.29 62.18 128.41 59.82 125.26 59.98"/><path class="cls-2" d="M293.76,232.77,291.41,234l-.48,1.73s.16,1.41.79,1.41,4.56-3.61,4.56-3.61Z" transform="translate(-192.24 -163.52)"/><path class="cls-2" d="M313.17,195.58l-4.48.89-1.87-1.88-3.46.78-3-.94c-1-.31-.31-1.89-.31-1.89l-6.44-2.82-2.52-.16-1.11.63h-4.39L273,184.69l-.32-1.89-1.88-.16-1.26-2-6-.16s-2.2-1.57-3.46-1.57-3.14.16-3.77.16a9.09,9.09,0,0,1-2.36-.94,13.47,13.47,0,0,0-5.5-1.42,40.55,40.55,0,0,1-5.82-.31c-.94-.16-6.91-3.62-6.91-3.62s-6.43-1.1-7.07-1.1-3.77.32-4.72,0a41.82,41.82,0,0,1-4.24-2.35s-.79-1.1-1.4-1-6.76,4.09-6.76,4.09l-7.54,2,2,6.92.31,2.35s-1.73,1.42-1.73,1.89v3.74h.21l4.56-2.67,2,.16-.78,1.73.14,1.57,4.57,1.25,6.12-.31,3.62.63.46,1.73,1.27,1.57v3.93L220,201.74l.48,8.32-3.78,1.42,1.11,1.88-1.88,4.72-3.46-.79-.16,2.2.95,3.93.78.47-3.3,6.13,1.26,2.67s1.26.94,1.26,1.57-5.5,5.66-5.5,5.66l-1.57.94,1.37,3.92,3-.3,4.24,2.67,1.41,3s-1.41,3.78-.31,4.56,6.76,6.13,6.76,6.13l4.87-4.09,4.55.48,2.52-2.52,9.58.94s4.4,1.1,4.87,1.1,3,.32,3.46,0a13.85,13.85,0,0,1,1.42-.78,9.43,9.43,0,0,0,2.2,1.1c.47,0,6.75-7.86,6.75-7.86h8l1.41-1.57s.79-6.91,1.57-7.07,8-3,8-3-2.36-7.38-2.83-7.85a12.8,12.8,0,0,1-1.26-2.83l11.79-14.62,16.34-6s3.93-2.67,4.4-3.14,2.67-2.67,2.83-3.77.63-3.14.63-3.14-.33-.33-.71-.74Z" transform="translate(-192.24 -163.52)"/></svg>