<svg id="Lager_1" data-name="Lager 1" xmlns="http://www.w3.org/2000/svg" viewBox="0 0 136.38 136.38"><defs><style>.cls-1{fill:none;}.cls-2{fill:#00446e;}</style></defs><rect class="cls-1" width="136.38" height="136.38"/><path class="cls-2" d="M175.65,341.44l-.78.79-.68,5-.72,3.92s.68.23.83-.07.84-2.5.84-2.5.9-3.54.9-3.84S175.65,341.44,175.65,341.44Z" transform="translate(-99.8 -232.75)"/><path class="cls-2" d="M182,336l-1,1.44s-1,1-1,1.2.38,2,.38,2l.45,2,1.35.9a19.62,19.62,0,0,0,1.36-2.56c0-.31-.08-1.36-.15-1.89s-.08-2.16-.08-2.41.61-.68.61-.68l-1.66-1Z" transform="translate(-99.8 -232.75)"/><path class="cls-2" d="M183.12,268c0-.46-1.92-.8.57-1.14s1.24-.68,2.48-.34a8,8,0,0,0,1.82.34,2,2,0,0,0,1.07,0l-2.32-3.26V259.7a20,20,0,0,0-1.36-2.27,4.67,4.67,0,0,1-.68-1.24l-.33-2.83-.8-.22-.78-5.23-2.49-1-5.88-2.26-.57-1.36-1.13-1-2.72.35.46,1.8.9,1.59.23,2.26-.68.45-2.95-.45s-1.44-.68-1.69,0l-.57,1.7v2.28s.34.57,0,.68a12.08,12.08,0,0,1-1.8.11l-2.16.68-1.7,4.41s.79,2.38.9,2.83a5.25,5.25,0,0,1,.12,1.25,11.41,11.41,0,0,1-.79,1.92l-1.93,1.81-.11,1.36.79.79s.34.79,0,.91-1.24.45-1.24.45l-2.26.91,1.44,6.1-2.5,5.21,1,1.92s1,.22,1.13.91a22.16,22.16,0,0,1-.12,3h-4.63l-1.7.79-.8,1.44-.33,2.72-.57,3.06,1.81,9.36-.68,1.44,2.94,1.92v1.58l-.67,3H150.5l.8,1.92s.9,1.7,1.13,2-1.24,4.87-1.24,4.87-.79.45-.91.79-.79,1.8-.79,1.8l.22,2.61.72,1.69L149,330.44l-.9-.8-1.13-.34c.1.46.44,1.59.44,1.59l.57,4.32h1.73l1.81-.22-1,5.09.34.9,1.58.8-.23,1.13v.76l1.36.91s.91,2.49,1.13,2.93A9.37,9.37,0,0,0,156.8,349v1.35a7,7,0,0,1-.68,1.93s-1.58,0-1.58.45a4.08,4.08,0,0,0,.34,1.24,7,7,0,0,1,1.44,1c.23.34,2.38,1.92,2.38,2.26s-1.82,1.44-.91,1.81a33.24,33.24,0,0,0,5.09.56s1.59-.45,1.59-.9.23-.46,0-1.13a12.58,12.58,0,0,0-.8-1.7l.23-1.25L165,354l.68-1.13.23-.79,1.35-.67h3.26s1,2,1,1.13a30,30,0,0,1,1.25-5.21,23.06,23.06,0,0,0,1-4.87c-.11-.56-.57-2.6-.57-2.6s-.34-4-.34-4.32-.11-4.07-.11-4.07l-.12-1.25,2.61-1.69,1-1.24.9.33a6.45,6.45,0,0,0,.8-.67l1.24-1.25.34-.57V324l-1.7-.11a8.16,8.16,0,0,1-1.13.79,9.06,9.06,0,0,1-1.7.45,4.53,4.53,0,0,1-.9.12l-.91-1-.79-.11-2.83-.34h-1.13s-.22-.91.34-.91h5.43s1.14-1.7,1.47-1.7a.52.52,0,0,1,.46.34l.34,1.59,3.6-2.38.44-1.13-1-2.26-1.81-.46-.91-.79-.67-.79-2.49-1.13-1.7-.57-.46-.9-.56-6.9v-1.83l-.11-.68.67-.9-.56-.91s-.11,0-.57-.67-.67-.57-.67-1a13.58,13.58,0,0,1,.33-1.8h1.25l1.24-.12.23-4.41,1.7-.56.34-.69.33-1.8,2.26-.34s1.37-4.87,1.93-5.21,2.37-.91,2.72-1.92.56-1.92.56-1.92l.23-2.83s-2-.91-2-1.25.23-1.58.23-1.58l.57-2,.1-1.44,1.25-1.13s1.13-.12,1-.57A18.53,18.53,0,0,1,183.12,268Z" transform="translate(-99.8 -232.75)"/></svg>