<svg id="Lager_1" data-name="Lager 1" xmlns="http://www.w3.org/2000/svg" viewBox="0 0 142.07 84.57"><defs><style>.cls-1{fill:none;}.cls-2{fill:#00446e;}</style></defs><rect class="cls-1" width="142.07" height="84.57"/><path class="cls-2" d="M257.47,125.75l-3-3.78-6.6,2.82-8.49-2.34a31.54,31.54,0,0,1-5.16-5.67,5.16,5.16,0,0,1,.45-3.3l-.93-7.53-.39-2.46c-.66-.39-1.17-.69-1.5-.84-1.89-1-12.27-7.56-12.27-7.56l-9.72-1.26L208,95.72l1.56,5.34-14.13-.3a47.34,47.34,0,0,1-6.3-.63l-3.45-1.26-3,4.08-.3,3.78-9.42-4.08-1.26,1.86,1.56,3.48-10.68,14.13-12.9,15-5,13.5,6.27.33,1.59-7.86,13.2-2.82,2.49,8.49,1.89,9.72,1,1.11,9.84,1,5.28-1.92,3.18.33H194l6.18-7.05-.9-4.62,2.13-4.23,6-2,1,8.13s5.67,3.36,6.36,3.72.54,3.36.54,3.36a64.83,64.83,0,0,0,3.72,5.31c.87.87,4.41-1.41,4.41-1.41l-.54-2.13-.51-3.9,3.69-7.23,1.08-6.9h4.23v5.64H237l4.59-2.49,3.9.54,1.59,3,2.1.69,1.44-.87-.72-3.18-2.64-5.67,2.46-2.1,2.49-2v4.05s2.64-1.05,3.87-1.59a6.65,6.65,0,0,0,2.31-2.1l-1.77-3.36Z" transform="translate(-131.35 -85.68)"/></svg>