<svg id="Lager_1" data-name="Lager 1" xmlns="http://www.w3.org/2000/svg" viewBox="0 0 136.38 136.38"><defs><style>.cls-1{fill:none;}.cls-2{fill:#00446e;}</style></defs><rect class="cls-1" width="136.38" height="136.38"/><path class="cls-2" d="M254.18,273.14l-2.7-3.4-5.94,2.53-7.64-2.1a28.14,28.14,0,0,1-4.64-5.11,4.63,4.63,0,0,1,.4-3l-.84-6.77-.35-2.22a15,15,0,0,0-1.35-.75c-1.7-.87-11-6.81-11-6.81l-8.75-1.13-1.7,1.7,1.41,4.81-12.72-.27a41.41,41.41,0,0,1-5.67-.57L189.54,249l-2.7,3.67-.27,3.4-8.47-3.67L177,254l1.41,3.13-9.62,12.72-11.61,13.5-4.51,12.15,5.65.3,1.43-7.08,11.88-2.53,2.24,7.64,1.7,8.74.92,1,8.85.89,4.76-1.72,2.86.29h4.16l5.56-6.34-.81-4.16,1.92-3.81,5.4-1.75.94,7.32s5.1,3,5.73,3.34.48,3,.48,3a56.16,56.16,0,0,0,3.35,4.78c.78.78,4-1.27,4-1.27l-.49-1.92-.46-3.51,3.32-6.51,1-6.21h3.8v5.08h4.94l4.14-2.24,3.51.48,1.43,2.7,1.89.63,1.29-.79-.65-2.86-2.37-5.1,2.21-1.89,2.24-1.76v3.65s2.38-.95,3.49-1.43a6.18,6.18,0,0,0,2.08-1.89l-1.6-3Z" transform="translate(-135.82 -206.83)"/></svg>