<svg id="Lager_1" data-name="Lager 1" xmlns="http://www.w3.org/2000/svg" viewBox="0 0 136.38 110.15"><defs><style>.cls-1{fill:none;}.cls-2{fill:#00446e;}</style></defs><rect class="cls-1" width="136.38" height="110.15"/><path class="cls-2" d="M269,249.49l.79,1.1,1.25.31.79,1.42.63.16,1.1-2s1.1-1.73,2-1.73,1.26-.31,2-.31,5.66,2.51,5.66,2.51l2.36-.78.16-2.83h4.55c.47,0,5.19,1.26,5.19,1.26l2.36-.47a3.75,3.75,0,0,1,2.2-.48c1.57,0,6.75.32,6.75.32l4.4-.47s1.73.47,2.52.63a19.52,19.52,0,0,0,5.34-.32c.47-.31,5-1.26,5-2.36s.16-3.3.16-3.3l-3-.78-3.46-.63v-.79l2.67-.31.32-1.26-.47-1.25,2.35-.48,2.2-1.57,1.73-1.41,1.1-5.19L325.72,225s-1.26-1.42-1.89-1.42-3.3-.16-3.3-.16l-3.61,1.42-.47-2,1.41-2.68a1.28,1.28,0,0,0,0-1.57,10,10,0,0,1-1.73-2.35c-.16-.63-2.83-2-2.83-2s.16-1.1.63-1.1a2.72,2.72,0,0,1,1.57.16c.47.31,1.89,1.41,1.89.94v-1.88l-1.1-1.89-.79-2.51-2.83-4.25-1.88-.47-1.1-2.83-2.2-10-5.19-5.66-2.35.47-1.42.47-2-.47s-1.42-1.26-.94-1.26a20.79,20.79,0,0,0,2.35-.47l3.62-1.1,1.41-.78-.31-1.26-1-.31,3.15-1.89s3-6.76,3.61-7.23,1.89-1.88,1.89-2.36a8.84,8.84,0,0,0-.63-1.88L305,165.09l-4.71-.94a12.84,12.84,0,0,1-2.83,1.57,23,23,0,0,1-3.3.47s-.63-.16,0-.63a9.17,9.17,0,0,1,1.26-.79l1.41-1.25.32-.63s-.79,0-.79-.47a1.93,1.93,0,0,1,.94-1.42,9.87,9.87,0,0,1,2-.94l2.67-2.67,1.26-2.67-.48-1-.62-.15a4.11,4.11,0,0,1-1.73.63c-1.1.15-4.72.15-4.72.15l-1.73-.63-1.1-1.25-1.25.31-.32,3.77-1.73.16s-.47-.47-.62,0-.48,1.26-.48,1.26l.48,2s.47.79,0,.79-3.62.15-3.62.15l-.31,3h-1.26l.47.78.94,1.42V168s.16.63-.47.63-.78-.31-1.25-.63a7.66,7.66,0,0,1-1.26-1.41l-.94-.94v-2.83H280v1.41h-1.57v1.26l1.57,1.26.94.94.32,1.26,1.25.63,1.57.94-1.25,2.2h-1.89a.6.6,0,0,0,0,.78c.32.47,1.57,2,1.57,2h1.73l.16,1.1-.63,2.51-3.61,9.27,2,.16,1.88-6s0,.63,1.26.63a3.35,3.35,0,0,0,1.73-.32,7.59,7.59,0,0,1-.16,3l-.47,1.57.94,1.1-5,7.54.94,1.89.94-1.1,1.73,1.41s.63,1.1,1.1.47-.16-1.88.63-1.88a13.64,13.64,0,0,1,2.67.63,2,2,0,0,0,1.41.31,11.48,11.48,0,0,0,2.68-1.73l2,.63L296,198.3l-3.3,2.36,1.88,6.91,3.93-2-1.57,3.14-.47.79v3.14l-1.73.16-.31,2.51-.32,1.73-2-.94s.16-.16-.94-.16a22.72,22.72,0,0,1-3.3,0,29.63,29.63,0,0,1-3.46-2l-.94.78,1.25,1.89s.79,1.73,0,1.73-1.41-.32-1.88.31-1.1,1.57-1.1,1.57l1.57.16h2.2l.47.63v1.57l-.47,4.09-9.9,4.24v1.41a3.42,3.42,0,0,0,.63.79l.47.47,3,.16,3.3-1.1a2.53,2.53,0,0,1-.15,1.41l-.32.63,1.89,1.26a5.55,5.55,0,0,1,1.57.16l.47,1.25,1.89,1.26a3,3,0,0,0,1.73,0c.62-.31,2-1.26,2-1.26l2.36-1.57.15.79-1.25,1.25-1.42,2.52s.79.63-2.2,0a41.69,41.69,0,0,0-5.18-.94h-2.2l-.32,1.41s.79,1.73,0,1.73h-3.46s-.78,3-1.41,3.14.16.47-1.73,1.1a8.9,8.9,0,0,0-3.46,2.67Z" transform="translate(-220.83 -147.12)"/><polygon class="cls-2" points="56.91 47.53 55.81 44.54 55.03 42.81 52.51 42.66 49.73 43.3 49.11 44.07 44.92 45.75 43.87 48.26 42.82 50.15 44.08 53.5 45.13 53.71 47.43 53.5 51.41 55.8 52.74 56.75 52.83 56.17 54.4 56.17 55.66 55.07 57.23 54.13 58.8 53.5 59.43 51.3 56.91 49.41 56.91 47.53"/></svg>