<svg id="Lager_1" data-name="Lager 1" xmlns="http://www.w3.org/2000/svg" viewBox="0 0 136.38 136.38"><defs><style>.cls-1{fill:none;}.cls-2{fill:#00446e;}</style></defs><rect class="cls-1" width="136.38" height="136.38"/><path class="cls-2" d="M276.54,262.93l.79,1.1,1.25.31.79,1.42.63.16,1.1-2.05s1.1-1.73,2-1.73,1.26-.31,2-.31,5.66,2.51,5.66,2.51l2.36-.78.16-2.83h4.55c.47,0,5.19,1.26,5.19,1.26l2.36-.47a3.75,3.75,0,0,1,2.2-.48c1.57,0,6.75.32,6.75.32l4.4-.47s1.73.47,2.52.63a19.55,19.55,0,0,0,5.34-.32c.47-.31,5-1.26,5-2.36s.16-3.3.16-3.3l-3-.78-3.46-.63v-.79L328,253l.32-1.26-.47-1.25,2.35-.48,2.2-1.57,1.73-1.41,1.1-5.19-1.88-3.45s-1.26-1.42-1.89-1.42-3.3-.16-3.3-.16l-3.61,1.42-.47-2,1.41-2.68a1.28,1.28,0,0,0,0-1.57,10.19,10.19,0,0,1-1.73-2.35c-.16-.63-2.83-2-2.83-2s.16-1.1.63-1.1a2.72,2.72,0,0,1,1.57.16c.47.31,1.89,1.41,1.89.94v-1.88l-1.1-1.89-.79-2.51-2.83-4.25-1.88-.47-1.1-2.83-2.2-10-5.19-5.66-2.35.47-1.42.47-2-.47s-1.42-1.26-.94-1.26a21.24,21.24,0,0,0,2.35-.47l3.62-1.1,1.41-.78-.31-1.26-.95-.31,3.15-1.89s3-6.76,3.61-7.23S318,182.46,318,182a8.84,8.84,0,0,0-.63-1.88l-4.72-1.57-4.71-.94a13.07,13.07,0,0,1-2.83,1.57,24.5,24.5,0,0,1-3.3.47s-.63-.16,0-.63a9.17,9.17,0,0,1,1.26-.79l1.41-1.25.32-.63s-.79,0-.79-.47a1.89,1.89,0,0,1,.94-1.42,9.36,9.36,0,0,1,2-.94l2.67-2.67,1.26-2.67-.48-1-.62-.15a4.16,4.16,0,0,1-1.73.63c-1.1.15-4.72.15-4.72.15l-1.73-.63-1.1-1.25-1.25.31-.32,3.77-1.73.16s-.47-.47-.62,0-.48,1.26-.48,1.26l.48,2s.47.79,0,.79-3.62.15-3.62.15l-.31,3h-1.26l.47.78.94,1.42v1.88s.16.63-.47.63-.78-.31-1.25-.63a7.66,7.66,0,0,1-1.26-1.41l-.94-.94v-2.83h-1.26v1.41H286v1.26l1.57,1.26.94.94.32,1.26,1.25.63,1.57.94-1.25,2.2h-1.89a.58.58,0,0,0,0,.78c.32.47,1.57,2,1.57,2h1.73l.16,1.1-.63,2.51-3.61,9.27,2,.16,1.88-6s0,.63,1.26.63a3.35,3.35,0,0,0,1.73-.32,7.78,7.78,0,0,1-.16,3L294,200.9l.94,1.1-5,7.54.94,1.89.94-1.1,1.73,1.41s.63,1.1,1.1.47-.16-1.88.63-1.88a13.64,13.64,0,0,1,2.67.63,1.94,1.94,0,0,0,1.41.31,11.48,11.48,0,0,0,2.68-1.73l2,.63-.47,1.57-3.3,2.36,1.88,6.91,3.93-2-1.57,3.14-.47.79v3.14l-1.73.16-.31,2.51-.32,1.73-2-.94s.16-.16-.94-.16a22.72,22.72,0,0,1-3.3,0,29.63,29.63,0,0,1-3.46-2l-.94.78,1.25,1.89s.79,1.73,0,1.73-1.41-.32-1.88.31-1.1,1.57-1.1,1.57l1.57.16h2.2l.47.63V236l-.47,4.09-9.9,4.24v1.41a3.42,3.42,0,0,0,.63.79l.47.47,3,.16,3.3-1.1a2.62,2.62,0,0,1-.15,1.41l-.32.63,1.89,1.26a5.24,5.24,0,0,1,1.57.16l.47,1.25,1.89,1.26a3,3,0,0,0,1.73,0c.62-.31,2-1.26,2-1.26l2.36-1.57.15.79-1.25,1.25-1.42,2.52s.79.63-2.2,0a39.92,39.92,0,0,0-5.18-.94h-2.2l-.32,1.41s.79,1.73,0,1.73h-3.46s-.78,3-1.41,3.14.16.47-1.73,1.1a8.81,8.81,0,0,0-3.46,2.67Z" transform="translate(-235.67 -149.12)"/><polygon class="cls-2" points="49.66 58.97 48.56 55.98 47.78 54.25 45.27 54.1 42.48 54.74 41.87 55.51 37.67 57.19 36.63 59.7 35.58 61.59 36.84 64.94 37.88 65.15 40.19 64.94 44.16 67.24 45.49 68.19 45.59 67.61 47.16 67.61 48.41 66.51 49.98 65.57 51.55 64.94 52.19 62.74 49.66 60.85 49.66 58.97"/></svg>