<svg width="100%" height="100%" viewBox="0 0 30 31" fill="none" xmlns="http://www.w3.org/2000/svg">
<path d="M16.6667 30.5063H10V10.5063H16.6667V13.8397C18.0877 12.0318 20.2427 10.954 22.5417 10.9013C26.676 10.9243 30.012 14.2886 30 18.423V30.5063H23.3333V19.2563C23.0667 17.3941 21.4696 16.0123 19.5883 16.0163C18.7655 16.0424 17.9887 16.4026 17.4374 17.0141C16.8861 17.6255 16.6077 18.4352 16.6667 19.2563V30.5063ZM6.66667 30.5063H0V10.5063H6.66667V20.5063V30.5063ZM3.33333 7.17301C1.49238 7.17301 0 5.68063 0 3.83968C0 1.99873 1.49238 0.506348 3.33333 0.506348C5.17428 0.506348 6.66667 1.99873 6.66667 3.83968C6.66667 4.72374 6.31548 5.57158 5.69036 6.1967C5.06523 6.82183 4.21739 7.17301 3.33333 7.17301Z" fill="white"/>
</svg>
