<svg width="1029" height="315" viewBox="0 0 1029 315" fill="none" xmlns="http://www.w3.org/2000/svg">
<g clip-path="url(#clip0)">
<path d="M15.0026 108.5C10.7007 108.5 7.10079 107.163 4.20286 104.49C2.83635 103.152 1.75844 101.548 1.0356 99.7776C0.312751 98.0069 -0.039705 96.1069 -3.96618e-05 94.1947C-3.96618e-05 90.1268 1.39493 86.7549 4.18486 84.0789C7.09479 81.289 10.6947 79.894 14.9846 79.894C19.2745 79.894 22.8294 81.289 25.6493 84.0789C27.064 85.3498 28.1863 86.9122 28.9391 88.6585C29.6918 90.4049 30.0571 92.2936 30.0097 94.1947C30.0465 96.1208 29.6772 98.033 28.9259 99.8069C28.1746 101.581 27.0582 103.177 25.6493 104.49C22.8534 107.163 19.3045 108.5 15.0026 108.5ZM27.0398 120.015V216.65H2.6189V120.015H27.0398Z" fill="#4E4E4E"/>
<path d="M109.959 118.62C121.47 118.62 130.77 122.283 137.859 129.609C144.95 136.824 148.496 146.938 148.496 159.952V216.65H124.089V163.277C124.089 155.6 122.169 149.728 118.329 145.66C114.492 141.46 109.259 139.36 102.629 139.36C95.8851 139.36 90.5363 141.46 86.5824 145.66C82.7455 149.728 80.8255 155.6 80.8225 163.277V216.65H56.4016V120.015H80.8225V132.052C84.1061 127.847 88.3557 124.496 93.2107 122.283C98.4458 119.814 104.172 118.562 109.959 118.62Z" fill="#4E4E4E"/>
<path d="M205.402 140.076V186.829C205.402 190.081 206.152 192.465 207.652 193.98C209.281 195.375 211.955 196.072 215.675 196.072H227.015V216.65H211.684C191.098 216.65 180.805 206.648 180.805 186.645V140.076H169.29V120.015H180.805V96.1162H205.402V120.015H227.033V140.076H205.402Z" fill="#4E4E4E"/>
<path d="M339.674 166.252C339.699 169.406 339.466 172.558 338.977 175.674H268.328C268.91 182.649 271.352 188.115 275.654 192.072C279.956 196.029 285.248 198.006 291.53 198.003C300.602 198.003 307.051 194.103 310.879 186.303H337.222C334.432 195.603 329.083 203.28 321.175 209.334C313.27 215.264 303.56 218.23 292.043 218.23C282.743 218.23 274.369 216.194 266.92 212.123C259.632 207.975 253.65 201.872 249.649 194.502C245.581 186.948 243.546 178.226 243.543 168.335C243.543 158.336 245.578 149.557 249.649 141.997C253.524 134.637 259.468 128.573 266.749 124.551C274.081 120.48 282.514 118.445 292.047 118.445C301.233 118.445 309.432 120.422 316.644 124.376C323.844 128.205 329.736 134.098 333.563 141.3C337.64 148.509 339.677 156.826 339.674 166.252ZM314.38 159.277C314.263 152.995 311.995 147.994 307.576 144.274C303.158 140.437 297.758 138.517 291.377 138.514C285.329 138.514 280.211 140.376 276.023 144.099C271.949 147.699 269.449 152.758 268.522 159.277H314.38Z" fill="#4E4E4E"/>
<path d="M387.157 135.018C390.151 130.044 394.35 125.904 399.365 122.981C404.483 120.074 410.298 118.62 416.811 118.62V144.269H410.358C402.682 144.269 396.866 146.069 392.912 149.669C389.075 153.269 387.157 159.55 387.157 168.51V216.65H362.732V120.015H387.157V135.018Z" fill="#4E4E4E"/>
<path d="M492.049 118.62C503.563 118.62 512.863 122.283 519.949 129.609C527.04 136.809 530.588 146.927 530.591 159.965V216.65H506.165V163.277C506.165 155.6 504.247 149.728 500.41 145.66C496.57 141.46 491.337 139.36 484.71 139.36C477.963 139.36 472.613 141.46 468.659 145.66C464.819 149.728 462.901 155.6 462.904 163.277V216.65H438.496V120.015H462.917V132.052C466.199 127.847 470.447 124.496 475.301 122.283C480.536 119.815 486.262 118.562 492.049 118.62Z" fill="#4E4E4E"/>
<path d="M552.78 167.989C552.78 158.218 554.698 149.554 558.535 141.997C562.489 134.437 567.781 128.622 574.411 124.551C581.158 120.48 588.658 118.445 596.91 118.445C604.11 118.445 610.389 119.898 615.747 122.805C621.219 125.712 625.581 129.377 628.832 133.798V120.015H653.429V216.65H628.832V202.521C625.695 207.057 621.333 210.837 615.747 213.86C610.284 216.767 603.947 218.221 596.735 218.221C588.844 218.287 581.099 216.102 574.406 211.921C567.777 207.736 562.485 201.864 558.531 194.304C554.7 186.645 552.783 177.873 552.78 167.989ZM628.828 168.335C628.828 162.404 627.666 157.346 625.341 153.161C623.212 149.061 619.939 145.667 615.918 143.392C612.092 141.137 607.738 139.933 603.297 139.902C598.856 139.871 594.485 141.015 590.628 143.217C586.789 145.428 583.648 148.684 581.206 152.986C578.881 157.186 577.718 162.187 577.718 167.989C577.718 173.79 578.881 178.907 581.206 183.338C583.431 187.414 586.678 190.841 590.628 193.282C594.421 195.564 598.762 196.769 603.188 196.77C607.647 196.79 612.034 195.649 615.918 193.458C619.887 191.117 623.144 187.74 625.341 183.689C627.669 179.387 628.834 174.269 628.837 168.335H628.828Z" fill="#4E4E4E"/>
<path d="M720.378 118.445C727.578 118.445 733.915 119.898 739.39 122.805C744.856 125.601 749.16 129.266 752.3 133.798V120.015H776.897V217.357C776.897 226.312 775.097 234.278 771.497 241.256C767.897 248.348 762.497 253.93 755.297 258.004C748.098 262.204 739.375 264.304 729.131 264.304C715.406 264.304 704.126 261.106 695.291 254.71C686.571 248.318 681.621 239.595 680.442 228.544H704.683C705.961 232.962 708.692 236.451 712.877 239.01C717.182 241.683 722.36 243.021 728.411 243.024C735.502 243.024 741.258 240.872 745.677 236.567C750.096 232.367 752.305 225.971 752.305 217.379V202.354C749.167 206.89 744.805 210.67 739.219 213.694C733.756 216.718 727.478 218.23 720.383 218.23C712.491 218.296 704.744 216.11 698.05 211.93C691.309 207.745 685.96 201.873 682.003 194.313C678.166 186.636 676.246 177.855 676.243 167.971C676.243 158.2 678.163 149.536 682.003 141.979C685.96 134.419 691.252 128.604 697.879 124.533C704.623 120.474 712.122 118.445 720.378 118.445ZM752.3 168.335C752.3 162.404 751.138 157.346 748.813 153.161C746.685 149.061 743.411 145.667 739.39 143.392C735.564 141.136 731.209 139.932 726.767 139.901C722.325 139.87 717.954 141.014 714.096 143.217C710.257 145.428 707.117 148.684 704.678 152.986C702.35 157.186 701.188 162.187 701.191 167.989C701.194 173.79 702.358 178.911 704.683 183.351C706.906 187.427 710.152 190.854 714.101 193.296C717.895 195.577 722.238 196.783 726.665 196.783C731.123 196.803 735.511 195.662 739.395 193.471C743.364 191.13 746.621 187.753 748.818 183.702C751.136 179.391 752.297 174.269 752.3 168.335Z" fill="#00446E"/>
<path d="M848.9 218.23C839.6 218.23 831.227 216.194 823.781 212.123C816.391 207.991 810.292 201.892 806.16 194.502C801.96 186.948 799.86 178.226 799.86 168.335C799.86 158.444 802.012 149.722 806.317 142.168C810.554 134.785 816.78 128.742 824.285 124.727C831.845 120.527 840.276 118.427 849.579 118.427C858.882 118.427 867.313 120.527 874.873 124.727C882.353 128.717 888.53 134.77 892.67 142.168C897.083 149.728 899.291 158.45 899.294 168.335C899.297 178.22 897.03 186.942 892.495 194.502C888.197 201.944 881.916 208.045 874.351 212.123C866.803 216.191 858.319 218.227 848.9 218.23ZM848.9 196.945C853.23 196.966 857.493 195.882 861.288 193.795C865.312 191.523 868.592 188.133 870.729 184.035C873.054 179.733 874.216 174.5 874.216 168.335C874.216 159.152 871.774 152.117 866.89 147.231C862.12 142.227 856.246 139.726 849.269 139.729C842.291 139.732 836.418 142.233 831.652 147.231C827.005 152.111 824.68 159.146 824.677 168.335C824.674 177.524 826.94 184.619 831.476 189.619C836.114 194.5 841.922 196.942 848.9 196.945Z" fill="#00446E"/>
<path d="M923.904 285.814C923.278 284.054 924.565 282.835 925.569 281.939C928.426 279.388 932.769 279.239 936.144 281.251C936.522 281.476 936.854 281.957 937.34 281.728C938.006 281.417 937.615 280.783 937.565 280.328C937.052 275.531 939.725 272.44 944.225 271.329C946.673 270.717 948.653 271.968 951.097 272.949C950.381 269.295 950.323 265.906 953.374 263.395C956.424 260.884 959.835 261.186 963.557 262.576C962.657 259.39 962.319 256.573 964.227 253.955C965.192 252.574 966.558 251.526 968.141 250.951C969.723 250.377 971.445 250.305 973.07 250.746C973.565 250.868 974.091 251.259 974.586 250.877C974.96 250.584 974.662 250.197 974.518 249.864C972.08 244.356 976.062 237.809 983.464 238.578C983.914 238.628 984.364 238.578 985.264 238.578C983.275 235.32 982.906 232.108 985.17 229.07C987.433 226.033 990.57 225.155 994.777 225.691C992.28 222.482 991.461 219.305 993.405 215.98C995.389 212.578 998.683 211.719 1002.73 212.187C1001.95 210.108 1000.13 209.005 999.902 206.913C999.569 203.875 1000.13 201.288 1002.6 199.375C1005.55 197.125 1008.87 197.004 1012.05 198.763C1014.89 200.329 1015.88 203.016 1015.65 206.076C1015.32 210.126 1012.17 212.938 1007.9 213.208C1007.19 213.253 1006.2 212.691 1005.8 213.505C1005.4 214.319 1006.58 214.441 1006.96 214.949C1008.65 217.163 1008.97 221.501 1007.49 223.886C1005.53 227.036 1002.54 228.274 998.557 227.558C998.255 227.504 997.967 227.405 997.207 227.212C1000.51 230.569 1001.31 234.241 999.007 237.867C996.703 241.494 992.923 242.421 988.428 241.08C990.597 244.937 991.231 248.483 988.405 251.777C985.674 254.958 982.047 255.219 977.956 253.829C979.59 257.748 979.828 261.24 976.8 264.178C973.772 267.117 970.113 266.905 966.216 265.434C967.017 268.246 967.314 270.834 965.919 273.322C963.998 276.778 959.093 278.393 955.439 276.683C954.751 276.364 954.089 276.062 953.329 276.292C953.329 276.188 953.329 276.08 953.329 275.977H953.122L953.36 276.251C953.387 277.223 953.36 278.2 953.45 279.172C953.693 282.137 952.514 284.351 949.85 285.827C946.745 287.542 943.703 287.42 940.742 285.517C940.049 285.067 939.446 284.482 938.681 283.865C939.302 285.526 939.181 287.159 939.176 288.788C939.176 290.759 937.957 292.105 936.661 293.419C935.365 294.733 933.511 295.016 931.855 295.412C928.462 296.222 924.763 293.297 923.985 289.436C924.174 288.235 924.453 287.011 923.904 285.814Z" fill="#00446E"/>
<path d="M1000.15 126.86C1002.94 127.476 1005.15 130.081 1005.6 133.285C1006 136.107 1004.09 139.563 1001.43 140.868C1000.75 141.201 1000.08 141.556 999.268 141.984C1003.18 143.401 1005.47 146.124 1005.46 149.881C1005.46 154.111 1002.67 156.775 998.345 157.981C1004.73 161.486 1004.69 168.272 1000.37 171.75C999.656 172.396 998.796 172.859 997.864 173.1C995.888 173.46 996.064 174.113 997.184 175.319C1001.14 179.63 1000.12 185.219 995.078 188.098C993.886 188.778 991.771 187.972 991.568 189.574C991.442 190.542 992.941 191.622 993.463 192.756C995.672 197.598 992.113 203.331 986.65 203.803C985.98 203.862 985.269 203.673 984.463 204.163C985.84 205.914 986.97 207.718 986.893 210.085C986.749 214.585 983.541 217.766 978.888 217.784C976.053 217.784 976.053 217.784 977.304 220.088C978.654 222.541 978.177 226.285 976.255 228.467C974.221 230.771 970.518 231.644 967.197 230.573C966.707 230.415 966.297 229.997 965.55 230.357C966.513 232.031 967.845 233.507 967.8 235.644C967.783 237.673 966.966 239.613 965.528 241.044C963.363 243.294 959.331 243.852 956.384 242.367C954.269 241.301 951.686 237.395 952.176 235.478C953.675 229.628 957.482 227.207 964.146 229.137C961.824 225.362 961.595 221.938 963.759 218.788C965.978 215.579 969.506 215.377 973.582 216.227C970.109 212.627 970.154 208.865 972.142 205.234C973.803 202.201 977.137 202.264 980.692 202.269C977.839 199.447 977.2 196.279 978.1 192.891C979.104 189.12 982.461 188.319 986.047 187.518C983.091 184.926 982.83 181.754 983.487 178.329C984.247 174.342 987.622 173.658 991.02 172.709C988.18 170.733 986.443 168.384 986.758 164.884C987.073 161.383 988.558 159.281 992.072 158.057C992.428 157.931 992.855 157.909 992.882 157.427C992.909 156.946 992.504 156.815 992.216 156.586C987.465 152.86 987.816 147.955 991.339 144.126C992.239 143.136 993.139 142.218 994.763 142.011C990.803 140.373 988.914 137.457 989.273 133.506C989.367 132.032 989.887 130.618 990.772 129.436C991.657 128.254 992.867 127.355 994.255 126.851C996.235 126.9 998.192 126.365 1000.15 126.86Z" fill="#00446E"/>
<path d="M946.534 64.4459C944.9 64.7744 943.384 65.4719 941.629 65.4404C935.932 65.3414 932.107 60.1891 933.979 54.9602C935.045 51.9858 939.766 49.6413 943.109 50.4288C948.415 51.6843 950.674 55.8287 948.815 60.882C948.536 61.6425 948.203 62.385 947.798 63.375C952.167 62.475 956.406 62.385 958.8 66.6644C960.74 70.1338 960.254 73.6077 957 76.7216C961.212 76.5596 965.262 76.2717 967.382 80.5331C969.38 84.556 968.376 88.0524 964.853 91.2158C972.408 90.7118 975.135 95.5537 974.793 100.153C974.612 101.961 973.799 103.649 972.498 104.918C971.395 106.079 971.598 106.893 973.101 107.055C979.311 107.748 981.331 116.978 976.372 120.708C975.769 121.158 975.247 121.712 974.626 122.274C975.855 123.705 977.916 123.687 979.207 125.073C982.492 128.601 982.051 135.558 976.813 137.673C976.156 137.938 975.301 138.091 975.265 138.771C975.238 139.347 976.134 139.365 976.66 139.603C979.23 140.764 980.805 142.708 981.201 145.453C981.678 148.751 980.625 151.676 977.686 153.278C976.352 153.974 974.869 154.337 973.364 154.337C971.859 154.337 970.377 153.974 969.042 153.278C966.275 151.892 965.105 148.157 965.645 145.178C966.252 141.84 968.25 139.882 971.495 138.942C971.36 138.312 970.919 138.199 970.361 138.042C964.511 136.597 963.75 127.921 967.904 124.753C969.411 123.601 969.569 123.161 967.656 122.184C961.838 119.223 961.181 112.518 966.126 108.32C966.379 108.056 966.604 107.767 966.797 107.456C964.097 106.826 961.248 106.484 959.619 103.95C957.545 100.72 957.662 97.3986 959.808 94.2937C960.672 93.0472 960.515 92.8583 959.124 92.5253C957.617 92.1653 956.064 91.8548 954.732 90.8648C951.848 88.7274 950.714 82.765 953.891 79.1651C954.061 78.9415 954.219 78.7086 954.363 78.4676C952.262 78.1571 950.314 78.4946 948.374 77.8061C943.798 76.1637 941.921 69.7063 945.112 66.1064C945.598 65.5574 946.012 64.9634 946.498 64.3875C946.538 64.2795 947.024 64.3515 946.637 64.0635C946.592 64.1985 946.561 64.3199 946.534 64.4459Z" fill="#00446E"/>
<path d="M930.865 78.9219C934.541 77.8329 937.525 78.6699 939.865 81.1718C942.7 84.2498 941.989 87.7102 940.135 90.8826C939.235 92.4486 939.685 92.3991 941.035 92.4621C946.862 92.7411 949.004 96.5975 948.914 100.355C948.842 103.356 947.443 105.305 944.923 106.61C942.11 108.081 939.293 107.793 936.647 106.128C933.137 103.923 931.958 97.5784 937.066 93.8165C933.097 94.2665 929.7 93.8885 927.333 91.1166C924.768 88.1242 925.627 84.8168 927.18 81.5183C926.261 81.468 925.34 81.468 924.421 81.5183C919.021 82.1573 915.318 77.1715 916.159 72.7031C916.506 70.8716 916.11 70.4846 914.152 70.6241C907.556 71.1011 904.347 68.0502 904.347 61.6243C904.321 61.2916 904.273 60.9609 904.203 60.6344C900.603 62.3893 897.206 62.4748 894.056 59.8739C892.166 58.3124 891.451 56.2335 891.163 53.97C891.05 53.07 890.933 52.8091 889.925 53.2455C882.334 56.553 877.667 53.835 876.983 45.5372C875.665 47.4767 874.072 48.9256 872.033 49.6231C871.01 49.9579 869.928 50.0728 868.857 49.9603C867.786 49.8479 866.751 49.5106 865.819 48.9706C862.944 47.4137 861.063 42.9813 862.377 40.0924C863.911 36.7264 866.017 34.4765 870.783 35.102C875.093 35.6645 876.632 37.3519 877.577 42.9543C879.094 41.5323 880.394 40.2094 882.419 39.6334C887.527 38.1799 892.593 41.1138 893.075 46.2572C893.228 47.9087 893.525 47.9852 894.911 47.1572C898.335 45.0782 901.868 45.5957 904.982 47.6522C906.741 48.8132 907.304 51.0406 907.596 53.1105C907.662 54.1114 907.662 55.1156 907.596 56.1165C911.529 54.7665 915.309 54.1365 918.459 57.2144C921.1 59.7974 921.829 62.9248 920.043 66.5832C924.25 65.4177 928.057 65.5392 930.843 68.8872C932.863 71.3396 932.75 76.1545 930.865 78.9219ZM891.1 52.3726C891.055 52.4176 890.978 52.4626 890.978 52.5076C890.978 52.5526 891.05 52.6021 891.091 52.6471C891.136 52.6021 891.212 52.5571 891.212 52.5121C891.212 52.4671 891.14 52.4311 891.1 52.4041V52.3726Z" fill="#00446E"/>
<path d="M889.925 75.1644C891.689 74.3994 893.012 72.8875 895.159 72.7075C898.408 72.433 901.242 73.477 902.7 76.2444C904.118 78.9443 904.05 81.7748 902.277 84.3442C900.059 87.5166 893.579 88.2411 890.857 85.4647C889.96 84.5568 889.307 83.4362 888.961 82.2078C888.615 80.9793 888.586 79.6831 888.877 78.4403C889.025 77.7249 889.399 77.0319 889.057 76.1454C888.076 76.8699 887.225 77.6979 886.204 78.2153C880.498 81.1358 874.684 76.9194 874.383 71.9425C874.356 71.5195 874.527 70.9705 874.014 70.7455C873.411 70.489 873.312 71.128 873.001 71.4115C867.673 76.2444 859.951 73.36 858.673 66.4616C856.536 69.8141 853.629 71.9785 849.579 71.3035C846.384 70.768 843.797 69.0536 842.933 65.5977C841.875 66.2636 841.884 67.5011 841.254 68.3831C838.865 71.7445 834.54 73.18 831.004 71.38C826.918 69.3011 825.676 66.1421 826.706 61.6153C827.363 58.7263 829.649 57.3404 832.466 56.7689C835.787 56.0939 838.676 56.8544 840.773 59.5903C842.366 61.6648 842.285 61.6693 843.545 59.5408C845.264 56.6474 847.851 55.1669 851.325 55.3694C854.727 55.5674 856.99 57.3674 858.448 60.2743C858.772 60.9223 858.678 61.7547 859.348 62.2677C863.11 57.0974 867.966 56.2244 872.574 59.7883C874.401 61.2013 874.891 63.1902 875.355 65.1882C875.602 66.2771 875.557 66.6281 876.79 65.6382C881.056 62.2137 886.415 63.0687 889.318 67.4021C890.384 68.9906 890.506 70.75 890.218 72.5635C890.092 73.4365 889.669 74.2734 889.939 75.1824C889.489 75.0699 889.255 75.2994 889.255 75.7089C889.255 75.8259 889.534 76.0599 889.606 76.0329C890.078 75.8844 889.979 75.5109 889.925 75.1644Z" fill="#00446E"/>
<path d="M821.855 92.278C821.671 89.2405 821.23 86.2256 823.781 83.6787C827.674 79.7998 835.287 80.6278 837.591 86.3381C837.695 86.5946 837.65 86.9366 838.275 86.9951C838.901 84.0567 839.738 81.1452 842.856 79.6288C844.382 78.8908 846.006 78.3643 847.712 78.6478C851.681 79.3003 854.507 82.3467 854.736 86.1131C854.961 89.8075 852.608 92.8314 848.594 94.0059C844.697 95.1399 841.461 93.3174 838.532 88.2596C838.113 89.839 837.983 91.4725 837.276 92.8135C834.806 97.5158 828.578 99.0548 824.096 95.1174C823.498 94.5909 823.223 93.6999 822.26 93.5874L822.305 93.6504C822.404 93.3929 822.408 93.1085 822.315 92.8485C822.223 92.5886 822.041 92.3703 821.801 92.233L821.855 92.278Z" fill="#00446E"/>
<path d="M822.26 93.5869C822.71 96.4084 823.066 99.1623 821.009 101.655C819.949 102.907 818.553 103.83 816.985 104.314C815.418 104.798 813.744 104.823 812.162 104.387C809.206 103.487 806.826 100.566 806.664 97.6368C806.461 94.1179 808.171 91.391 811.245 89.9105C814.759 88.2186 818.323 89.3345 820.784 91.805C821.135 92.156 821.311 92.4979 821.855 92.255L821.801 92.21C821.945 92.6914 821.446 93.3844 822.305 93.6274L822.26 93.5869Z" fill="#00446E"/>
<path d="M992.167 125.064C988.765 123.597 987.42 120.443 988.324 116.064C988.873 113.409 992.423 110.732 995.38 110.736C999.308 110.736 1002.55 112.752 1003.4 115.718C1004.53 119.646 1003.37 122.846 1000.15 124.717C997.531 125.802 994.858 125.617 992.167 125.064Z" fill="#00446E"/>
<path d="M924.277 294.786C924.565 299.637 920.524 302.198 916.587 302.13C912.087 302.054 908.969 299.079 908.879 294.8C908.762 289.4 912.087 287.181 916.682 287.1C920.295 287.037 924.777 290.39 924.277 294.786Z" fill="#00446E"/>
<path d="M978.874 162.571C978.946 167.124 975.589 170.094 971.072 170C966.855 169.914 963.768 166.85 963.777 162.652C963.777 158.003 966.581 155.276 971.333 155.263C975.877 155.254 978.883 158.152 978.874 162.571Z" fill="#00446E"/>
<path d="M1005.73 190.281C1005.73 185.831 1008.7 183.018 1013.38 182.906C1019.16 182.771 1021.31 186.227 1021.14 190.263C1020.92 195.379 1019.38 197.373 1013.56 197.719C1008.99 197.989 1005.73 194.682 1005.73 190.281Z" fill="#00446E"/>
<path d="M818.602 76.002C814.579 76.002 810.979 72.5371 810.988 68.6491C810.988 64.0278 813.728 61.2558 818.404 61.3008C823.705 61.3503 825.739 64.2708 826.103 68.5007C826.432 72.3661 822.58 75.9885 818.602 76.002Z" fill="#00446E"/>
<path d="M922.342 46.6936C922.369 41.1768 925.015 39.9438 929.884 39.3318C933.812 38.8503 937.57 42.9317 937.462 46.8421C937.367 50.4105 933.619 53.8394 929.812 53.8349C924.838 53.832 922.348 51.4515 922.342 46.6936Z" fill="#00446E"/>
<path d="M994.961 95.9229C999.911 97.2323 1000.97 101.485 1000.02 105.206C999.079 108.928 993.994 111.227 990.057 109.805C985.606 108.194 984.409 104.455 985.503 100.355C985.75 99.2328 986.329 98.2109 987.166 97.4227C988.002 96.6345 989.057 96.1165 990.192 95.9364C991.745 96.4201 993.41 96.4154 994.961 95.9229Z" fill="#00446E"/>
<path d="M1010.13 174.711C1010.13 170.459 1013.28 167.408 1017.63 167.439C1022.06 167.475 1025.22 170.49 1025.05 174.774C1024.86 179.355 1022.48 181.83 1017.68 181.974C1016.7 182.022 1015.72 181.869 1014.8 181.525C1013.88 181.18 1013.05 180.652 1012.34 179.972C1011.63 179.292 1011.07 178.474 1010.69 177.569C1010.31 176.665 1010.12 175.692 1010.13 174.711Z" fill="#00446E"/>
<path d="M901.112 293.247C905.67 293.247 908.654 296.086 908.663 300.447C908.663 304.272 905.202 307.678 901.193 307.782C897.089 307.89 893.43 304.569 893.543 300.46C893.678 296.482 896.31 293.013 901.112 293.247Z" fill="#00446E"/>
<path d="M994.88 87.6698C994.934 91.8907 992.181 94.6986 987.879 94.7886C983.379 94.8831 980.386 92.2192 980.382 87.9533C980.377 83.6874 982.416 80.7984 987.474 80.7534C991.429 80.6814 994.979 83.2194 994.88 87.6698Z" fill="#00446E"/>
<path d="M795.54 108.653C795.068 104.374 799.014 101.84 802.74 101.876C806.965 101.912 809.832 104.779 809.791 108.95C809.76 112.892 806.641 116.114 802.618 115.727C798.024 115.291 795.423 113.918 795.54 108.653Z" fill="#00446E"/>
<path d="M884.98 297.757C889.876 297.347 892.297 301.356 892.319 304.655C892.319 308.493 888.958 311.688 884.935 311.702C880.84 311.702 877.334 308.453 877.546 304.565C877.721 301.406 880.682 297.446 884.98 297.757Z" fill="#00446E"/>
<path d="M856.518 88.8532C856.014 85.5547 859.218 82.0043 863.538 81.9818C864.481 81.953 865.42 82.1126 866.301 82.4513C867.182 82.7899 867.986 83.3008 868.667 83.9541C869.348 84.6073 869.892 85.3898 870.267 86.2557C870.641 87.1216 870.84 88.0536 870.85 88.9972C870.85 92.6241 867.358 95.9405 863.61 95.909C859.785 95.882 855.96 92.6061 856.518 88.8532Z" fill="#00446E"/>
<path d="M1027.28 158.84C1027.37 163.605 1024.22 165.752 1020.11 165.774C1019.17 165.776 1018.24 165.592 1017.37 165.231C1016.5 164.871 1015.71 164.342 1015.05 163.676C1014.38 163.009 1013.86 162.217 1013.5 161.346C1013.14 160.475 1012.96 159.542 1012.97 158.602C1013.02 154.885 1016.54 151.568 1020.42 151.703C1024.21 151.852 1027.7 154.822 1027.28 158.84Z" fill="#00446E"/>
<path d="M946.381 121.59C942.232 121.59 939.257 118.697 939.244 114.701C939.236 113.759 939.423 112.826 939.792 111.959C940.161 111.092 940.705 110.311 941.389 109.664C942.074 109.017 942.884 108.517 943.77 108.197C944.656 107.877 945.598 107.743 946.538 107.802C950.588 108.032 953.86 111.015 953.536 115.002C953.243 118.58 951.524 122.153 946.381 121.59Z" fill="#00446E"/>
<path d="M860.919 40.2951C860.919 44.165 857.827 47.1574 853.836 47.1799C848.85 47.1799 846.38 43.508 846.524 40.2366C846.704 36.1462 849.008 33.4463 853.926 33.4868C858.844 33.5273 860.523 36.0607 860.919 40.2951Z" fill="#00446E"/>
<path d="M955.857 247.128C956.307 251.209 952.141 254.328 948.658 254.188C946.761 254.156 944.951 253.386 943.612 252.042C942.273 250.698 941.51 248.885 941.485 246.988C941.413 242.745 944.513 240.144 948.878 240.203C953.139 240.252 955.871 242.93 955.857 247.128Z" fill="#00446E"/>
<path d="M909.734 36.9291C909.63 31.7183 912.402 30.2648 916.816 30.2288C920.839 30.1973 923.697 32.7712 923.566 37.1586C923.44 41.1725 920.785 43.8095 916.636 43.8005C912.348 43.7915 909.72 41.1545 909.734 36.9291Z" fill="#00446E"/>
<path d="M967.112 184.75C963.062 184.723 960.051 181.96 960.209 178.081C960.393 173.514 962.072 171.471 967.26 171.269C971.062 171.12 974.689 174.702 974.604 178.266C974.514 181.951 971.251 184.773 967.112 184.75Z" fill="#00446E"/>
<path d="M1028.1 142.74C1028.1 146.767 1025.31 149.602 1021.2 149.764C1017.93 149.89 1014.56 146.367 1014.54 142.794C1014.54 138.91 1017.28 136.228 1021.29 136.219C1025.74 136.206 1028.1 138.483 1028.1 142.74Z" fill="#00446E"/>
<path d="M981.201 66.7278C985.737 66.9798 987.901 69.4682 988.077 73.4776C988.221 76.83 984.252 80.4884 980.953 80.4704C977.245 80.4704 974.114 77.1225 974.204 73.2706C974.276 69.2162 976.989 66.6783 981.201 66.7278Z" fill="#00446E"/>
<path d="M908.01 97.6734C903.668 97.6959 901.287 95.3289 901.089 91.2071C900.891 87.0852 904.059 84.7092 907.7 84.6012C911.664 84.4842 914.576 87.2562 914.594 91.0406C914.618 91.9141 914.465 92.7835 914.143 93.5961C913.822 94.4086 913.339 95.1474 912.723 95.7677C912.108 96.3879 911.372 96.8766 910.562 97.2042C909.752 97.5318 908.884 97.6914 908.01 97.6734Z" fill="#00446E"/>
<path d="M862.075 307.508C862.075 303.413 864.487 300.96 868.609 300.933C872.88 300.906 875.62 303.413 875.615 307.35C875.614 308.231 875.437 309.103 875.096 309.915C874.755 310.727 874.256 311.463 873.628 312.081C873 312.699 872.256 313.186 871.438 313.514C870.621 313.842 869.746 314.005 868.866 313.992C864.532 314.019 862.093 311.693 862.075 307.508Z" fill="#00446E"/>
<path d="M810.741 75.8984C810.92 79.3588 807.537 82.6257 803.928 82.4412C800.224 82.2567 797.092 79.5073 797.223 75.9524C797.38 71.7 799.473 69.4815 803.842 69.3241C807.91 69.1756 810.736 71.9475 810.741 75.8984Z" fill="#00446E"/>
<path d="M943.132 257.149C942.817 261.46 939.95 263.643 936.116 263.899C932.544 264.129 929.088 260.493 929.182 257.028C929.277 253.464 932.535 250.444 936.26 250.462C939.986 250.48 943.114 253.572 943.132 257.149Z" fill="#00446E"/>
<path d="M837.659 46.8333C834.225 46.8333 830.607 43.5124 830.72 40.466C830.846 37.1901 834.135 34.0266 837.645 34.1391C841.457 34.2651 844.08 36.6726 844.094 40.5515C844.103 44.2459 841.443 46.8333 837.659 46.8333Z" fill="#00446E"/>
<path d="M902.358 22.867C905.958 22.894 908.924 25.7649 908.883 29.1668C908.843 32.6543 905.877 35.3227 902.133 35.2957C898.938 35.2957 895.383 33.2707 895.563 28.9958C895.707 25.3329 898.353 22.8355 902.358 22.867Z" fill="#00446E"/>
<path d="M961.077 199.344C956.389 199.29 954.998 197.152 954.454 193.044C954.004 189.53 957.154 186.744 961.109 186.614C964.394 186.51 967.881 189.818 967.625 193.044C967.4 195.906 964.898 199.686 961.077 199.344Z" fill="#00446E"/>
<path d="M852.31 314.878C848.436 314.91 845.795 312.331 845.808 308.524C845.808 305.334 849.03 302.031 852.153 301.995C855.546 301.959 858.525 304.933 858.633 308.421C858.654 309.263 858.506 310.101 858.197 310.885C857.889 311.669 857.426 312.384 856.836 312.986C856.247 313.588 855.543 314.065 854.765 314.391C853.988 314.716 853.153 314.881 852.31 314.878Z" fill="#00446E"/>
<path d="M1014.54 126.608C1014.54 123.039 1017.24 120.398 1020.89 120.411C1024.55 120.425 1027.26 123.111 1027.25 126.648C1027.25 130.329 1024.51 133.141 1020.91 133.029C1017.39 132.921 1014.16 130.005 1014.54 126.608Z" fill="#00446E"/>
<path d="M966.652 59.7754C966.571 55.631 968.979 53.6466 972.858 53.5296C976.431 53.4216 979.446 56.0585 979.414 59.7349C979.383 63.6453 976.206 65.9223 972.835 65.9853C968.376 66.0753 966.738 63.3888 966.652 59.7754Z" fill="#00446E"/>
<path d="M928.885 265.78C929.452 268.772 925.771 272.12 922.648 271.909C918.337 271.621 916.231 269.911 916.209 265.843C916.182 261.887 918.513 259.583 922.567 259.543C924.23 259.538 925.828 260.191 927.011 261.36C928.195 262.528 928.868 264.117 928.885 265.78Z" fill="#00446E"/>
<path d="M955.777 130.414C955.349 134.464 953.077 136.552 949.171 136.547C945.422 136.547 942.83 133.757 942.83 130.063C942.83 126.013 946.552 123.763 949.45 123.799C952.852 123.862 955.853 127.012 955.777 130.414Z" fill="#00446E"/>
<path d="M829.735 307.967C829.514 304.695 832.299 302.4 835.661 302.499C839.022 302.598 841.695 305.222 841.605 308.349C841.493 312.106 839.252 314.199 835.427 314.05C833.87 313.984 832.402 313.309 831.338 312.171C830.273 311.034 829.698 309.524 829.735 307.967Z" fill="#00446E"/>
<path d="M963.453 52.4539C959.44 52.4944 957.64 50.8384 957.568 47.054C957.505 43.8591 959.867 41.1412 962.832 40.9882C963.639 40.9402 964.447 41.0547 965.209 41.3249C965.971 41.595 966.67 42.0153 967.267 42.5608C967.863 43.1063 968.344 43.766 968.68 44.5007C969.017 45.2354 969.203 46.0302 969.227 46.838C969.276 50.3164 967.134 52.4044 963.453 52.4539Z" fill="#00446E"/>
<path d="M1018.91 116.37C1015.54 116.406 1012.87 113.936 1012.86 110.768C1012.86 107.434 1015.22 105.143 1018.75 105.094C1022.39 105.044 1024.78 107.209 1024.81 110.588C1024.84 113.832 1022.28 116.334 1018.91 116.37Z" fill="#00446E"/>
<path d="M887.036 28.6041C882.766 28.919 880.907 25.9041 880.795 23.5147C880.628 20.0273 883.369 17.4038 886.843 17.4533C890.317 17.5028 892.603 19.5593 892.652 22.9702C892.702 26.3811 890.497 28.5906 887.036 28.6041Z" fill="#00446E"/>
<path d="M943.789 145.727C943.838 142.636 946.322 140.035 949.148 140.125C952.577 140.228 955.763 143.086 955.592 145.907C955.417 148.846 952.631 151.541 949.769 151.541C946.52 151.537 943.739 148.837 943.789 145.727Z" fill="#00446E"/>
<path d="M795.081 129.19C791.427 129.19 789.294 127.062 789.366 123.521C789.434 120.227 791.756 118.121 795.256 118.166C798.501 118.215 800.8 120.492 800.782 123.647C800.764 127.067 798.564 129.204 795.081 129.19Z" fill="#00446E"/>
<path d="M947.06 207.038C947.06 203.182 948.954 201.337 952.91 201.373C956.348 201.405 958.463 203.457 958.49 206.773C958.517 210.373 956.388 212.515 952.766 212.497C949.297 212.492 947.064 210.35 947.06 207.038Z" fill="#00446E"/>
<path d="M922.554 104.418C922.554 107.64 920.304 109.976 917.042 109.935C913.406 109.89 911.102 107.469 910.908 104.36C910.715 101.25 913.608 98.816 917.001 98.7935C917.736 98.7958 918.463 98.9434 919.14 99.2278C919.817 99.5122 920.432 99.9278 920.948 100.451C921.464 100.973 921.872 101.593 922.147 102.274C922.423 102.955 922.561 103.684 922.554 104.418Z" fill="#00446E"/>
<path d="M913.77 272.957C913.716 276.445 911.669 278.474 908.105 278.578C907.334 278.623 906.562 278.507 905.838 278.236C905.115 277.966 904.457 277.546 903.905 277.005C903.354 276.464 902.922 275.813 902.638 275.095C902.354 274.377 902.223 273.607 902.255 272.836C902.309 269.56 904.676 267.139 908.042 267.296C911.561 267.458 913.824 269.51 913.77 272.957Z" fill="#00446E"/>
<path d="M791.441 91.4498C787.701 91.4858 785.591 89.4294 785.591 85.8295C785.627 82.8326 787.895 80.6816 790.991 80.5691C794.833 80.4251 796.786 82.6481 797.02 86.005C797.268 89.0154 794.631 91.4183 791.441 91.4498Z" fill="#00446E"/>
<path d="M884.498 96.4132C884.737 99.7656 881.56 101.863 878.765 101.786C875.723 101.705 873.05 99.5361 873.208 96.0442C873.352 92.9708 875.795 90.7028 879.058 90.7838C882.32 90.8648 884.539 93.1598 884.498 96.4132Z" fill="#00446E"/>
<path d="M827.44 43.2741C827.795 46.2035 825.19 48.6424 821.833 48.7144C818.75 48.7819 815.983 46.4375 816.19 43.0221C816.37 39.9576 818.768 37.4557 821.914 37.6492C824.96 37.8382 827.8 39.3771 827.44 43.2741Z" fill="#00446E"/>
<path d="M819.052 311.701C815.731 311.674 813.395 309.402 813.476 306.301C813.491 305.583 813.652 304.876 813.949 304.223C814.247 303.569 814.675 302.983 815.207 302.501C815.74 302.019 816.365 301.651 817.044 301.419C817.724 301.187 818.444 301.097 819.16 301.154C822.683 301.46 824.362 302.954 824.362 306.513C824.38 309.937 822.53 311.733 819.052 311.701Z" fill="#00446E"/>
<path d="M1015.2 100.035C1012.01 100.035 1009.88 97.9835 1009.89 94.9236C1009.91 91.8637 1012.11 89.9737 1015.29 89.8702C1015.99 89.8428 1016.68 89.9564 1017.32 90.2043C1017.97 90.4521 1018.56 90.829 1019.06 91.3121C1019.56 91.7952 1019.95 92.3744 1020.22 93.0145C1020.49 93.6547 1020.62 94.3425 1020.62 95.0361C1020.57 97.799 1018.52 100.328 1015.2 100.035Z" fill="#00446E"/>
<path d="M887.693 278.357C887.693 275.207 889.196 273.83 892.701 273.799C895.964 273.767 897.944 275.599 897.921 278.6C897.921 281.75 896.067 283.514 892.841 283.55C889.178 283.613 887.698 282.11 887.693 278.357Z" fill="#00446E"/>
<path d="M952.464 30.4136C955.164 30.4136 958.265 32.9605 957.896 35.2375C957.468 37.8879 955.988 40.4123 952.379 40.2548C948.181 40.0658 947.429 39.0084 947.353 35.2015C947.281 31.831 948.577 30.5396 952.464 30.4136Z" fill="#00446E"/>
<path d="M866.121 19.0062C866.121 15.7258 867.678 14.1868 871.008 14.2273C873.86 14.2588 875.885 16.2523 875.903 19.0422C875.885 20.4123 875.335 21.7217 874.37 22.6939C873.404 23.6661 872.098 24.2252 870.729 24.2531C868.029 24.2306 866.13 22.0796 866.121 19.0062Z" fill="#00446E"/>
<path d="M947.861 219.8C947.861 222.734 945.85 224.633 942.844 224.597C939.838 224.561 937.642 222.401 937.727 219.53C937.804 217.064 940.292 214.814 942.925 214.81C945.557 214.805 948.32 217.253 947.861 219.8Z" fill="#00446E"/>
<path d="M811.33 48.1426C811.346 48.7691 811.233 49.3921 810.998 49.9729C810.762 50.5537 810.41 51.0798 809.963 51.5185C809.515 51.9571 808.982 52.2989 808.397 52.5225C807.811 52.746 807.186 52.8466 806.56 52.818C803.487 52.7685 801.898 51.2071 801.898 48.2416C801.898 45.4877 803.901 43.2468 806.344 43.2648C808.788 43.2828 811.33 45.8072 811.33 48.1426Z" fill="#00446E"/>
<path d="M807.541 303.048C807.541 305.91 805.624 308.183 803.041 308.133C802.399 308.116 801.767 307.97 801.183 307.703C800.599 307.435 800.074 307.053 799.642 306.578C799.209 306.103 798.877 305.545 798.666 304.939C798.454 304.332 798.368 303.689 798.411 303.048C798.519 300.101 799.923 298.652 802.911 298.62C805.669 298.58 807.519 300.348 807.541 303.048Z" fill="#00446E"/>
<path d="M947.272 156.874C949.994 156.874 951.902 158.705 951.897 161.31C951.893 163.916 949.819 165.851 947.069 165.81C944.153 165.756 942.421 164.141 942.421 161.468C942.421 158.795 944.459 156.874 947.272 156.874Z" fill="#00446E"/>
<path d="M1014.79 79.7457C1014.76 82.5312 1013.1 84.0521 1010.11 84.0341C1007.12 84.0161 1005.56 82.5762 1005.56 79.6738C1005.56 76.7713 1007.4 74.8634 1010.11 74.8049C1012.83 74.7464 1014.82 76.8973 1014.79 79.7457Z" fill="#00446E"/>
<path d="M940.103 29.158C937.322 29.086 935.424 27.313 935.428 24.7976C935.428 22.5476 937.808 20.5857 940.459 20.6577C941.024 20.6657 941.581 20.7865 942.099 21.013C942.616 21.2396 943.083 21.5673 943.472 21.9769C943.861 22.3864 944.165 22.8697 944.364 23.3981C944.564 23.9265 944.656 24.4896 944.635 25.0541C944.527 27.6235 942.767 29.2255 940.103 29.158Z" fill="#00446E"/>
<path d="M780.281 102.47C778.031 102.47 776.568 100.949 776.582 98.5325C776.582 95.8326 778.085 94.3881 780.956 94.3341C783.548 94.2846 785.289 95.9316 785.294 98.438C785.298 101.367 783.957 102.447 780.281 102.47Z" fill="#00446E"/>
<path d="M881.312 282.515C881.312 285.13 879.71 286.772 877.109 286.786C874.693 286.786 872.61 284.851 872.646 282.574C872.673 279.919 874.365 278.312 877.145 278.312C879.926 278.312 881.299 279.707 881.312 282.515Z" fill="#00446E"/>
<path d="M923.013 123.475C921.904 123.495 920.833 123.074 920.035 122.304C919.237 121.534 918.778 120.478 918.758 119.369C918.739 118.261 919.16 117.19 919.93 116.392C920.7 115.594 921.756 115.134 922.864 115.115C925.429 115.083 927.175 116.744 927.211 119.237C927.221 119.793 927.12 120.345 926.913 120.861C926.706 121.378 926.398 121.847 926.007 122.242C925.615 122.637 925.149 122.95 924.635 123.162C924.12 123.374 923.569 123.48 923.013 123.475Z" fill="#00446E"/>
<path d="M931.256 235.1C928.556 235.1 927.256 233.813 927.243 231.203C927.229 228.593 928.728 227.189 931.293 227.225C933.543 227.261 935.612 229.106 935.707 231.18C935.801 233.043 933.453 235.1 931.256 235.1Z" fill="#00446E"/>
<path d="M854.43 13.1604C856.959 13.1379 858.583 14.6139 858.628 16.9673C858.673 19.3208 857.085 20.8867 854.718 20.9407C851.879 21.0127 850.488 19.7347 850.47 17.0528C850.479 14.2494 851.537 13.1829 854.43 13.1604Z" fill="#00446E"/>
<path d="M783.111 298.332C783.111 295.839 784.461 294.494 786.986 294.444C789.294 294.399 791.071 296.037 791.112 298.238C791.157 300.573 789.438 302.216 786.99 302.171C784.43 302.148 783.116 300.83 783.111 298.332Z" fill="#00446E"/>
<path d="M1003.45 68.6397C1000.81 68.6397 999.551 67.3887 999.596 64.8463C999.641 62.4568 1001.12 61.0439 1003.58 61.0484C1005.86 61.0484 1007.55 62.6638 1007.55 64.8148C1007.53 67.4382 1006.25 68.6487 1003.45 68.6397Z" fill="#00446E"/>
<path d="M887.621 107.821C887.621 105.935 889.124 104.549 891.122 104.545C891.573 104.525 892.024 104.597 892.446 104.756C892.868 104.916 893.254 105.16 893.578 105.474C893.903 105.788 894.161 106.165 894.335 106.581C894.509 106.998 894.596 107.446 894.592 107.897C894.592 109.661 892.751 111.412 890.861 111.461C888.872 111.506 887.599 110.08 887.621 107.821Z" fill="#00446E"/>
<path d="M926.676 12.2698C928.552 12.2428 930.388 13.9798 930.379 15.7798C930.379 17.7642 928.953 19.1502 926.919 19.1637C924.885 19.1772 923.364 17.8497 923.319 15.9373C923.242 13.8268 924.646 12.2968 926.676 12.2698Z" fill="#00446E"/>
<path d="M942.493 179.486C940.409 179.486 938.749 178.194 938.659 176.471C938.569 174.748 940.612 173.006 942.596 173.02C944.779 173.02 945.796 174.122 945.805 176.44C945.814 178.347 944.59 179.472 942.493 179.486Z" fill="#00446E"/>
<path d="M864.51 284.891C864.478 286.862 863.043 288.185 860.964 288.172C860.513 288.184 860.064 288.106 859.643 287.942C859.223 287.779 858.839 287.533 858.514 287.22C858.19 286.907 857.931 286.532 857.752 286.117C857.574 285.703 857.48 285.257 857.476 284.806C857.476 282.875 859.276 281.359 861.445 281.395C863.079 281.422 864.537 283.114 864.51 284.891Z" fill="#00446E"/>
<path d="M792.358 52.2241C794.523 52.2241 795.778 53.4031 795.787 55.491C795.799 55.9432 795.718 56.3928 795.549 56.8126C795.381 57.2324 795.129 57.6135 794.808 57.9327C794.488 58.2518 794.106 58.5024 793.685 58.669C793.265 58.8357 792.815 58.9149 792.363 58.902C791.497 58.8775 790.672 58.5244 790.056 57.9145C789.44 57.3045 789.079 56.4832 789.047 55.617C789.029 53.5111 790.266 52.2421 792.358 52.2241Z" fill="#00446E"/>
<path d="M995.501 47.7513C997.481 47.6973 998.651 48.9032 998.701 51.0047C998.723 52.2601 996.744 54.2446 995.43 54.2761C994.237 54.3031 992.342 52.2331 992.315 50.8652C992.315 50.4501 992.398 50.0392 992.559 49.6567C992.72 49.2741 992.956 48.9276 993.253 48.6374C993.55 48.3473 993.902 48.1195 994.288 47.9673C994.674 47.8151 995.087 47.7417 995.501 47.7513Z" fill="#00446E"/>
<path d="M771.916 294.948C769.945 294.948 768.68 293.764 768.649 291.965C768.617 290.066 769.85 289.049 772.105 289.112C773.976 289.161 775.506 290.511 775.461 292.073C775.412 293.773 773.927 294.975 771.916 294.948Z" fill="#00446E"/>
<path d="M837.929 19.9514C836.003 19.9244 834.725 18.7184 834.779 16.9905C834.788 16.5873 834.876 16.1898 835.04 15.8211C835.203 15.4525 835.438 15.1199 835.731 14.8428C836.025 14.5657 836.37 14.3495 836.747 14.2068C837.124 14.0641 837.526 13.9978 837.929 14.0115C839.45 14.0745 841.205 15.726 841.227 17.112C841.281 18.6059 839.679 19.9739 837.929 19.9514Z" fill="#00446E"/>
<path d="M918.175 238.272C919.975 238.272 921.447 239.487 921.433 240.995C921.41 241.793 921.074 242.549 920.499 243.102C919.923 243.655 919.153 243.96 918.355 243.951C916.596 243.978 915.417 242.781 915.376 241.017C915.336 239.15 916.357 238.335 918.175 238.272Z" fill="#00446E"/>
<path d="M915.277 8.35051C914.967 9.54749 914.422 10.7265 912.578 10.632C910.895 10.5465 910.125 9.51599 909.959 8.09402C909.792 6.67206 911.354 5.49759 912.969 5.60108C913.633 5.67598 914.243 6.00307 914.672 6.51476C915.102 7.02646 915.319 7.68365 915.277 8.35051Z" fill="#00446E"/>
<path d="M844.53 287.92C842.519 288.001 841.781 286.831 841.884 285.274C841.988 283.717 843.419 283.15 844.805 282.997C846.087 282.848 848.004 284.671 847.568 285.697C847.041 286.889 846.362 288.37 844.53 287.92Z" fill="#00446E"/>
<path d="M771.047 112.46C770.759 110.574 772.334 110.579 773.675 110.489C775.223 110.381 776.199 111.159 776.154 112.712C776.114 114.143 775.286 115.196 773.747 115.169C772.208 115.142 771.002 114.413 771.047 112.46Z" fill="#00446E"/>
<path d="M928.089 134.874C928.116 136.557 926.995 137.34 925.533 137.448C925.213 137.469 924.891 137.426 924.588 137.321C924.285 137.216 924.006 137.051 923.768 136.836C923.529 136.621 923.336 136.361 923.201 136.07C923.065 135.779 922.989 135.464 922.977 135.144C922.945 133.915 923.688 132.444 925.411 132.444C926.919 132.466 927.967 133.267 928.089 134.874Z" fill="#00446E"/>
<path d="M988.419 37.6537C988.383 39.1746 987.366 39.7776 986.011 39.7416C985.723 39.7537 985.436 39.7017 985.17 39.5893C984.904 39.477 984.666 39.3071 984.474 39.092C984.282 38.8768 984.139 38.6217 984.057 38.345C983.975 38.0683 983.956 37.7769 984 37.4917C984.085 36.2092 984.792 35.1427 986.286 35.2417C987.676 35.3452 988.423 36.2497 988.419 37.6537Z" fill="#00446E"/>
<path d="M759.631 284.22C759.689 285.809 758.911 286.43 757.547 286.407C756.265 286.407 755.131 286.2 755.072 284.526C755.023 282.952 755.923 282.371 757.322 282.353C758.722 282.335 759.734 282.799 759.631 284.22Z" fill="#00446E"/>
<path d="M935.419 192.058C934.244 191.901 933.254 191.347 933.124 190.096C932.975 188.724 934.447 188.359 935.252 188.229C935.513 188.204 935.776 188.231 936.026 188.308C936.276 188.385 936.508 188.511 936.709 188.678C936.91 188.846 937.076 189.051 937.198 189.283C937.319 189.515 937.394 189.768 937.417 190.029C937.507 191.194 936.638 191.829 935.419 192.058Z" fill="#00446E"/>
<path d="M779.079 63.0509C780.717 62.9249 781.374 63.6449 781.397 64.8733C781.397 66.0073 780.74 66.8128 779.561 66.7183C778.53 66.6328 777.356 66.3448 777.437 64.9183C777.5 63.7484 777.743 62.7224 779.079 63.0509Z" fill="#00446E"/>
<path d="M821.504 17.584C822.616 17.638 823.237 18.1375 823.327 19.1994C823.435 20.4324 822.823 21.2019 821.612 21.3729C820.505 21.5259 820.051 20.8599 819.947 19.8249C819.83 18.601 820.298 17.854 821.504 17.584Z" fill="#00446E"/>
<path d="M992.167 125.064C994.867 125.618 997.531 125.802 1000.15 124.704C1000.1 125.514 999.209 125.343 998.831 125.771C999.11 126.324 999.992 126.185 1000.15 126.86C998.192 126.365 996.235 126.9 994.273 126.882C994.102 125.699 992.225 126.374 992.167 125.064Z" fill="#00446E"/>
<path d="M905.769 249.203C905.765 249.431 905.714 249.656 905.62 249.864C905.526 250.072 905.391 250.258 905.223 250.412C905.054 250.566 904.856 250.685 904.641 250.76C904.425 250.835 904.197 250.865 903.969 250.85C903.475 250.876 902.989 250.715 902.608 250.4C902.226 250.085 901.976 249.639 901.908 249.149C901.796 247.871 903.051 247.655 903.947 247.632C904.842 247.61 905.873 247.898 905.769 249.203Z" fill="#00446E"/>
<path d="M899.222 1.96501C899.256 2.15922 899.247 2.35865 899.194 2.5487C899.141 2.73875 899.047 2.91463 898.917 3.06345C898.788 3.21227 898.627 3.33028 898.446 3.40884C898.265 3.48739 898.069 3.52451 897.872 3.51747C896.828 3.61647 896.31 2.99549 896.288 2.03251C896.288 1.29003 896.648 0.615044 897.462 0.655543C898.277 0.696042 899.078 1.00653 899.222 1.96501Z" fill="#00446E"/>
<path d="M828.317 282.97C829.739 282.97 829.609 283.87 829.798 284.671C830.086 285.886 828.776 285.895 828.448 285.949C827.494 286.102 827.386 285.152 827.287 284.437C827.165 283.555 827.584 283.028 828.317 282.97Z" fill="#00446E"/>
<path d="M975.612 26.4893C974.87 26.4038 974.262 26.0933 974.204 25.3283C974.182 25.1414 974.201 24.9521 974.26 24.7733C974.319 24.5946 974.416 24.4309 974.544 24.2934C974.672 24.1559 974.829 24.0481 975.004 23.9774C975.178 23.9067 975.366 23.8747 975.554 23.8838C976.39 23.8478 976.755 24.4643 976.84 25.1528C976.926 25.9763 976.301 26.2733 975.612 26.4893Z" fill="#00446E"/>
<path d="M744.817 275.504C744.772 276.463 744.075 276.445 743.508 276.454C742.833 276.454 742.32 276.139 742.419 275.378C742.491 274.816 742.549 274.073 743.377 274.168C743.726 274.214 744.052 274.367 744.31 274.606C744.568 274.846 744.745 275.16 744.817 275.504Z" fill="#00446E"/>
<path d="M994.961 95.9228C993.409 96.411 991.744 96.411 990.191 95.9228C990.919 95.5116 991.741 95.2954 992.576 95.2954C993.412 95.2954 994.234 95.5116 994.961 95.9228Z" fill="#00446E"/>
<path d="M923.904 285.813C924.453 287.01 924.174 288.234 924.039 289.454C922.878 288.279 922.986 287.06 923.904 285.813Z" fill="#00446E"/>
<path d="M953.418 276.269L953.18 275.995H953.387C953.387 276.098 953.387 276.206 953.387 276.31L953.418 276.269Z" fill="#00446E"/>
<path d="M946.534 64.4458C946.561 64.3198 946.592 64.1983 946.619 64.0723C947.006 64.3603 946.52 64.2883 946.48 64.3963L946.534 64.4458Z" fill="#00446E"/>
<path d="M891.1 52.4043C891.14 52.4493 891.212 52.4988 891.212 52.5438C891.212 52.5888 891.136 52.6338 891.091 52.6788C891.05 52.6338 890.974 52.5843 890.978 52.5393C890.983 52.4943 891.055 52.4313 891.1 52.4043Z" fill="#00446E"/>
<path d="M889.925 75.1646C889.979 75.5111 890.069 75.8846 889.624 76.0421C889.552 76.0691 889.273 75.8351 889.273 75.7181C889.273 75.3086 889.493 75.0791 889.957 75.1916L889.925 75.1646Z" fill="#00446E"/>
<path d="M822.305 93.6504C821.446 93.4074 821.945 92.7144 821.801 92.2329C822.041 92.3702 822.223 92.5886 822.315 92.8485C822.408 93.1084 822.404 93.3928 822.305 93.6504Z" fill="#00446E"/>
</g>
<defs>
<clipPath id="clip0">
<rect width="1028.1" height="314.223" fill="white" transform="translate(0 0.655273)"/>
</clipPath>
</defs>
</svg>
