<svg width="1029" height="315" viewBox="0 0 1029 315" fill="none" xmlns="http://www.w3.org/2000/svg">
<g clip-path="url(#clip0)">
<path d="M15.0026 108.281C10.7007 108.281 7.10079 106.945 4.20286 104.272C2.83635 102.934 1.75844 101.33 1.0356 99.5589C0.312751 97.7882 -0.039705 95.8881 -3.96618e-05 93.9759C-3.96618e-05 89.908 1.39493 86.5361 4.18486 83.8602C7.09479 81.0703 10.6947 79.6753 14.9846 79.6753C19.2745 79.6753 22.8294 81.0703 25.6493 83.8602C27.064 85.1311 28.1863 86.6935 28.9391 88.4398C29.6918 90.1861 30.0571 92.0749 30.0097 93.9759C30.0465 95.902 29.6772 97.8142 28.9259 99.5881C28.1746 101.362 27.0582 102.958 25.6493 104.272C22.8534 106.945 19.3045 108.281 15.0026 108.281ZM27.0398 119.796V216.431H2.6189V119.796H27.0398Z" fill="white"/>
<path d="M109.959 118.401C121.47 118.401 130.77 122.064 137.859 129.39C144.95 136.605 148.496 146.719 148.496 159.733V216.431H124.089V163.058C124.089 155.381 122.169 149.509 118.329 145.441C114.492 141.241 109.259 139.141 102.629 139.141C95.8851 139.141 90.5363 141.241 86.5824 145.441C82.7455 149.509 80.8255 155.381 80.8225 163.058V216.431H56.4016V119.796H80.8225V131.834C84.1061 127.628 88.3557 124.277 93.2107 122.064C98.4458 119.595 104.172 118.343 109.959 118.401Z" fill="white"/>
<path d="M205.402 139.857V186.611C205.402 189.863 206.152 192.246 207.652 193.761C209.281 195.156 211.955 195.853 215.675 195.853H227.015V216.431H211.684C191.098 216.431 180.805 206.43 180.805 186.426V139.857H169.29V119.796H180.805V95.8975H205.402V119.796H227.033V139.857H205.402Z" fill="white"/>
<path d="M339.674 166.033C339.699 169.188 339.466 172.339 338.977 175.456H268.328C268.91 182.43 271.352 187.896 275.654 191.853C279.956 195.81 285.248 197.787 291.53 197.784C300.602 197.784 307.051 193.884 310.879 186.084H337.222C334.432 195.384 329.083 203.061 321.175 209.115C313.27 215.046 303.56 218.011 292.043 218.011C282.743 218.011 274.369 215.976 266.92 211.905C259.632 207.757 253.65 201.653 249.649 194.283C245.581 186.729 243.546 178.007 243.543 168.116C243.543 158.118 245.578 149.338 249.649 141.778C253.524 134.419 259.468 128.354 266.749 124.332C274.081 120.262 282.514 118.226 292.047 118.226C301.233 118.226 309.432 120.203 316.644 124.157C323.844 127.986 329.736 133.88 333.563 141.081C337.64 148.29 339.677 156.607 339.674 166.033ZM314.38 159.058C314.263 152.776 311.995 147.775 307.576 144.055C303.158 140.219 297.758 138.299 291.377 138.296C285.329 138.296 280.211 140.157 276.023 143.88C271.949 147.48 269.449 152.539 268.522 159.058H314.38Z" fill="white"/>
<path d="M387.157 134.799C390.151 129.825 394.35 125.686 399.365 122.762C404.483 119.855 410.298 118.401 416.811 118.401V144.051H410.358C402.682 144.051 396.866 145.851 392.912 149.451C389.075 153.051 387.157 159.331 387.157 168.292V216.431H362.732V119.796H387.157V134.799Z" fill="white"/>
<path d="M492.049 118.401C503.563 118.401 512.863 122.064 519.949 129.39C527.04 136.59 530.588 146.709 530.591 159.746V216.431H506.165V163.058C506.165 155.381 504.247 149.509 500.41 145.441C496.57 141.241 491.337 139.141 484.71 139.141C477.963 139.141 472.613 141.241 468.659 145.441C464.819 149.509 462.901 155.381 462.904 163.058V216.431H438.496V119.796H462.917V131.833C466.199 127.628 470.447 124.277 475.301 122.064C480.536 119.596 486.262 118.344 492.049 118.401Z" fill="white"/>
<path d="M552.78 167.77C552.78 157.999 554.698 149.335 558.535 141.778C562.489 134.219 567.781 128.403 574.411 124.332C581.158 120.262 588.658 118.226 596.91 118.226C604.11 118.226 610.389 119.68 615.747 122.586C621.219 125.493 625.581 129.158 628.832 133.58V119.797H653.429V216.432H628.832V202.302C625.695 206.838 621.333 210.618 615.747 213.642C610.284 216.549 603.947 218.002 596.735 218.002C588.844 218.068 581.099 215.883 574.406 211.702C567.777 207.517 562.485 201.645 558.531 194.085C554.7 186.426 552.783 177.655 552.78 167.77ZM628.828 168.116C628.828 162.185 627.666 157.128 625.341 152.943C623.212 148.842 619.939 145.449 615.918 143.173C612.092 140.918 607.738 139.714 603.297 139.683C598.856 139.653 594.485 140.796 590.628 142.998C586.789 145.209 583.648 148.465 581.206 152.767C578.881 156.967 577.718 161.968 577.718 167.77C577.718 173.572 578.881 178.688 581.206 183.119C583.431 187.195 586.678 190.622 590.628 193.064C594.421 195.345 598.762 196.551 603.188 196.551C607.647 196.571 612.034 195.43 615.918 193.239C619.887 190.898 623.144 187.521 625.341 183.47C627.669 179.168 628.834 174.05 628.837 168.116H628.828Z" fill="white"/>
<path d="M720.378 118.226C727.578 118.226 733.915 119.68 739.39 122.586C744.856 125.382 749.16 129.047 752.3 133.58V119.797H776.897V217.138C776.897 226.093 775.097 234.059 771.497 241.037C767.897 248.129 762.497 253.712 755.297 257.786C748.098 261.986 739.375 264.085 729.131 264.085C715.406 264.085 704.126 260.888 695.291 254.492C686.571 248.099 681.621 239.377 680.442 228.325H704.683C705.961 232.744 708.692 236.233 712.877 238.792C717.182 241.465 722.36 242.802 728.411 242.805C735.502 242.805 741.258 240.653 745.677 236.348C750.096 232.148 752.305 225.752 752.305 217.161V202.136C749.167 206.671 744.805 210.451 739.219 213.475C733.756 216.499 727.478 218.011 720.383 218.011C712.491 218.077 704.744 215.891 698.05 211.711C691.309 207.526 685.96 201.654 682.003 194.094C678.166 186.417 676.246 177.637 676.243 167.752C676.243 157.981 678.163 149.317 682.003 141.76C685.96 134.201 691.252 128.385 697.879 124.314C704.623 120.256 712.122 118.226 720.378 118.226ZM752.3 168.116C752.3 162.185 751.138 157.128 748.813 152.943C746.685 148.842 743.411 145.449 739.39 143.173C735.564 140.917 731.209 139.713 726.767 139.682C722.325 139.651 717.954 140.795 714.096 142.998C710.257 145.209 707.117 148.465 704.678 152.767C702.35 156.967 701.188 161.968 701.191 167.77C701.194 173.572 702.358 178.693 704.683 183.132C706.906 187.208 710.152 190.635 714.101 193.077C717.895 195.359 722.238 196.564 726.665 196.565C731.123 196.584 735.511 195.443 739.395 193.253C743.364 190.912 746.621 187.535 748.818 183.483C751.136 179.173 752.297 174.05 752.3 168.116Z" fill="#C5D3E0"/>
<path d="M848.9 218.011C839.6 218.011 831.227 215.976 823.781 211.905C816.391 207.773 810.292 201.673 806.16 194.283C801.96 186.729 799.86 178.007 799.86 168.116C799.86 158.226 802.012 149.503 806.317 141.949C810.554 134.567 816.78 128.523 824.285 124.508C831.845 120.308 840.276 118.208 849.579 118.208C858.882 118.208 867.313 120.308 874.873 124.508C882.353 128.498 888.53 134.552 892.67 141.949C897.083 149.509 899.291 158.232 899.294 168.116C899.297 178.001 897.03 186.723 892.495 194.283C888.197 201.725 881.916 207.826 874.351 211.905C866.803 215.973 858.319 218.008 848.9 218.011ZM848.9 196.727C853.23 196.747 857.493 195.663 861.288 193.577C865.312 191.305 868.592 187.914 870.729 183.816C873.054 179.514 874.216 174.281 874.216 168.116C874.216 158.934 871.774 151.899 866.89 147.012C862.12 142.008 856.246 139.507 849.269 139.51C842.291 139.513 836.418 142.014 831.652 147.012C827.005 151.893 824.68 158.928 824.677 168.116C824.674 177.305 826.94 184.4 831.476 189.401C836.114 194.282 841.922 196.724 848.9 196.727Z" fill="#C5D3E0"/>
<path d="M923.904 285.595C923.278 283.836 924.565 282.616 925.569 281.721C928.426 279.169 932.769 279.021 936.144 281.032C936.522 281.257 936.854 281.739 937.34 281.509C938.006 281.199 937.615 280.564 937.565 280.11C937.052 275.313 939.725 272.221 944.225 271.11C946.673 270.498 948.653 271.749 951.097 272.73C950.381 269.076 950.323 265.687 953.374 263.177C956.424 260.666 959.835 260.967 963.557 262.358C962.657 259.172 962.319 256.355 964.227 253.736C965.192 252.356 966.558 251.307 968.141 250.733C969.723 250.158 971.445 250.087 973.07 250.527C973.565 250.649 974.091 251.04 974.586 250.658C974.96 250.365 974.662 249.978 974.518 249.645C972.08 244.137 976.062 237.59 983.464 238.36C983.914 238.409 984.364 238.36 985.264 238.36C983.275 235.102 982.906 231.889 985.17 228.851C987.433 225.814 990.57 224.936 994.777 225.472C992.28 222.264 991.461 219.087 993.405 215.761C995.389 212.359 998.683 211.5 1002.73 211.968C1001.95 209.889 1000.13 208.786 999.902 206.694C999.569 203.656 1000.13 201.069 1002.6 199.157C1005.55 196.907 1008.87 196.785 1012.05 198.545C1014.89 200.111 1015.88 202.797 1015.65 205.857C1015.32 209.907 1012.17 212.719 1007.9 212.989C1007.19 213.034 1006.2 212.472 1005.8 213.286C1005.4 214.101 1006.58 214.222 1006.96 214.731C1008.65 216.945 1008.97 221.283 1007.49 223.667C1005.53 226.817 1002.54 228.055 998.557 227.339C998.255 227.285 997.967 227.186 997.207 226.993C1000.51 230.35 1001.31 234.022 999.007 237.649C996.703 241.276 992.923 242.203 988.428 240.862C990.597 244.718 991.231 248.264 988.405 251.558C985.674 254.739 982.047 255 977.956 253.61C979.59 257.529 979.828 261.021 976.8 263.96C973.772 266.898 970.113 266.686 966.216 265.215C967.017 268.027 967.314 270.615 965.919 273.103C963.998 276.559 959.093 278.175 955.439 276.465C954.751 276.145 954.089 275.844 953.329 276.073C953.329 275.97 953.329 275.862 953.329 275.758H953.122L953.36 276.033C953.387 277.005 953.36 277.981 953.45 278.953C953.693 281.919 952.514 284.133 949.85 285.608C946.745 287.323 943.703 287.201 940.742 285.298C940.049 284.848 939.446 284.263 938.681 283.647C939.302 285.307 939.181 286.94 939.176 288.569C939.176 290.54 937.957 291.886 936.661 293.2C935.365 294.514 933.511 294.797 931.855 295.193C928.462 296.003 924.763 293.078 923.985 289.217C924.174 288.016 924.453 286.792 923.904 285.595Z" fill="#C5D3E0"/>
<path d="M1000.15 126.641C1002.94 127.257 1005.15 129.863 1005.6 133.067C1006 135.888 1004.09 139.344 1001.43 140.649C1000.75 140.982 1000.08 141.337 999.268 141.765C1003.18 143.182 1005.47 145.905 1005.46 149.662C1005.46 153.892 1002.67 156.556 998.345 157.762C1004.73 161.267 1004.69 168.053 1000.37 171.532C999.656 172.177 998.796 172.64 997.864 172.882C995.888 173.242 996.064 173.894 997.184 175.1C1001.14 179.411 1000.12 185 995.078 187.88C993.886 188.559 991.771 187.754 991.568 189.356C991.442 190.323 992.941 191.403 993.463 192.537C995.672 197.379 992.113 203.112 986.65 203.584C985.98 203.643 985.269 203.454 984.463 203.944C985.84 205.695 986.97 207.499 986.893 209.866C986.749 214.366 983.541 217.547 978.888 217.565C976.053 217.565 976.053 217.566 977.304 219.869C978.654 222.322 978.177 226.066 976.255 228.248C974.221 230.552 970.518 231.425 967.197 230.354C966.707 230.197 966.297 229.778 965.55 230.138C966.513 231.812 967.845 233.288 967.8 235.426C967.783 237.454 966.966 239.395 965.528 240.825C963.363 243.075 959.331 243.633 956.384 242.148C954.269 241.082 951.686 237.176 952.176 235.259C953.675 229.409 957.482 226.988 964.146 228.919C961.824 225.143 961.595 221.719 963.759 218.569C965.978 215.361 969.506 215.158 973.582 216.009C970.109 212.409 970.154 208.647 972.142 205.015C973.803 201.982 977.137 202.045 980.692 202.05C977.839 199.228 977.2 196.061 978.1 192.672C979.104 188.901 982.461 188.1 986.047 187.299C983.091 184.707 982.83 181.535 983.487 178.11C984.247 174.124 987.622 173.44 991.02 172.49C988.18 170.515 986.443 168.166 986.758 164.665C987.073 161.164 988.558 159.062 992.072 157.838C992.428 157.712 992.855 157.69 992.882 157.209C992.909 156.727 992.504 156.597 992.216 156.367C987.465 152.641 987.816 147.736 991.339 143.907C992.239 142.917 993.139 141.999 994.763 141.792C990.803 140.154 988.914 137.238 989.273 133.287C989.367 131.814 989.887 130.399 990.772 129.217C991.657 128.035 992.867 127.136 994.255 126.632C996.235 126.681 998.192 126.146 1000.15 126.641Z" fill="#C5D3E0"/>
<path d="M946.534 64.2272C944.9 64.5557 943.384 65.2532 941.629 65.2217C935.932 65.1227 932.107 59.9703 933.979 54.7414C935.045 51.767 939.766 49.4226 943.109 50.21C948.415 51.4655 950.674 55.6099 948.815 60.6633C948.536 61.4238 948.203 62.1663 947.798 63.1562C952.167 62.2562 956.406 62.1662 958.8 66.4456C960.74 69.9151 960.254 73.389 957 76.5029C961.212 76.3409 965.262 76.0529 967.382 80.3143C969.38 84.3372 968.376 87.8336 964.853 90.997C972.408 90.4931 975.135 95.3349 974.793 99.9338C974.612 101.743 973.799 103.43 972.498 104.699C971.395 105.86 971.598 106.675 973.101 106.837C979.311 107.53 981.331 116.759 976.372 120.489C975.769 120.939 975.247 121.493 974.626 122.055C975.855 123.486 977.916 123.468 979.207 124.854C982.492 128.382 982.051 135.339 976.813 137.454C976.156 137.719 975.301 137.872 975.265 138.552C975.238 139.128 976.134 139.146 976.66 139.384C979.23 140.545 980.805 142.489 981.201 145.234C981.678 148.533 980.625 151.458 977.686 153.06C976.352 153.755 974.869 154.118 973.364 154.118C971.859 154.118 970.377 153.755 969.042 153.06C966.275 151.674 965.105 147.939 965.645 144.96C966.252 141.621 968.25 139.663 971.495 138.723C971.36 138.093 970.919 137.98 970.361 137.823C964.511 136.378 963.75 127.703 967.904 124.535C969.411 123.383 969.569 122.942 967.656 121.965C961.838 119.004 961.181 112.3 966.126 108.101C966.379 107.838 966.604 107.548 966.797 107.237C964.097 106.607 961.248 106.265 959.619 103.732C957.545 100.501 957.662 97.1799 959.808 94.075C960.672 92.8285 960.515 92.6395 959.124 92.3065C957.617 91.9465 956.064 91.636 954.732 90.646C951.848 88.5086 950.714 82.5462 953.891 78.9463C954.061 78.7227 954.219 78.4898 954.363 78.2489C952.262 77.9384 950.314 78.2759 948.374 77.5874C943.798 75.9449 941.921 69.4876 945.112 65.8877C945.598 65.3387 946.012 64.7447 946.498 64.1687C946.538 64.0607 947.024 64.1327 946.637 63.8447C946.592 63.9797 946.561 64.1012 946.534 64.2272Z" fill="#C5D3E0"/>
<path d="M930.865 78.7032C934.541 77.6142 937.525 78.4512 939.865 80.9531C942.7 84.031 941.989 87.4914 940.135 90.6639C939.235 92.2298 939.685 92.1803 941.035 92.2433C946.862 92.5223 949.004 96.3787 948.914 100.136C948.842 103.138 947.443 105.086 944.923 106.391C942.11 107.862 939.293 107.574 936.647 105.909C933.137 103.705 931.958 97.3597 937.066 93.5978C933.097 94.0478 929.7 93.6698 927.333 90.8979C924.768 87.9054 925.627 84.598 927.18 81.2996C926.261 81.2492 925.34 81.2492 924.421 81.2996C919.021 81.9386 915.318 76.9527 916.159 72.4843C916.506 70.6529 916.11 70.2659 914.152 70.4054C907.556 70.8824 904.347 67.8314 904.347 61.4056C904.321 61.0728 904.273 60.7421 904.203 60.4156C900.603 62.1706 897.206 62.2561 894.056 59.6551C892.166 58.0937 891.451 56.0147 891.163 53.7513C891.05 52.8513 890.933 52.5903 889.925 53.0268C882.334 56.3342 877.667 53.6163 876.983 45.3185C875.665 47.2579 874.072 48.7069 872.033 49.4044C871.01 49.7391 869.928 49.854 868.857 49.7416C867.786 49.6291 866.751 49.2919 865.819 48.7519C862.944 47.1949 861.063 42.7625 862.377 39.8736C863.911 36.5077 866.017 34.2578 870.783 34.8832C875.093 35.4457 876.632 37.1332 877.577 42.7355C879.094 41.3136 880.394 39.9906 882.419 39.4146C887.527 37.9612 892.593 40.8951 893.075 46.0385C893.228 47.6899 893.525 47.7664 894.911 46.9384C898.335 44.8595 901.868 45.377 904.982 47.4334C906.741 48.5944 907.304 50.8218 907.596 52.8918C907.662 53.8927 907.662 54.8968 907.596 55.8977C911.529 54.5478 915.309 53.9178 918.459 56.9957C921.1 59.5786 921.829 62.706 920.043 66.3645C924.25 65.199 928.057 65.3205 930.843 68.6684C932.863 71.1208 932.75 75.9357 930.865 78.7032ZM891.1 52.1538C891.055 52.1988 890.978 52.2438 890.978 52.2888C890.978 52.3338 891.05 52.3833 891.091 52.4283C891.136 52.3833 891.212 52.3383 891.212 52.2933C891.212 52.2483 891.14 52.2123 891.1 52.1853V52.1538Z" fill="#C5D3E0"/>
<path d="M889.925 74.9457C891.689 74.1807 893.012 72.6687 895.159 72.4887C898.408 72.2142 901.242 73.2582 902.7 76.0256C904.118 78.7256 904.05 81.556 902.277 84.1254C900.059 87.2979 893.579 88.0223 890.857 85.2459C889.96 84.3381 889.307 83.2175 888.961 81.989C888.615 80.7605 888.586 79.4643 888.877 78.2216C889.025 77.5061 889.399 76.8131 889.057 75.9266C888.076 76.6511 887.225 77.4791 886.204 77.9966C880.498 80.917 874.684 76.7006 874.383 71.7237C874.356 71.3008 874.527 70.7518 874.014 70.5268C873.411 70.2703 873.312 70.9093 873.001 71.1928C867.673 76.0256 859.951 73.1412 858.673 66.2429C856.536 69.5953 853.629 71.7597 849.579 71.0848C846.384 70.5493 843.797 68.8348 842.933 65.3789C841.875 66.0449 841.884 67.2824 841.254 68.1643C838.865 71.5258 834.54 72.9612 831.004 71.1613C826.918 69.0823 825.676 65.9234 826.706 61.3965C827.363 58.5076 829.649 57.1216 832.466 56.5501C835.787 55.8751 838.676 56.6356 840.773 59.3716C842.366 61.446 842.285 61.4505 843.545 59.3221C845.264 56.4286 847.851 54.9482 851.325 55.1507C854.727 55.3487 856.99 57.1486 858.448 60.0555C858.772 60.7035 858.678 61.536 859.348 62.049C863.11 56.8786 867.966 56.0056 872.574 59.5696C874.401 60.9825 874.891 62.9715 875.355 64.9694C875.602 66.0584 875.557 66.4094 876.79 65.4194C881.056 61.995 886.415 62.85 889.318 67.1834C890.384 68.7718 890.506 70.5313 890.218 72.3447C890.092 73.2177 889.669 74.0547 889.939 74.9637C889.489 74.8512 889.255 75.0807 889.255 75.4902C889.255 75.6071 889.534 75.8411 889.606 75.8141C890.078 75.6656 889.979 75.2922 889.925 74.9457Z" fill="#C5D3E0"/>
<path d="M821.855 92.0592C821.671 89.0218 821.23 86.0069 823.781 83.4599C827.674 79.581 835.287 80.409 837.591 86.1194C837.695 86.3759 837.65 86.7178 838.275 86.7763C838.901 83.8379 839.738 80.9265 842.856 79.41C844.382 78.672 846.006 78.1456 847.712 78.4291C851.681 79.0815 854.507 82.128 854.736 85.8944C854.961 89.5888 852.608 92.6127 848.594 93.7872C844.697 94.9211 841.461 93.0987 838.532 88.0408C838.113 89.6203 837.983 91.2537 837.276 92.5947C834.806 97.2971 828.578 98.836 824.096 94.8986C823.498 94.3722 823.223 93.4812 822.26 93.3687L822.305 93.4317C822.404 93.1741 822.408 92.8897 822.315 92.6298C822.223 92.3699 822.041 92.1515 821.801 92.0142L821.855 92.0592Z" fill="#C5D3E0"/>
<path d="M822.26 93.3682C822.71 96.1896 823.066 98.9435 821.009 101.436C819.949 102.689 818.553 103.611 816.985 104.095C815.418 104.579 813.744 104.605 812.162 104.168C809.206 103.268 806.826 100.348 806.664 97.4181C806.461 93.8992 808.171 91.1722 811.245 89.6918C814.759 87.9998 818.323 89.1158 820.784 91.5862C821.135 91.9372 821.311 92.2792 821.855 92.0362L821.801 91.9912C821.945 92.4727 821.446 93.1657 822.305 93.4087L822.26 93.3682Z" fill="#C5D3E0"/>
<path d="M992.167 124.845C988.765 123.378 987.42 120.224 988.324 115.845C988.873 113.191 992.423 110.513 995.38 110.518C999.308 110.518 1002.55 112.534 1003.4 115.499C1004.53 119.427 1003.37 122.627 1000.15 124.499C997.531 125.583 994.858 125.399 992.167 124.845Z" fill="#C5D3E0"/>
<path d="M924.277 294.568C924.565 299.418 920.524 301.979 916.587 301.911C912.087 301.835 908.969 298.86 908.879 294.581C908.762 289.181 912.087 286.963 916.682 286.882C920.295 286.819 924.777 290.171 924.277 294.568Z" fill="#C5D3E0"/>
<path d="M978.874 162.352C978.946 166.906 975.589 169.876 971.072 169.781C966.855 169.696 963.768 166.631 963.777 162.433C963.777 157.784 966.581 155.057 971.333 155.044C975.877 155.035 978.883 157.933 978.874 162.352Z" fill="#C5D3E0"/>
<path d="M1005.73 190.062C1005.73 185.612 1008.7 182.799 1013.38 182.687C1019.16 182.552 1021.31 186.008 1021.14 190.044C1020.92 195.161 1019.38 197.154 1013.56 197.501C1008.99 197.771 1005.73 194.463 1005.73 190.062Z" fill="#C5D3E0"/>
<path d="M818.602 75.7832C814.579 75.7832 810.979 72.3183 810.988 68.4304C810.988 63.809 813.728 61.0371 818.404 61.0821C823.705 61.1316 825.739 64.052 826.103 68.2819C826.432 72.1473 822.58 75.7697 818.602 75.7832Z" fill="#C5D3E0"/>
<path d="M922.342 46.4749C922.369 40.958 925.015 39.725 929.884 39.1131C933.812 38.6316 937.57 42.713 937.462 46.6234C937.367 50.1918 933.619 53.6207 929.812 53.6162C924.838 53.6132 922.348 51.2328 922.342 46.4749Z" fill="#C5D3E0"/>
<path d="M994.961 95.7041C999.911 97.0136 1000.97 101.266 1000.02 104.987C999.079 108.709 993.994 111.008 990.057 109.586C985.606 107.975 984.409 104.236 985.503 100.136C985.75 99.0141 986.329 97.9922 987.166 97.204C988.002 96.4157 989.057 95.8978 990.192 95.7176C991.745 96.2013 993.41 96.1966 994.961 95.7041Z" fill="#C5D3E0"/>
<path d="M1010.13 174.492C1010.13 170.24 1013.28 167.189 1017.63 167.22C1022.06 167.256 1025.22 170.271 1025.05 174.555C1024.86 179.136 1022.48 181.611 1017.68 181.755C1016.7 181.803 1015.72 181.65 1014.8 181.306C1013.88 180.961 1013.05 180.433 1012.34 179.753C1011.63 179.073 1011.07 178.255 1010.69 177.351C1010.31 176.446 1010.12 175.473 1010.13 174.492Z" fill="#C5D3E0"/>
<path d="M901.112 293.028C905.67 293.028 908.654 295.868 908.663 300.228C908.663 304.053 905.202 307.459 901.193 307.563C897.089 307.671 893.43 304.35 893.543 300.242C893.678 296.264 896.31 292.794 901.112 293.028Z" fill="#C5D3E0"/>
<path d="M994.88 87.451C994.934 91.6719 992.181 94.4799 987.879 94.5699C983.379 94.6644 980.386 92.0004 980.382 87.7345C980.377 83.4686 982.416 80.5797 987.474 80.5347C991.429 80.4627 994.979 83.0006 994.88 87.451Z" fill="#C5D3E0"/>
<path d="M795.54 108.434C795.068 104.155 799.014 101.622 802.74 101.658C806.965 101.694 809.832 104.56 809.791 108.731C809.76 112.673 806.641 115.895 802.618 115.508C798.024 115.072 795.423 113.699 795.54 108.434Z" fill="#C5D3E0"/>
<path d="M884.98 297.538C889.876 297.128 892.297 301.138 892.319 304.436C892.319 308.275 888.958 311.469 884.935 311.483C880.84 311.483 877.334 308.234 877.546 304.346C877.721 301.187 880.682 297.227 884.98 297.538Z" fill="#C5D3E0"/>
<path d="M856.518 88.6344C856.014 85.336 859.218 81.7856 863.538 81.7631C864.481 81.7343 865.42 81.8939 866.301 82.2325C867.182 82.5712 867.986 83.0821 868.667 83.7353C869.348 84.3886 869.892 85.171 870.267 86.037C870.641 86.9029 870.84 87.8349 870.85 88.7784C870.85 92.4053 867.358 95.7217 863.61 95.6902C859.785 95.6632 855.96 92.3873 856.518 88.6344Z" fill="#C5D3E0"/>
<path d="M1027.28 158.621C1027.37 163.387 1024.22 165.533 1020.11 165.556C1019.17 165.557 1018.24 165.373 1017.37 165.013C1016.5 164.652 1015.71 164.124 1015.05 163.457C1014.38 162.79 1013.86 161.998 1013.5 161.127C1013.14 160.257 1012.96 159.324 1012.97 158.383C1013.02 154.666 1016.54 151.349 1020.42 151.484C1024.21 151.633 1027.7 154.603 1027.28 158.621Z" fill="#C5D3E0"/>
<path d="M946.381 121.371C942.232 121.371 939.257 118.478 939.244 114.482C939.236 113.54 939.423 112.607 939.792 111.74C940.161 110.874 940.705 110.092 941.389 109.445C942.074 108.798 942.884 108.299 943.77 107.978C944.656 107.658 945.598 107.524 946.538 107.584C950.588 107.813 953.86 110.797 953.536 114.784C953.243 118.361 951.524 121.934 946.381 121.371Z" fill="#C5D3E0"/>
<path d="M860.919 40.0764C860.919 43.9463 857.827 46.9387 853.836 46.9612C848.85 46.9612 846.38 43.2893 846.524 40.0179C846.704 35.9275 849.008 33.2275 853.926 33.268C858.844 33.3085 860.523 35.842 860.919 40.0764Z" fill="#C5D3E0"/>
<path d="M955.857 246.909C956.307 250.991 952.141 254.109 948.658 253.97C946.761 253.937 944.951 253.167 943.612 251.823C942.273 250.479 941.51 248.667 941.485 246.77C941.413 242.526 944.513 239.925 948.878 239.984C953.139 240.033 955.871 242.711 955.857 246.909Z" fill="#C5D3E0"/>
<path d="M909.734 36.7104C909.63 31.4995 912.402 30.0461 916.816 30.0101C920.839 29.9786 923.697 32.5525 923.566 36.9399C923.44 40.9538 920.785 43.5907 916.636 43.5817C912.348 43.5727 909.72 40.9358 909.734 36.7104Z" fill="#C5D3E0"/>
<path d="M967.112 184.532C963.062 184.505 960.051 181.742 960.209 177.863C960.393 173.295 962.072 171.252 967.26 171.05C971.062 170.901 974.689 174.483 974.604 178.047C974.514 181.733 971.251 184.554 967.112 184.532Z" fill="#C5D3E0"/>
<path d="M1028.1 142.521C1028.1 146.548 1025.31 149.383 1021.2 149.545C1017.93 149.671 1014.56 146.148 1014.54 142.575C1014.54 138.691 1017.28 136.01 1021.29 136.001C1025.74 135.987 1028.1 138.264 1028.1 142.521Z" fill="#C5D3E0"/>
<path d="M981.201 66.509C985.737 66.761 987.901 69.2494 988.077 73.2588C988.221 76.6113 984.252 80.2697 980.953 80.2517C977.245 80.2517 974.114 76.9037 974.204 73.0518C974.276 68.9974 976.989 66.4595 981.201 66.509Z" fill="#C5D3E0"/>
<path d="M908.01 97.4546C903.668 97.4771 901.287 95.1102 901.089 90.9883C900.891 86.8664 904.059 84.4905 907.7 84.3825C911.664 84.2655 914.576 87.0374 914.594 90.8218C914.618 91.6953 914.465 92.5647 914.143 93.3773C913.822 94.1899 913.339 94.9287 912.723 95.5489C912.108 96.1691 911.372 96.6579 910.562 96.9854C909.752 97.313 908.884 97.4727 908.01 97.4546Z" fill="#C5D3E0"/>
<path d="M862.075 307.289C862.075 303.194 864.487 300.742 868.609 300.715C872.88 300.688 875.62 303.194 875.615 307.131C875.614 308.012 875.437 308.884 875.096 309.696C874.755 310.508 874.256 311.245 873.628 311.862C873 312.48 872.256 312.967 871.438 313.295C870.621 313.623 869.746 313.786 868.866 313.773C864.532 313.8 862.093 311.474 862.075 307.289Z" fill="#C5D3E0"/>
<path d="M810.741 75.6796C810.92 79.1401 807.537 82.407 803.928 82.2225C800.224 82.038 797.092 79.2886 797.223 75.7336C797.38 71.4812 799.473 69.2628 803.842 69.1053C807.91 68.9568 810.736 71.7287 810.741 75.6796Z" fill="#C5D3E0"/>
<path d="M943.132 256.931C942.817 261.241 939.95 263.424 936.116 263.68C932.544 263.91 929.088 260.274 929.182 256.809C929.277 253.245 932.535 250.226 936.26 250.244C939.986 250.262 943.114 253.353 943.132 256.931Z" fill="#C5D3E0"/>
<path d="M837.659 46.6146C834.225 46.6146 830.607 43.2937 830.72 40.2472C830.846 36.9713 834.135 33.8079 837.645 33.9204C841.457 34.0464 844.08 36.4538 844.094 40.3327C844.103 44.0271 841.443 46.6146 837.659 46.6146Z" fill="#C5D3E0"/>
<path d="M902.358 22.6482C905.958 22.6752 908.924 25.5462 908.883 28.9481C908.843 32.4355 905.877 35.1039 902.133 35.0769C898.938 35.0769 895.383 33.052 895.563 28.7771C895.707 25.1142 898.353 22.6167 902.358 22.6482Z" fill="#C5D3E0"/>
<path d="M961.077 199.125C956.389 199.071 954.998 196.934 954.454 192.825C954.004 189.311 957.154 186.525 961.109 186.395C964.394 186.291 967.881 189.599 967.625 192.825C967.4 195.687 964.898 199.467 961.077 199.125Z" fill="#C5D3E0"/>
<path d="M852.31 314.659C848.436 314.691 845.795 312.112 845.808 308.306C845.808 305.115 849.03 301.812 852.153 301.776C855.546 301.74 858.525 304.715 858.633 308.202C858.654 309.044 858.506 309.882 858.197 310.667C857.889 311.451 857.426 312.165 856.836 312.767C856.247 313.369 855.543 313.847 854.765 314.172C853.988 314.497 853.153 314.663 852.31 314.659Z" fill="#C5D3E0"/>
<path d="M1014.54 126.389C1014.54 122.82 1017.24 120.179 1020.89 120.192C1024.55 120.206 1027.26 122.892 1027.25 126.429C1027.25 130.11 1024.51 132.923 1020.91 132.81C1017.39 132.702 1014.16 129.786 1014.54 126.389Z" fill="#C5D3E0"/>
<path d="M966.652 59.5567C966.571 55.4123 968.979 53.4278 972.858 53.3108C976.431 53.2028 979.446 55.8398 979.414 59.5162C979.383 63.4266 976.206 65.7035 972.835 65.7665C968.376 65.8565 966.738 63.1701 966.652 59.5567Z" fill="#C5D3E0"/>
<path d="M928.885 265.561C929.452 268.554 925.771 271.901 922.648 271.69C918.337 271.402 916.231 269.692 916.209 265.624C916.182 261.669 918.513 259.365 922.567 259.324C924.23 259.319 925.828 259.972 927.011 261.141C928.195 262.309 928.868 263.898 928.885 265.561Z" fill="#C5D3E0"/>
<path d="M955.777 130.195C955.349 134.245 953.077 136.333 949.171 136.329C945.422 136.329 942.83 133.539 942.83 129.844C942.83 125.794 946.552 123.545 949.45 123.581C952.852 123.644 955.853 126.793 955.777 130.195Z" fill="#C5D3E0"/>
<path d="M829.735 307.748C829.514 304.476 832.299 302.181 835.661 302.28C839.022 302.379 841.695 305.003 841.605 308.13C841.493 311.888 839.252 313.98 835.427 313.832C833.87 313.765 832.402 313.09 831.338 311.953C830.273 310.815 829.698 309.305 829.735 307.748Z" fill="#C5D3E0"/>
<path d="M963.453 52.2351C959.44 52.2756 957.64 50.6197 957.568 46.8353C957.505 43.6403 959.867 40.9224 962.832 40.7694C963.639 40.7215 964.447 40.836 965.209 41.1061C965.971 41.3763 966.67 41.7965 967.267 42.342C967.863 42.8876 968.344 43.5472 968.68 44.2819C969.017 45.0166 969.203 45.8115 969.227 46.6193C969.276 50.0977 967.134 52.1856 963.453 52.2351Z" fill="#C5D3E0"/>
<path d="M1018.91 116.152C1015.54 116.188 1012.87 113.717 1012.86 110.549C1012.86 107.215 1015.22 104.924 1018.75 104.875C1022.39 104.825 1024.78 106.99 1024.81 110.369C1024.84 113.614 1022.28 116.116 1018.91 116.152Z" fill="#C5D3E0"/>
<path d="M887.036 28.3853C882.766 28.7003 880.907 25.6854 880.795 23.2959C880.628 19.8085 883.369 17.1851 886.843 17.2346C890.317 17.2841 892.603 19.3405 892.652 22.7514C892.702 26.1624 890.497 28.3718 887.036 28.3853Z" fill="#C5D3E0"/>
<path d="M943.789 145.508C943.838 142.417 946.322 139.816 949.148 139.906C952.577 140.01 955.763 142.867 955.592 145.688C955.417 148.627 952.631 151.322 949.769 151.322C946.52 151.318 943.739 148.618 943.789 145.508Z" fill="#C5D3E0"/>
<path d="M795.081 128.972C791.427 128.972 789.294 126.843 789.366 123.302C789.434 120.008 791.756 117.902 795.256 117.947C798.501 117.996 800.8 120.273 800.782 123.428C800.764 126.848 798.564 128.985 795.081 128.972Z" fill="#C5D3E0"/>
<path d="M947.06 206.82C947.06 202.963 948.954 201.118 952.91 201.154C956.348 201.186 958.463 203.238 958.49 206.554C958.517 210.154 956.388 212.296 952.766 212.278C949.297 212.274 947.064 210.132 947.06 206.82Z" fill="#C5D3E0"/>
<path d="M922.554 104.2C922.554 107.421 920.304 109.757 917.042 109.716C913.406 109.671 911.102 107.25 910.908 104.141C910.715 101.032 913.608 98.5972 917.001 98.5747C917.736 98.577 918.463 98.7247 919.14 99.0091C919.817 99.2934 920.432 99.709 920.948 100.232C921.464 100.755 921.872 101.374 922.147 102.055C922.423 102.736 922.561 103.465 922.554 104.2Z" fill="#C5D3E0"/>
<path d="M913.77 272.738C913.716 276.226 911.669 278.255 908.105 278.359C907.334 278.405 906.562 278.289 905.838 278.018C905.115 277.747 904.457 277.327 903.905 276.786C903.354 276.245 902.922 275.595 902.638 274.877C902.354 274.158 902.223 273.389 902.255 272.617C902.309 269.341 904.676 266.92 908.042 267.078C911.561 267.24 913.824 269.292 913.77 272.738Z" fill="#C5D3E0"/>
<path d="M791.441 91.2311C787.701 91.2671 785.591 89.2106 785.591 85.6107C785.627 82.6138 787.895 80.4629 790.991 80.3504C794.833 80.2064 796.786 82.4293 797.02 85.7862C797.268 88.7966 794.631 91.1996 791.441 91.2311Z" fill="#C5D3E0"/>
<path d="M884.498 96.1945C884.737 99.5469 881.56 101.644 878.765 101.567C875.723 101.486 873.05 99.3174 873.208 95.8255C873.352 92.752 875.795 90.4841 879.058 90.5651C882.32 90.6461 884.539 92.941 884.498 96.1945Z" fill="#C5D3E0"/>
<path d="M827.44 43.0553C827.795 45.9847 825.19 48.4237 821.833 48.4957C818.75 48.5632 815.983 46.2187 816.19 42.8033C816.37 39.7389 818.768 37.2369 821.914 37.4304C824.96 37.6194 827.8 39.1584 827.44 43.0553Z" fill="#C5D3E0"/>
<path d="M819.052 311.483C815.731 311.456 813.395 309.183 813.476 306.083C813.491 305.365 813.652 304.657 813.949 304.004C814.247 303.35 814.675 302.764 815.207 302.282C815.74 301.8 816.365 301.432 817.044 301.2C817.724 300.969 818.444 300.878 819.16 300.935C822.683 301.241 824.362 302.735 824.362 306.294C824.38 309.719 822.53 311.514 819.052 311.483Z" fill="#C5D3E0"/>
<path d="M1015.2 99.8167C1012.01 99.8167 1009.88 97.7648 1009.89 94.7049C1009.91 91.6449 1012.11 89.755 1015.29 89.6515C1015.99 89.624 1016.68 89.7377 1017.32 89.9855C1017.97 90.2334 1018.56 90.6103 1019.06 91.0934C1019.56 91.5765 1019.95 92.1556 1020.22 92.7958C1020.49 93.4359 1020.62 94.1237 1020.62 94.8174C1020.57 97.5803 1018.52 100.109 1015.2 99.8167Z" fill="#C5D3E0"/>
<path d="M887.693 278.138C887.693 274.988 889.196 273.611 892.701 273.58C895.964 273.548 897.944 275.38 897.921 278.381C897.921 281.531 896.067 283.295 892.841 283.331C889.178 283.394 887.698 281.891 887.693 278.138Z" fill="#C5D3E0"/>
<path d="M952.464 30.1948C955.164 30.1948 958.265 32.7418 957.896 35.0187C957.468 37.6691 955.988 40.1936 952.379 40.0361C948.181 39.8471 947.429 38.7896 947.353 34.9827C947.281 31.6123 948.577 30.3208 952.464 30.1948Z" fill="#C5D3E0"/>
<path d="M866.121 18.7875C866.121 15.5071 867.678 13.9681 871.008 14.0086C873.86 14.0401 875.885 16.0335 875.903 18.8235C875.885 20.1936 875.335 21.5029 874.37 22.4752C873.404 23.4474 872.098 24.0065 870.729 24.0343C868.029 24.0118 866.13 21.8609 866.121 18.7875Z" fill="#C5D3E0"/>
<path d="M947.861 219.581C947.861 222.515 945.85 224.414 942.844 224.378C939.838 224.342 937.642 222.182 937.727 219.311C937.804 216.845 940.292 214.595 942.925 214.591C945.557 214.586 948.32 217.034 947.861 219.581Z" fill="#C5D3E0"/>
<path d="M811.33 47.9239C811.346 48.5503 811.233 49.1733 810.998 49.7541C810.762 50.3349 810.41 50.8611 809.963 51.2997C809.515 51.7384 808.982 52.0801 808.397 52.3037C807.811 52.5273 807.186 52.6279 806.56 52.5993C803.487 52.5498 801.898 50.9883 801.898 48.0229C801.898 45.2689 803.901 43.028 806.344 43.046C808.788 43.064 811.33 45.5884 811.33 47.9239Z" fill="#C5D3E0"/>
<path d="M807.541 302.829C807.541 305.691 805.624 307.964 803.041 307.914C802.399 307.898 801.767 307.751 801.183 307.484C800.599 307.217 800.074 306.834 799.642 306.359C799.209 305.884 798.877 305.327 798.666 304.72C798.454 304.113 798.368 303.47 798.411 302.829C798.519 299.882 799.923 298.433 802.911 298.402C805.669 298.361 807.519 300.13 807.541 302.829Z" fill="#C5D3E0"/>
<path d="M947.272 156.655C949.994 156.655 951.902 158.486 951.897 161.092C951.893 163.697 949.819 165.632 947.069 165.592C944.153 165.538 942.421 163.922 942.421 161.249C942.421 158.576 944.459 156.655 947.272 156.655Z" fill="#C5D3E0"/>
<path d="M1014.79 79.527C1014.76 82.3124 1013.1 83.8334 1010.11 83.8154C1007.12 83.7974 1005.56 82.3574 1005.56 79.455C1005.56 76.5526 1007.4 74.6446 1010.11 74.5861C1012.83 74.5276 1014.82 76.6786 1014.79 79.527Z" fill="#C5D3E0"/>
<path d="M940.103 28.9392C937.322 28.8672 935.424 27.0943 935.428 24.5788C935.428 22.3289 937.808 20.3669 940.459 20.4389C941.024 20.4469 941.581 20.5678 942.099 20.7943C942.616 21.0208 943.083 21.3485 943.472 21.7581C943.861 22.1677 944.165 22.6509 944.364 23.1794C944.564 23.7078 944.656 24.2708 944.635 24.8353C944.527 27.4048 942.767 29.0067 940.103 28.9392Z" fill="#C5D3E0"/>
<path d="M780.281 102.251C778.031 102.251 776.568 100.73 776.582 98.3137C776.582 95.6138 778.085 94.1693 780.956 94.1153C783.548 94.0658 785.289 95.7128 785.294 98.2192C785.298 101.149 783.957 102.229 780.281 102.251Z" fill="#C5D3E0"/>
<path d="M881.312 282.297C881.312 284.911 879.71 286.554 877.109 286.567C874.693 286.567 872.61 284.632 872.646 282.355C872.673 279.7 874.365 278.094 877.145 278.094C879.926 278.094 881.299 279.489 881.312 282.297Z" fill="#C5D3E0"/>
<path d="M923.013 123.257C921.904 123.276 920.833 122.855 920.035 122.085C919.237 121.315 918.778 120.259 918.758 119.151C918.739 118.042 919.16 116.971 919.93 116.173C920.7 115.375 921.756 114.916 922.864 114.896C925.429 114.864 927.175 116.525 927.211 119.018C927.221 119.574 927.12 120.126 926.913 120.643C926.706 121.159 926.398 121.628 926.007 122.024C925.615 122.419 925.149 122.731 924.635 122.943C924.12 123.155 923.569 123.262 923.013 123.257Z" fill="#C5D3E0"/>
<path d="M931.256 234.881C928.556 234.881 927.256 233.594 927.243 230.984C927.229 228.374 928.728 226.97 931.293 227.006C933.543 227.042 935.612 228.887 935.707 230.961C935.801 232.824 933.453 234.881 931.256 234.881Z" fill="#C5D3E0"/>
<path d="M854.43 12.9417C856.959 12.9192 858.583 14.3951 858.628 16.7486C858.673 19.102 857.085 20.668 854.718 20.722C851.879 20.794 850.488 19.516 850.47 16.8341C850.479 14.0306 851.537 12.9642 854.43 12.9417Z" fill="#C5D3E0"/>
<path d="M783.111 298.113C783.111 295.62 784.461 294.275 786.986 294.226C789.294 294.181 791.071 295.818 791.112 298.019C791.157 300.354 789.438 301.997 786.99 301.952C784.43 301.929 783.116 300.611 783.111 298.113Z" fill="#C5D3E0"/>
<path d="M1003.45 68.4209C1000.81 68.4209 999.551 67.1699 999.596 64.6275C999.641 62.2381 1001.12 60.8251 1003.58 60.8296C1005.86 60.8296 1007.55 62.4451 1007.55 64.596C1007.53 67.2194 1006.25 68.4299 1003.45 68.4209Z" fill="#C5D3E0"/>
<path d="M887.621 107.602C887.621 105.717 889.124 104.331 891.122 104.326C891.573 104.306 892.024 104.378 892.446 104.538C892.868 104.697 893.254 104.942 893.578 105.256C893.903 105.569 894.161 105.946 894.335 106.363C894.509 106.779 894.596 107.227 894.592 107.679C894.592 109.442 892.751 111.193 890.861 111.242C888.872 111.287 887.599 109.861 887.621 107.602Z" fill="#C5D3E0"/>
<path d="M926.676 12.0511C928.552 12.0241 930.388 13.7611 930.379 15.561C930.379 17.5455 928.953 18.9314 926.919 18.9449C924.885 18.9584 923.364 17.631 923.319 15.7185C923.242 13.6081 924.646 12.0781 926.676 12.0511Z" fill="#C5D3E0"/>
<path d="M942.493 179.267C940.409 179.267 938.749 177.976 938.659 176.252C938.569 174.529 940.612 172.787 942.596 172.801C944.779 172.801 945.796 173.903 945.805 176.221C945.814 178.129 944.59 179.254 942.493 179.267Z" fill="#C5D3E0"/>
<path d="M864.51 284.672C864.478 286.643 863.043 287.966 860.964 287.953C860.513 287.965 860.064 287.887 859.643 287.723C859.223 287.56 858.839 287.314 858.514 287.001C858.19 286.688 857.931 286.313 857.752 285.898C857.574 285.484 857.48 285.038 857.476 284.587C857.476 282.656 859.276 281.14 861.445 281.176C863.079 281.203 864.537 282.895 864.51 284.672Z" fill="#C5D3E0"/>
<path d="M792.358 52.0054C794.523 52.0054 795.778 53.1843 795.787 55.2723C795.799 55.7244 795.718 56.1741 795.549 56.5939C795.381 57.0137 795.129 57.3947 794.808 57.7139C794.488 58.0331 794.106 58.2836 793.685 58.4503C793.265 58.6169 792.815 58.6962 792.363 58.6832C791.497 58.6587 790.672 58.3057 790.056 57.6957C789.44 57.0857 789.079 56.2644 789.047 55.3983C789.029 53.2923 790.266 52.0234 792.358 52.0054Z" fill="#C5D3E0"/>
<path d="M995.501 47.5325C997.481 47.4785 998.651 48.6845 998.701 50.7859C998.723 52.0414 996.744 54.0258 995.43 54.0573C994.237 54.0843 992.342 52.0144 992.315 50.6464C992.315 50.2314 992.398 49.8205 992.559 49.4379C992.72 49.0553 992.956 48.7088 993.253 48.4187C993.55 48.1286 993.902 47.9007 994.288 47.7485C994.674 47.5964 995.087 47.5229 995.501 47.5325Z" fill="#C5D3E0"/>
<path d="M771.916 294.729C769.945 294.729 768.68 293.546 768.649 291.746C768.617 289.847 769.85 288.83 772.105 288.893C773.976 288.942 775.506 290.292 775.461 291.854C775.412 293.555 773.927 294.756 771.916 294.729Z" fill="#C5D3E0"/>
<path d="M837.929 19.7327C836.003 19.7057 834.725 18.4997 834.779 16.7717C834.788 16.3685 834.876 15.971 835.04 15.6024C835.203 15.2337 835.438 14.9012 835.731 14.6241C836.025 14.3469 836.37 14.1308 836.747 13.9881C837.124 13.8454 837.526 13.779 837.929 13.7928C839.45 13.8558 841.205 15.5073 841.227 16.8932C841.281 18.3872 839.679 19.7552 837.929 19.7327Z" fill="#C5D3E0"/>
<path d="M918.175 238.054C919.975 238.054 921.447 239.269 921.433 240.776C921.41 241.574 921.074 242.331 920.499 242.883C919.923 243.436 919.153 243.741 918.355 243.733C916.596 243.76 915.417 242.563 915.376 240.799C915.336 238.931 916.357 238.117 918.175 238.054Z" fill="#C5D3E0"/>
<path d="M915.277 8.13176C914.967 9.32874 914.422 10.5077 912.578 10.4132C910.895 10.3277 910.125 9.29724 909.959 7.87527C909.792 6.45331 911.354 5.27884 912.969 5.38233C913.633 5.45723 914.243 5.78432 914.672 6.29601C915.102 6.80771 915.319 7.4649 915.277 8.13176Z" fill="#C5D3E0"/>
<path d="M844.53 287.701C842.519 287.782 841.781 286.612 841.884 285.055C841.988 283.498 843.419 282.931 844.805 282.778C846.087 282.63 848.004 284.452 847.568 285.478C847.041 286.67 846.362 288.151 844.53 287.701Z" fill="#C5D3E0"/>
<path d="M771.047 112.241C770.759 110.356 772.334 110.36 773.675 110.27C775.223 110.162 776.199 110.941 776.154 112.493C776.114 113.924 775.286 114.977 773.747 114.95C772.208 114.923 771.002 114.194 771.047 112.241Z" fill="#C5D3E0"/>
<path d="M928.089 134.655C928.116 136.338 926.995 137.121 925.533 137.229C925.213 137.25 924.891 137.207 924.588 137.102C924.285 136.997 924.006 136.832 923.768 136.617C923.529 136.402 923.336 136.142 923.201 135.851C923.065 135.561 922.989 135.246 922.977 134.925C922.945 133.697 923.688 132.225 925.411 132.225C926.919 132.248 927.967 133.049 928.089 134.655Z" fill="#C5D3E0"/>
<path d="M988.419 37.4349C988.383 38.9559 987.366 39.5589 986.011 39.5229C985.723 39.5349 985.436 39.4829 985.17 39.3706C984.904 39.2582 984.666 39.0884 984.474 38.8732C984.282 38.6581 984.139 38.403 984.057 38.1263C983.975 37.8496 983.956 37.5581 984 37.2729C984.085 35.9905 984.792 34.924 986.286 35.023C987.676 35.1265 988.423 36.031 988.419 37.4349Z" fill="#C5D3E0"/>
<path d="M759.631 284.002C759.689 285.59 758.911 286.211 757.547 286.189C756.265 286.189 755.131 285.982 755.072 284.308C755.023 282.733 755.923 282.152 757.322 282.134C758.722 282.116 759.734 282.58 759.631 284.002Z" fill="#C5D3E0"/>
<path d="M935.419 191.839C934.244 191.682 933.254 191.128 933.124 189.877C932.975 188.505 934.447 188.14 935.252 188.01C935.513 187.985 935.776 188.012 936.026 188.089C936.276 188.166 936.508 188.292 936.709 188.46C936.91 188.627 937.076 188.832 937.198 189.064C937.319 189.296 937.394 189.549 937.417 189.81C937.507 190.975 936.638 191.61 935.419 191.839Z" fill="#C5D3E0"/>
<path d="M779.079 62.8321C780.717 62.7061 781.374 63.4261 781.397 64.6546C781.397 65.7886 780.74 66.594 779.561 66.4995C778.53 66.414 777.356 66.126 777.437 64.6996C777.5 63.5296 777.743 62.5036 779.079 62.8321Z" fill="#C5D3E0"/>
<path d="M821.504 17.3652C822.616 17.4192 823.237 17.9187 823.327 18.9807C823.435 20.2137 822.823 20.9831 821.612 21.1541C820.505 21.3071 820.051 20.6412 819.947 19.6062C819.83 18.3822 820.298 17.6352 821.504 17.3652Z" fill="#C5D3E0"/>
<path d="M992.167 124.845C994.867 125.399 997.531 125.583 1000.15 124.485C1000.1 125.295 999.209 125.124 998.831 125.552C999.11 126.105 999.992 125.966 1000.15 126.641C998.192 126.146 996.235 126.681 994.273 126.663C994.102 125.48 992.225 126.155 992.167 124.845Z" fill="#C5D3E0"/>
<path d="M905.769 248.984C905.765 249.212 905.714 249.437 905.62 249.645C905.526 249.853 905.391 250.039 905.223 250.194C905.054 250.348 904.856 250.466 904.641 250.541C904.425 250.616 904.197 250.647 903.969 250.631C903.475 250.657 902.989 250.497 902.608 250.182C902.226 249.867 901.976 249.42 901.908 248.93C901.796 247.652 903.051 247.436 903.947 247.413C904.842 247.391 905.873 247.679 905.769 248.984Z" fill="#C5D3E0"/>
<path d="M899.222 1.74626C899.256 1.94047 899.247 2.1399 899.194 2.32995C899.141 2.52 899.047 2.69588 898.917 2.8447C898.788 2.99352 898.627 3.11153 898.446 3.19009C898.265 3.26864 898.069 3.30576 897.872 3.29872C896.828 3.39772 896.31 2.77674 896.288 1.81376C896.288 1.07128 896.648 0.396294 897.462 0.436793C898.277 0.477292 899.078 0.787784 899.222 1.74626Z" fill="#C5D3E0"/>
<path d="M828.317 282.751C829.739 282.751 829.609 283.651 829.798 284.452C830.086 285.667 828.776 285.676 828.448 285.73C827.494 285.883 827.386 284.933 827.287 284.218C827.165 283.336 827.584 282.809 828.317 282.751Z" fill="#C5D3E0"/>
<path d="M975.612 26.2705C974.87 26.185 974.262 25.8745 974.204 25.1096C974.182 24.9227 974.201 24.7333 974.26 24.5546C974.319 24.3759 974.416 24.2121 974.544 24.0746C974.672 23.9372 974.829 23.8294 975.004 23.7586C975.178 23.6879 975.366 23.656 975.554 23.6651C976.39 23.6291 976.755 24.2456 976.84 24.9341C976.926 25.7575 976.301 26.0545 975.612 26.2705Z" fill="#C5D3E0"/>
<path d="M744.817 275.286C744.772 276.244 744.075 276.226 743.508 276.235C742.833 276.235 742.32 275.92 742.419 275.16C742.491 274.597 742.549 273.855 743.377 273.949C743.726 273.995 744.052 274.148 744.31 274.388C744.568 274.627 744.745 274.941 744.817 275.286Z" fill="#C5D3E0"/>
<path d="M994.961 95.7041C993.409 96.1922 991.744 96.1922 990.191 95.7041C990.919 95.2928 991.741 95.0767 992.576 95.0767C993.412 95.0767 994.234 95.2928 994.961 95.7041Z" fill="#C5D3E0"/>
<path d="M923.904 285.595C924.453 286.792 924.174 288.016 924.039 289.235C922.878 288.061 922.986 286.841 923.904 285.595Z" fill="#C5D3E0"/>
<path d="M953.418 276.05L953.18 275.776H953.387C953.387 275.879 953.387 275.987 953.387 276.091L953.418 276.05Z" fill="#C5D3E0"/>
<path d="M946.534 64.227C946.561 64.101 946.592 63.9795 946.619 63.8535C947.006 64.1415 946.52 64.0695 946.48 64.1775L946.534 64.227Z" fill="#C5D3E0"/>
<path d="M891.1 52.1855C891.14 52.2305 891.212 52.28 891.212 52.325C891.212 52.37 891.136 52.4151 891.091 52.4601C891.05 52.4151 890.974 52.3656 890.978 52.3206C890.983 52.2756 891.055 52.2125 891.1 52.1855Z" fill="#C5D3E0"/>
<path d="M889.925 74.9459C889.979 75.2923 890.069 75.6658 889.624 75.8233C889.552 75.8503 889.273 75.6163 889.273 75.4993C889.273 75.0899 889.493 74.8604 889.957 74.9729L889.925 74.9459Z" fill="#C5D3E0"/>
<path d="M822.305 93.4316C821.446 93.1886 821.945 92.4956 821.801 92.0142C822.041 92.1515 822.223 92.3698 822.315 92.6297C822.408 92.8897 822.404 93.1741 822.305 93.4316Z" fill="#C5D3E0"/>
</g>
<defs>
<clipPath id="clip0">
<rect width="1028.1" height="314.223" fill="white" transform="translate(0 0.436523)"/>
</clipPath>
</defs>
</svg>
