<svg width="100%" height="100%" viewBox="0 0 31 26" fill="none" xmlns="http://www.w3.org/2000/svg">
<path d="M27.1592 4.25971C28.4665 3.47817 29.4446 2.24755 29.911 0.797622C28.6826 1.5265 27.3386 2.03994 25.9371 2.31575C23.994 0.260266 20.9153 -0.239944 18.4214 1.09462C15.9275 2.42918 14.6357 5.26813 15.2679 8.02512C10.2361 7.7725 5.54806 5.39562 2.3704 1.48596C0.712045 4.34636 1.5595 8.00293 4.30707 9.8422C3.31352 9.81026 2.34201 9.54126 1.47353 9.05762C1.47353 9.08387 1.47353 9.11012 1.47353 9.13637C1.4741 12.116 3.57407 14.6825 6.49457 15.273C5.573 15.5238 4.60633 15.5607 3.66832 15.381C4.48965 17.9291 6.83808 19.6747 9.51478 19.7268C7.29787 21.4668 4.56006 22.4104 1.74186 22.4057C1.24234 22.4065 0.74321 22.3777 0.24707 22.3197C3.10889 24.1587 6.43969 25.1348 9.84144 25.1314C14.5741 25.1639 19.1223 23.2981 22.4688 19.9514C25.8152 16.6047 27.6806 12.0563 27.6477 7.32366C27.6477 7.05241 27.6414 6.78262 27.6287 6.51429C28.8544 5.6285 29.9122 4.53117 30.7525 3.27387C29.6106 3.78001 28.3994 4.1123 27.1592 4.25971Z" fill="white"/>
</svg>
