<?xml version="1.0" encoding="UTF-8"?><svg id="Lager_2" xmlns="http://www.w3.org/2000/svg" viewBox="0 0 123.46 111.09"><defs><style>.cls-1{fill:none;stroke:#000;stroke-miterlimit:10;stroke-width:2px;}</style></defs><g id="Layer_16"><path class="cls-1" d="m62.08,94.69c-2.51,0-5.02,0-7.53,0-1.41,0-1.91-.5-1.93-1.91-.01-1.2-.02-2.4,0-3.6.01-.78-.35-1.26-1.07-1.49-4.87-1.56-9.2-4.08-12.99-7.51-.59-.54-1.21-.6-1.91-.19-1.05.63-2.11,1.24-3.18,1.84-1.1.62-1.81.43-2.44-.66-2.57-4.43-5.13-8.87-7.69-13.31-.64-1.11-.44-1.78.65-2.43.93-.55,1.88-1.09,2.82-1.63,1.23-.71,1.26-.98,1.09-2.36-.32-2.68-.66-5.37-.69-8.05-.03-1.99.37-3.99.67-5.96.24-1.55.21-1.75-1.17-2.55-.94-.54-1.89-1.07-2.82-1.63-.97-.58-1.17-1.28-.61-2.25,2.59-4.52,5.2-9.03,7.81-13.53.58-.99,1.3-1.16,2.33-.58,1.07.6,2.14,1.2,3.18,1.84.76.46,1.39.37,2.04-.21,3.75-3.4,8.03-5.88,12.84-7.44.81-.26,1.16-.78,1.13-1.62-.03-1.17-.02-2.34,0-3.51.01-1.37.52-1.88,1.87-1.88,5.07,0,10.15,0,15.22,0,1.35,0,1.87.51,1.88,1.87.01,1.2.02,2.4,0,3.6-.02.82.35,1.3,1.12,1.55,4.84,1.56,9.15,4.06,12.92,7.47.63.57,1.26.62,1.98.19,1.05-.63,2.11-1.24,3.18-1.84,1.05-.59,1.77-.4,2.38.64,2.59,4.46,5.16,8.92,7.73,13.38.61,1.05.41,1.75-.64,2.38-.96.57-1.93,1.12-2.89,1.67-1.18.68-1.22.97-1.07,2.3.31,2.7.67,5.42.7,8.14.03,1.98-.38,3.98-.69,5.96-.23,1.49-.19,1.72,1.15,2.48.94.54,1.89,1.07,2.82,1.63,1.01.6,1.21,1.3.63,2.31-2.58,4.49-5.17,8.98-7.77,13.46-.6,1.04-1.31,1.2-2.39.6-1.04-.59-2.09-1.17-3.11-1.8-.74-.46-1.39-.43-2.05.16-3.77,3.42-8.07,5.92-12.91,7.48-.77.25-1.11.75-1.09,1.56.03,1.14.01,2.29,0,3.43,0,1.53-.48,2.01-1.99,2.01-2.51,0-5.02,0-7.53,0Zm25.44-40.25c-.07-13.88-11.03-25.36-25.32-25.44-13.83-.07-25.38,10.93-25.46,25.27-.08,13.9,11.01,25.44,25.33,25.48,13.94.04,25.27-11.07,25.45-25.31Z"/><path class="cls-1" d="m6.41,54.37c1.11,31.27,26.63,55.69,55.72,55.72,26.06.03,49.68-19.51,54.92-46.83"/><path class="cls-1" d="m12.14,59.38c-1.91-1.76-3.82-3.52-5.73-5.28l-5.73,5.28"/><path class="cls-1" d="m117.05,56.72C115.94,25.45,90.41,1.03,61.33,1c-26.06-.03-49.68,19.51-54.92,46.83"/><path class="cls-1" d="m111.31,51.72c1.91,1.76,3.82,3.52,5.73,5.28l5.73-5.28"/></g></svg>