<?xml version="1.0" encoding="UTF-8"?><svg id="Lager_2" xmlns="http://www.w3.org/2000/svg" viewBox="0 0 101.77 102.97"><defs><style>.cls-1{fill:none;stroke:#000;stroke-miterlimit:10;stroke-width:2px;}</style></defs><g id="Layer_16"><line class="cls-1" x1="15.31" y1="42.3" x2="54.69" y2="42.3"/><line class="cls-1" x1="15.31" y1="53.97" x2="49.14" y2="53.97"/><line class="cls-1" x1="15.31" y1="65.65" x2="49.14" y2="65.65"/><line class="cls-1" x1="15.31" y1="76.64" x2="55.24" y2="76.64"/><path class="cls-1" d="m56.18.75c7.72,8.18,15.43,16.36,23.15,24.55"/><circle class="cls-1" cx="74.69" cy="59.25" r="26.08"/><path class="cls-1" d="m74.69,85.33c-14.4,0-26.08-11.68-26.08-26.08s11.68-26.08,26.08-26.08c1.5,0,2.97.13,4.4.38v-7.98c-7.65.08-15.3.15-22.95.23-.06-8.26-.13-16.53-.19-24.79-18.32,0-36.63,0-54.95,0v100.97h78.09v-17.02c-1.43.24-2.9.38-4.4.38Z"/><polyline class="cls-1" points="61.06 57.43 72.27 68.26 89.69 50.61"/></g></svg>