<?xml version="1.0" encoding="UTF-8"?><svg id="Lager_2" xmlns="http://www.w3.org/2000/svg" viewBox="0 0 109.04 109.85"><defs><style>.cls-1{fill:none;stroke:#000;stroke-miterlimit:10;stroke-width:2px;}</style></defs><g id="Layer_16"><path class="cls-1" d="m101.66,68.84c1.71,2.51,8.38,12.86,5.79,24.4-.5,2.23-1.47,6.54-5.17,10.2-3.35,3.31-7.16,4.34-8.77,4.75-8.31,2.09-16.01-1.15-22.5-4.46-11.08-5.65-23.95-14.38-43.27-33.35-11.28-11.07-13.84-14.95-15.49-17.83-1.94-3.36-13.85-24.01-4.81-37.87.7-1.07,2.69-3.89,6.25-6.06,10.43-6.35,23.81-.73,29.7,1.75,5.97,2.51,10.3,5.74,18.71,12.1,7.62,5.76,13.6,11.01,17.74,14.84"/><path class="cls-1" d="m40.01,97.84c-2.08,1.5-11.46,7.91-22.94,5.46-2.6-.55-9.51-2.03-13.46-8.02-3.71-5.64-2.64-12-1.75-17.32.75-4.46,2.39-9.99,8.74-20.32,7.42-12.07,14.77-20.15,16.36-21.87C44.45,16.93,60.84,8.59,65.2,6.46c8.64-4.22,15.52-6.22,23.06-5.21,2.93.39,9.52,1.27,13.24,6.4,2.35,3.23,2.82,7.12,2.38,12.5-.46,5.67-2.48,19.74-16.07,38.38-3.39,4.65-8.47,10.92-15.62,17.55"/><path class="cls-1" d="m71.3,66.31c.16,3.4.32,6.8.47,10.2l10.2.37"/><path class="cls-1" d="m70.23,39.32c3.35-.59,6.7-1.18,10.05-1.76l-.93-10.16"/></g></svg>