<?xml version="1.0" encoding="UTF-8"?><svg id="Lager_2" xmlns="http://www.w3.org/2000/svg" viewBox="0 0 92.7 92.7"><defs><style>.cls-1,.cls-2{stroke-linejoin:round;}.cls-1,.cls-2,.cls-3,.cls-4,.cls-5{fill:none;}.cls-1,.cls-2,.cls-4,.cls-5{stroke:#000;}.cls-1,.cls-4{stroke-linecap:round;}.cls-3{stroke-width:0px;}.cls-4,.cls-5{stroke-miterlimit:10;}</style></defs><g id="_1"><rect class="cls-3" width="92.7" height="92.7"/><path class="cls-5" d="m76.68,84.88H16.13c-.22,0-.44-.11-.67-.22-.22-.22-.22-.33-.22-.66V8.65c0-.44.33-.88.89-.88h46.1c.22,0,.44.11.67.22l14.33,14.19c.22.22.22.33.22.66v61.05c0,.22-.11.44-.22.66-.11.11-.33.33-.56.33Z"/><path class="cls-5" d="m33.48,73.88h-8c-.44,0-.89-.33-.89-.88v-37.73c0-.44.33-.88.89-.88h8c.44,0,.89.33.89.88v37.62c0,.55-.44.99-.89.99Z"/><rect class="cls-5" x="41.57" y="60.8" width="3.22" height="3.19"/><rect class="cls-5" x="48.17" y="60.8" width="3.22" height="3.19"/><rect class="cls-5" x="54.77" y="60.8" width="3.22" height="3.19"/><rect class="cls-5" x="61.37" y="60.8" width="3.22" height="3.19"/><rect class="cls-5" x="67.97" y="60.8" width="3.22" height="3.19"/><path class="cls-2" d="m29.25,84.93c1.36-3.67,2.72-7.33,4.07-11h-7.7c1.21,3.67,2.42,7.33,3.63,11Z"/><path class="cls-5" d="m25.4,33.89v-1.34c0-.85.53-1.53,1.19-1.53h5.32c.66,0,1.19.69,1.19,1.53v1.34"/><line class="cls-4" x1="71.6" y1="38.71" x2="41.7" y2="38.71"/><line class="cls-4" x1="71.6" y1="46.3" x2="41.7" y2="46.3"/><line class="cls-4" x1="71.6" y1="53.89" x2="41.7" y2="53.89"/><line class="cls-4" x1="55.1" y1="15.08" x2="23.74" y2="15.08"/><line class="cls-4" x1="55.1" y1="20.47" x2="23.74" y2="20.47"/><polyline class="cls-1" points="63.04 22.78 77.1 22.78 62.25 22.78 62.25 7.93"/></g></svg>