<?xml version="1.0" encoding="UTF-8"?><svg id="Lager_2" xmlns="http://www.w3.org/2000/svg" viewBox="0 0 92.7 92.7"><defs><style>.cls-1{stroke-width:0px;}.cls-1,.cls-2,.cls-3{fill:none;}.cls-2{stroke-linecap:round;}.cls-2,.cls-3{stroke:#000;stroke-miterlimit:10;}</style></defs><g id="_1"><rect class="cls-1" width="92.7" height="92.7"/><path class="cls-3" d="m76.57,84.9H16.13c-.22,0-.44-.11-.67-.22-.22-.22-.22-.44-.22-.66V8.68c0-.44.33-.88.89-.88h46.1c.22,0,.44.11.67.22l14.33,14.08c.22.22.22.33.22.66v61.27c0,.44-.33.88-.89.88Z"/><path class="cls-3" d="m62.24,23.75c-.22,0-.44-.11-.67-.22-.22-.22-.22-.33-.22-.66v-14.19c0-.33.22-.66.56-.77.33-.11.67-.11.89.22l14.33,14.08c.22.22.33.66.22.88-.11.22-.44.55-.78.55l-14.33.11h0Z"/><path class="cls-3" d="m54.35,26.83h-27.11c-.44,0-.89-.33-.89-.88v-9.46c0-.44.33-.88.89-.88h27.11c.44,0,.89.33.89.88v9.46c0,.44-.44.88-.89.88Z"/><line class="cls-2" x1="54.89" y1="32.95" x2="27.39" y2="32.95"/><line class="cls-2" x1="61.49" y1="37.35" x2="27.39" y2="37.35"/><line class="cls-2" x1="27.39" y1="78.05" x2="27.39" y2="68.15"/><line class="cls-2" x1="32.89" y1="78.05" x2="32.89" y2="60.45"/><line class="cls-2" x1="39.49" y1="78.05" x2="39.49" y2="61.55"/><line class="cls-2" x1="46.09" y1="78.05" x2="46.09" y2="54.95"/><line class="cls-2" x1="52.69" y1="78.05" x2="52.69" y2="61.55"/><line class="cls-2" x1="59.29" y1="78.05" x2="59.29" y2="57.15"/><line class="cls-2" x1="65.89" y1="78.05" x2="65.89" y2="51.65"/></g></svg>