<?xml version="1.0" encoding="UTF-8"?><svg id="Lager_2" xmlns="http://www.w3.org/2000/svg" viewBox="0 0 92.7 92.7"><defs><style>.cls-1{stroke-linejoin:round;}.cls-1,.cls-2,.cls-3,.cls-4{fill:none;}.cls-1,.cls-3{stroke-linecap:round;}.cls-1,.cls-3,.cls-4{stroke:#000;}.cls-2{stroke-width:0px;}.cls-3,.cls-4{stroke-miterlimit:10;}</style></defs><g id="_1"><rect class="cls-2" width="92.7" height="92.7"/><line class="cls-3" x1="47.17" y1="55.94" x2="26.47" y2="55.94"/><line class="cls-3" x1="47.17" y1="62.84" x2="26.47" y2="62.84"/><line class="cls-3" x1="47.17" y1="69.74" x2="26.47" y2="69.74"/><line class="cls-3" x1="18.99" y1="55.94" x2="13.82" y2="55.94"/><line class="cls-3" x1="18.99" y1="62.84" x2="13.82" y2="62.84"/><line class="cls-3" x1="18.99" y1="69.74" x2="13.82" y2="69.74"/><path class="cls-4" d="m54.89,51.06h31.47V8.09c0-.59-.48-1.07-1.07-1.07h-44.32c-.59,0-1.07.48-1.07,1.07v28.26h14.05c.51,0,.93.42.93.93v13.79h0Z"/><path class="cls-4" d="m39.9,15.07h46.46v-6.98c0-.59-.48-1.07-1.07-1.07h-44.32c-.59,0-1.07.48-1.07,1.07v6.98Z"/><path class="cls-4" d="m53.84,85.68H17.14c-.23,0-.46-.12-.7-.23l-9.76-9.66c-.12-.12-.23-.46-.23-.69v-37.95c0-.46.46-.92.93-.92h46.57c.46,0,.93.46.93.92v47.61c0,.58-.46.92-1.05.92Z"/><path class="cls-4" d="m53.84,48.07H7.27c-.46,0-.93-.46-.93-.92v-9.89c0-.46.46-.92.93-.92h46.57c.46,0,.93.46.93.92v9.77c.12.58-.35,1.03-.93,1.03Z"/><line class="cls-3" x1="79.37" y1="23.74" x2="58.67" y2="23.74"/><line class="cls-3" x1="79.37" y1="30.64" x2="58.67" y2="30.64"/><line class="cls-3" x1="79.37" y1="37.54" x2="63.27" y2="37.54"/><line class="cls-3" x1="51.19" y1="23.74" x2="46.02" y2="23.74"/><line class="cls-3" x1="51.19" y1="30.64" x2="46.02" y2="30.64"/><path class="cls-3" d="m16.76,84.77v-8.71"/><polyline class="cls-1" points="16.24 75.68 6.96 75.68 16.76 75.68 16.76 85.68"/></g></svg>