<?xml version="1.0" encoding="UTF-8"?><svg id="Lager_2" xmlns="http://www.w3.org/2000/svg" viewBox="0 0 92.7 92.7"><defs><style>.cls-1,.cls-2{fill:none;}.cls-1,.cls-3{stroke-width:0px;}.cls-4,.cls-5,.cls-2{stroke:#000;stroke-miterlimit:10;}.cls-5{fill:#b23838;stroke-linecap:round;}</style></defs><g id="_1"><rect class="cls-1" width="92.7" height="92.7"/><path class="cls-2" d="m20.73,51.75c0-14.97,0-29.95.03-44.92,0-.05.03-.5.4-.74.13-.09.3-.14.49-.14h46.1c.22,0,.44.11.67.22l14.33,14.08c.22.22.22.33.22.66v61.27c0,.44-.33.88-.89.88h-43.23"/><path class="cls-2" d="m67.75,21.9c-.22,0-.44-.11-.67-.22-.22-.22-.22-.33-.22-.66V6.83c0-.33.22-.66.56-.77.33-.11.67-.11.89.22l14.33,14.08c.22.22.33.66.22.88-.11.22-.44.55-.78.55l-14.33.11h0Z"/><line class="cls-5" x1="53.41" y1="24.1" x2="25.91" y2="24.1"/><line class="cls-5" x1="60.01" y1="28.5" x2="25.91" y2="28.5"/><line class="cls-5" x1="51.61" y1="76.2" x2="51.61" y2="53.1"/><line class="cls-5" x1="58.21" y1="76.2" x2="58.21" y2="59.7"/><line class="cls-5" x1="64.81" y1="76.2" x2="64.81" y2="55.3"/><line class="cls-5" x1="71.41" y1="76.2" x2="71.41" y2="49.8"/><circle class="cls-2" cx="27.91" cy="68.57" r="18.18"/><line class="cls-2" x1="27.86" y1="68.87" x2="37.2" y2="76.05"/><polygon class="cls-3" points="33.11 77.03 33.03 76.23 36.96 75.86 36.3 71.97 37.09 71.84 37.89 76.58 33.11 77.03"/><path class="cls-2" d="m27.97,68.67c-.16-4.88-.31-9.76-.47-14.63"/><polygon class="cls-3" points="30.86 56.58 30.29 57.15 27.51 54.35 24.92 57.32 24.32 56.79 27.48 53.17 30.86 56.58"/><circle class="cls-4" cx="27.97" cy="68.67" r="1"/></g></svg>