<?xml version="1.0" encoding="UTF-8"?><svg id="Lager_2" xmlns="http://www.w3.org/2000/svg" viewBox="0 0 92.7 92.7"><defs><style>.cls-1{stroke-width:0px;}.cls-1,.cls-2{fill:none;}.cls-2{stroke:#000;stroke-miterlimit:10;}</style></defs><g id="_1"><rect class="cls-1" width="92.7" height="92.7"/><path class="cls-2" d="m11.33,23.98v57.07c0,.4.4.8.8.8h68.45c.4,0,.8-.3.8-.7V22.75"/><path class="cls-2" d="m80.57,25.25H12.13c-.4,0-.8-.4-.8-.8v-12.8c0-.4.4-.8.8-.8h68.45c.4,0,.8.4.8.8v12.8c0,.5-.4.8-.8.8Z"/><path class="cls-2" d="m80.57,81.85H12.13c-.4,0-.8-.4-.8-.8v-7.1c0-.4.4-.8.8-.8h68.45c.4,0,.8.4.8.8v7.1c0,.5-.4.8-.8.8Z"/><line class="cls-2" x1="42.47" y1="46.35" x2="51.19" y2="54.35"/><line class="cls-2" x1="42.47" y1="54.35" x2="51.19" y2="46.35"/><line class="cls-2" x1="18.5" y1="59.36" x2="27.23" y2="67.36"/><line class="cls-2" x1="18.5" y1="67.36" x2="27.23" y2="59.36"/><line class="cls-2" x1="65.47" y1="59.35" x2="74.19" y2="67.35"/><line class="cls-2" x1="65.47" y1="67.35" x2="74.19" y2="59.35"/><line class="cls-2" x1="65.47" y1="33.35" x2="74.19" y2="41.35"/><line class="cls-2" x1="65.47" y1="41.35" x2="74.19" y2="33.35"/><rect class="cls-2" x="17.12" y="17.14" width="2.93" height="2.9"/><rect class="cls-2" x="23.12" y="17.14" width="2.93" height="2.9"/><rect class="cls-2" x="29.12" y="17.14" width="2.93" height="2.9"/><rect class="cls-2" x="35.12" y="17.14" width="2.93" height="2.9"/><rect class="cls-2" x="41.12" y="17.14" width="2.93" height="2.9"/><rect class="cls-2" x="18.77" y="33.91" width="7.61" height="7.54"/><rect class="cls-2" x="30.37" y="33.91" width="7.61" height="7.54"/><rect class="cls-2" x="41.97" y="33.91" width="7.61" height="7.54"/><rect class="cls-2" x="53.57" y="33.91" width="7.61" height="7.54"/><rect class="cls-2" x="18.77" y="46.91" width="7.61" height="7.54"/><rect class="cls-2" x="30.37" y="46.91" width="7.61" height="7.54"/><rect class="cls-2" x="30.37" y="59.91" width="7.61" height="7.54"/><rect class="cls-2" x="41.97" y="59.91" width="7.61" height="7.54"/><rect class="cls-2" x="53.57" y="59.91" width="7.61" height="7.54"/><rect class="cls-2" x="53.57" y="46.91" width="7.61" height="7.54"/><rect class="cls-2" x="65.57" y="46.91" width="7.61" height="7.54"/></g></svg>