<svg xmlns="http://www.w3.org/2000/svg" viewBox="0 0 148.694 41.583">
  <defs>
    <style>
      .cls-1 {
        fill: #2b76b8;
      }

      .cls-2 {
        fill: #0058a1;
      }
    </style>
  </defs>
  <g id="Group_525" data-name="Group 525" transform="translate(-0.012 0.109)">
    <path id="Path_1028" data-name="Path 1028" class="cls-1" d="M72.917,17.935s.3-.173.6-1.3a8.7,8.7,0,0,0-.216-5.224A15.132,15.132,0,0,0,71.32,9.04,20.912,20.912,0,0,0,66.7,5.5s2.5,2.418,2.159,5.354a5.955,5.955,0,0,1-.691,2.332A20.221,20.221,0,0,1,70.715,15.3,13.221,13.221,0,0,1,72.917,17.935Z" transform="translate(-37.894 -3.187)"/>
    <path id="Path_1029" data-name="Path 1029" class="cls-1" d="M34.076,2.572s1.511-.13,2.2-.13a32.779,32.779,0,0,1,3.281.086s-.432-.864-2.547-1.77a14.006,14.006,0,0,0-4.4-.864,17.105,17.105,0,0,0-6.649,1.338c-1.425.6-2.159.993-2.159.993s.259-.13.691-.3a16.025,16.025,0,0,1,3.627-.864C32.565.456,34.076,2.572,34.076,2.572Z" transform="translate(-13.517)"/>
    <path id="Path_1030" data-name="Path 1030" class="cls-1" d="M17.066,20.663s3.713.864,9.024-1.468c6.692-2.979,7.124-6.995,7.124-6.995a19.961,19.961,0,0,1,6.261,2.547,19.3,19.3,0,0,1,3.756,3.2s-.648,7.383-11.14,12.176a30.611,30.611,0,0,1-15.846,2.634A30.794,30.794,0,0,1,15.9,28.78,36.2,36.2,0,0,1,17.066,20.663Z" transform="translate(-9.028 -6.994)"/>
    <path id="Path_1031" data-name="Path 1031" class="cls-1" d="M.223,37a7.143,7.143,0,0,0,3.109,5.008c2.332,1.382,7.254,1.943,12.564.864a22.572,22.572,0,0,0,11.14-5.656A51.557,51.557,0,0,1,30.749,42.7a29.9,29.9,0,0,1,2.159,5.052s-3.584,3.756-10.88,5.958a26.153,26.153,0,0,1-10.1,1.166,15.041,15.041,0,0,1-7.772-2.332A21.684,21.684,0,0,1,1,46.672,22.532,22.532,0,0,1,.223,37Z" transform="translate(0 -21.087)"/>
    <path id="Path_1032" data-name="Path 1032" class="cls-1" d="M40.2,46.745a13.068,13.068,0,0,0,1.338,2.763,15.54,15.54,0,0,0,2.418,3.325,30.345,30.345,0,0,0,9.672-3.972,20.351,20.351,0,0,0,5.958-6.174,19.175,19.175,0,0,0,1.813-11.7A13.161,13.161,0,0,0,60.191,27.1,14.109,14.109,0,0,1,54.88,39.923,36.533,36.533,0,0,1,40.2,46.745Z" transform="translate(-22.836 -15.461)"/>
    <path id="Path_1033" data-name="Path 1033" class="cls-1" d="M41.95,74.6A32.044,32.044,0,0,1,29.3,79.177,18.694,18.694,0,0,1,19.8,78.1s5.527,3.713,11.787,3.325a22.046,22.046,0,0,0,10.146-3.454,5.83,5.83,0,0,0,.475-.389,10.63,10.63,0,0,0,0-1.425A5.382,5.382,0,0,0,41.95,74.6Z" transform="translate(-11.244 -42.452)"/>
    <path id="Path_1034" data-name="Path 1034" class="cls-1" d="M12.441,16.01c-1.6.043-3.972-.13-4.1-2.806-.13-2.116,2.2-4.4,2.2-4.4a31.428,31.428,0,0,0-2.72,2.375,19.934,19.934,0,0,0-2.763,3.972,2.71,2.71,0,0,0-.216,1.77,5.621,5.621,0,0,0,3.066,4.015c4.577,2.2,9.585.216,9.585.216l-1.511-5.7A14.77,14.77,0,0,1,12.441,16.01Z" transform="translate(-2.719 -5.062)"/>
    <path id="Path_1035" data-name="Path 1035" class="cls-2" d="M70.1,20.686a8.234,8.234,0,0,0,.432-1.036c.13-.475.216-.95.216-.95s1.252.907,1.813,1.425c.6.561,1.511,1.511,1.511,1.511a8.657,8.657,0,0,1-.216,1.079c-.086.345-.173.518-.3.95,0,0-.993-.993-1.727-1.641C71.093,21.463,70.1,20.686,70.1,20.686Z" transform="translate(-39.826 -10.688)"/>
    <path id="Path_1036" data-name="Path 1036" class="cls-2" d="M17.2,34.268s.216-1.209.345-1.813.259-1.166.259-1.166a11.844,11.844,0,0,0,2.85.13,25.615,25.615,0,0,0,3.109-.518l.777,2.85a15.915,15.915,0,0,1-3.843.777A13.557,13.557,0,0,1,17.2,34.268Z" transform="translate(-9.767 -17.621)"/>
    <path id="Path_1037" data-name="Path 1037" class="cls-2" d="M16.1,43.658a26.167,26.167,0,0,0,10.1-.691A22.183,22.183,0,0,0,36.22,37.7s.691.864,1.036,1.338,1.166,1.684,1.166,1.684a28.131,28.131,0,0,1-11.14,5.656c-6.951,1.77-10.88.82-10.88.82s-.173-1.425-.216-1.943A13.384,13.384,0,0,1,16.1,43.658Z" transform="translate(-9.142 -21.485)"/>
    <path id="Path_1038" data-name="Path 1038" class="cls-2" d="M41.236,65.753a16.231,16.231,0,0,1-.777-1.554,5.329,5.329,0,0,0-.259-.734,33.754,33.754,0,0,0,7.513-2.418,30.146,30.146,0,0,0,7.21-4.447s.13.345.389.95a13.022,13.022,0,0,1,.475,1.382,26,26,0,0,1-6.433,4.188A35.232,35.232,0,0,1,41.236,65.753Z" transform="translate(-22.836 -32.224)"/>
    <path id="Path_1039" data-name="Path 1039" class="cls-2" d="M46.9,78.831a45.7,45.7,0,0,0,5.052-1.511,28.741,28.741,0,0,0,5.4-2.72,2.485,2.485,0,0,1,.13.518l.086.6a23.527,23.527,0,0,1-5.052,2.634,32.4,32.4,0,0,1-4.749,1.468,2.538,2.538,0,0,1-.432-.475A2.206,2.206,0,0,0,46.9,78.831Z" transform="translate(-26.643 -42.452)"/>
    <g id="Group_525-2" data-name="Group 525" transform="translate(47.199 3.565)">
      <path id="Path_1040" data-name="Path 1040" class="cls-2" d="M115.992,38.637a14.236,14.236,0,0,1-6.692-1.468V8.5h4.577v9.8a9.119,9.119,0,0,1,3.843-.777c4.965,0,8.16,3.843,8.16,9.974C125.923,34.32,122.382,38.637,115.992,38.637Zm.561-18.393a5.821,5.821,0,0,0-2.677.561V35.4a6.435,6.435,0,0,0,2.332.389c3.584,0,5.095-3.152,5.095-7.9C121.3,23.05,119.662,20.244,116.554,20.244Z" transform="translate(-109.3 -8.457)"/>
      <path id="Path_1041" data-name="Path 1041" class="cls-2" d="M160.134,41.405c.345,3.54,2.332,5.7,5.7,5.7a11.625,11.625,0,0,0,5.052-1.166l1.079,2.936a15.587,15.587,0,0,1-6.779,1.468c-6.174,0-9.585-4.274-9.585-10.665S158.838,29.1,164.365,29.1c5.311,0,8.29,3.5,8.29,9.844v.6Zm4.1-9.542c-2.936,0-4.4,2.763-4.4,6.779v.432l8.419-1.338C168.251,34.022,167,31.863,164.235,31.863Z" transform="translate(-135.609 -20.162)"/>
      <path id="Path_1042" data-name="Path 1042" class="cls-2" d="M216.385,50.068V36.079c0-2.634-1.079-3.929-3.886-3.929a7.977,7.977,0,0,0-2.979.518v17.4H204.9v-19.3a19.7,19.7,0,0,1,7.6-1.468c5.958,0,8.506,2.5,8.506,6.865V50.111h-4.62Z" transform="translate(-163.623 -20.276)"/>
      <path id="Path_1043" data-name="Path 1043" class="cls-2" d="M255.891,15.863a2.5,2.5,0,0,1-2.591-2.332,2.47,2.47,0,0,1,2.591-2.332,2.528,2.528,0,0,1,2.591,2.332A2.442,2.442,0,0,1,255.891,15.863ZM253.6,39.783V19.36h4.62V39.783Z" transform="translate(-191.126 -9.991)"/>
      <path id="Path_1044" data-name="Path 1044" class="cls-2" d="M280.708,20.705V38.192h-4.62V20.705H273.8V17.769h2.288v-2.5c0-4.231,2.461-6.865,6.822-6.865a7.422,7.422,0,0,1,1.123.086v2.936h-.389c-2.072,0-2.936,1.382-2.936,3.756v2.634h3.325v2.936h-3.325Z" transform="translate(-202.775 -8.4)"/>
      <path id="Path_1045" data-name="Path 1045" class="cls-2" d="M311.433,58.583h-4.879l3.411-8.16L303.1,30h4.965l3.54,13.471a19.263,19.263,0,0,1,.475,2.893h.086a22.788,22.788,0,0,1,.561-2.893L316.528,30h4.4Z" transform="translate(-219.424 -20.674)"/>
    </g>
  </g>
</svg>
