<svg id="Group_1" data-name="Group 1" xmlns="http://www.w3.org/2000/svg" width="130.611" height="33.004" viewBox="0 0 130.611 33.004">
  <g id="Group_4" data-name="Group 4">
    <path id="Path_9" data-name="Path 9" d="M15.679,26a8.189,8.189,0,0,1-1.4,4.937c-.938,1.292-2.466,1.935-4.6,1.935H.968a.948.948,0,0,1-.629-.339A.938.938,0,0,1,0,31.9V1.756a.961.961,0,0,1,.388-.727A1.186,1.186,0,0,1,1.164.69H7.746A9.028,9.028,0,0,1,13.5,2.409q2.181,1.717,2.176,5.541ZM9.485,7.562a1.674,1.674,0,0,0-.6-1.307,1.97,1.97,0,0,0-1.331-.53,1.606,1.606,0,0,0-1.017.339,1.159,1.159,0,0,0-.437.968V26.1a3.327,3.327,0,0,0,.241,1.208.945.945,0,0,0,.968.629,1.75,1.75,0,0,0,1.744-.894,4.55,4.55,0,0,0,.437-2.009Z" transform="translate(0 -0.351)" fill=""/>
    <path id="Path_10" data-name="Path 10" d="M51.337,32.579a.79.79,0,0,1-.629.29H39.288a.793.793,0,0,1-.7-.437,1.592,1.592,0,0,1-.265-.82V1.947a1.308,1.308,0,0,1,.314-.894A1.068,1.068,0,0,1,39.479.69H50.222a1.133,1.133,0,0,1,.752.265.871.871,0,0,1,.314.7V5.091a1.023,1.023,0,0,1-.241.678.783.783,0,0,1-.629.29h-4.74a1.412,1.412,0,0,0-1.356,1.356V12.16a1.2,1.2,0,0,0,1.356,1.356H49.74c.643,0,.968.354.968,1.066v3.1a1.262,1.262,0,0,1-.265.845.978.978,0,0,1-.8.314H45.29a.778.778,0,0,0-.727.481,1.978,1.978,0,0,0-.241.869v6.1c0,.9.418,1.356,1.257,1.356h5.035a.85.85,0,0,1,.7.339,1.155,1.155,0,0,1,.265.727V31.9a1.018,1.018,0,0,1-.246.678" transform="translate(-19.497 -0.351)" fill=""/>
    <path id="Path_11" data-name="Path 11" d="M85.919,26a8.189,8.189,0,0,1-1.4,4.937c-.938,1.292-2.466,1.935-4.6,1.935H71.208a1.245,1.245,0,0,1-.968-.968V1.756a.961.961,0,0,1,.388-.727A1.177,1.177,0,0,1,71.4.69h6.577a9.028,9.028,0,0,1,5.757,1.719q2.181,1.717,2.176,5.541V26ZM79.725,7.562a1.674,1.674,0,0,0-.6-1.307,1.97,1.97,0,0,0-1.331-.53,1.606,1.606,0,0,0-1.017.339,1.159,1.159,0,0,0-.437.968V26.1a3.327,3.327,0,0,0,.241,1.208.945.945,0,0,0,.968.629,1.75,1.75,0,0,0,1.744-.894,4.551,4.551,0,0,0,.437-2.009Z" transform="translate(-35.738 -0.351)" fill=""/>
    <path id="Path_12" data-name="Path 12" d="M114.615,32.505a.818.818,0,0,1-.727.363h-4.16a.85.85,0,0,1-.7-.339,1.155,1.155,0,0,1-.265-.727V2a1.591,1.591,0,0,1,.265-.919.9.9,0,0,1,.8-.388H113.7a1.061,1.061,0,0,1,.845.363,1.308,1.308,0,0,1,.314.894V31.709a1.392,1.392,0,0,1-.241.8" transform="translate(-55.337 -0.351)" fill=""/>
    <path id="Path_13" data-name="Path 13" d="M143.454,26.132a4.79,4.79,0,0,1-.2,1.356,7.565,7.565,0,0,1-3.434,4.45A8.393,8.393,0,0,1,135.615,33a8.909,8.909,0,0,1-2.9-.481,7.74,7.74,0,0,1-2.5-1.4,7.343,7.343,0,0,1-1.768-2.2,6.058,6.058,0,0,1-.678-2.878V8.419a9.868,9.868,0,0,1,.555-3.34,7.438,7.438,0,0,1,1.621-2.662,7.827,7.827,0,0,1,2.54-1.763A8.087,8.087,0,0,1,135.8,0a9.079,9.079,0,0,1,2.878.457,7.758,7.758,0,0,1,2.446,1.331A6.43,6.43,0,0,1,142.82,3.92a6.267,6.267,0,0,1,.629,2.854V8.807a.948.948,0,0,1-.339.629.948.948,0,0,1-.629.339h-4.161a.762.762,0,0,1-.825-.752,16.086,16.086,0,0,1-.118-1.621,4.979,4.979,0,0,0-.314-1.621c-.192-.5-.678-.752-1.449-.752a1.484,1.484,0,0,0-1.429.776,3.451,3.451,0,0,0-.413,1.646V24.486c0,.354.01.732.025,1.14a3.81,3.81,0,0,0,.2,1.115,2.188,2.188,0,0,0,.53.869,1.483,1.483,0,0,0,1.09.363,1.514,1.514,0,0,0,1.356-.776,2.88,2.88,0,0,0,.481-1.547c0-.192,0-.467-.025-.82a7.042,7.042,0,0,1,.025-1.066,2.772,2.772,0,0,1,.241-.943.651.651,0,0,1,.629-.413h4.161a.729.729,0,0,1,.7.462,3.4,3.4,0,0,1,.29,1.09,6.726,6.726,0,0,1,.025,1.257c-.029.413-.044.722-.044.914" transform="translate(-65.009 0)" fill=""/>
    <path id="Path_14" data-name="Path 14" d="M178.983,32a.691.691,0,0,1-.216.629.926.926,0,0,1-.653.241h-4.357a.887.887,0,0,1-.943-.8,11.5,11.5,0,0,1-.221-1.768,9.381,9.381,0,0,0-.241-1.763.947.947,0,0,0-1.017-.8H169.4a.978.978,0,0,0-1.066.8,8.365,8.365,0,0,0-.216,1.763,9.586,9.586,0,0,1-.2,1.768.887.887,0,0,1-.943.8h-4.16a.7.7,0,0,1-.629-.29.984.984,0,0,1-.147-.678v-.192q.243-3.964.869-7.889t1.066-7.84q.339-3,.771-5.953t1.066-5.9a4.428,4.428,0,0,1,.123-.7c.079-.368.187-.756.314-1.159s.255-.766.388-1.09.241-.481.339-.481h6.774c.1,0,.211.172.339.506s.251.717.363,1.135.211.82.29,1.208a7.183,7.183,0,0,0,.172.727q.626,2.9,1.09,5.855t.845,5.953q.531,3.971,1.213,7.889a72.145,72.145,0,0,1,.919,7.938Zm-7.26-10.792L170.466,7.076,169.012,21.4v.1a.618.618,0,0,0,.462.7,2.878,2.878,0,0,0,.894.167,2.17,2.17,0,0,0,.968-.216.786.786,0,0,0,.388-.845Z" transform="translate(-82.442 -0.351)" fill=""/>
    <path id="Path_15" data-name="Path 15" d="M216.454,32.1a.666.666,0,0,1-.265.58,1.006,1.006,0,0,1-.6.192h-4.838a2.5,2.5,0,0,1-.314-.869c-.079-.388-.147-.791-.192-1.208s-.088-.83-.123-1.233-.049-.717-.049-.943V22.033a3.13,3.13,0,0,0-.58-1.744,1.783,1.783,0,0,0-1.547-.869,1.722,1.722,0,0,0-.992.314.973.973,0,0,0-.462.845V31.9a.829.829,0,0,1-.339.752,1.471,1.471,0,0,1-.82.216h-3.679a1.024,1.024,0,0,1-1.159-1.159V1.849A1.068,1.068,0,0,1,200.853,1a1.308,1.308,0,0,1,.894-.314h5.806q4.553,0,6.533,2.373t1.984,6.774a9.56,9.56,0,0,1-.776,3.871,7.02,7.02,0,0,1-2.515,3,6.72,6.72,0,0,1,2.589,2.928,9.875,9.875,0,0,1,.7,3.846v4.937c0,.418.015.82.049,1.208a11.507,11.507,0,0,0,.147,1.159c.029.226.074.442.123.653a3.648,3.648,0,0,1,.064.658M210.26,9.861a10.832,10.832,0,0,0-.1-1.37,4.254,4.254,0,0,0-.388-1.346,2.988,2.988,0,0,0-.8-1.012,2.07,2.07,0,0,0-1.331-.408.97.97,0,0,0-.727.383,1.165,1.165,0,0,0-.339.771V13.23a1.013,1.013,0,0,0,.388.84,1.344,1.344,0,0,0,.869.314,1.651,1.651,0,0,0,1.257-.506,3.255,3.255,0,0,0,.727-1.2,7.111,7.111,0,0,0,.339-1.469,11.051,11.051,0,0,0,.1-1.346" transform="translate(-102.009 -0.351)" fill=""/>
    <path id="Path_16" data-name="Path 16" d="M251.917,32.579a.79.79,0,0,1-.629.29h-11.42a.793.793,0,0,1-.7-.437,1.592,1.592,0,0,1-.265-.82V1.947a1.308,1.308,0,0,1,.314-.894,1.071,1.071,0,0,1,.85-.363h10.743a1.112,1.112,0,0,1,.747.265.871.871,0,0,1,.314.7V5.091a1.023,1.023,0,0,1-.241.678.79.79,0,0,1-.629.29h-4.74A1.412,1.412,0,0,0,244.9,7.415V12.16a1.2,1.2,0,0,0,1.356,1.356h4.062c.643,0,.968.354.968,1.066v3.1a1.262,1.262,0,0,1-.265.845.978.978,0,0,1-.8.314H245.87a.783.783,0,0,0-.727.481,1.978,1.978,0,0,0-.241.869v6.1c0,.9.417,1.356,1.257,1.356h5.035a.85.85,0,0,1,.7.339,1.155,1.155,0,0,1,.265.727V31.9a1.018,1.018,0,0,1-.246.678" transform="translate(-121.552 -0.351)" fill=""/>
  </g>
</svg>
