<?xml version="1.0" encoding="UTF-8"?> <svg xmlns="http://www.w3.org/2000/svg" width="232" height="25" viewBox="0 0 232 25" fill="none"><path fill-rule="evenodd" clip-rule="evenodd" d="M36.5869 0.990173C37.6859 0.990173 38.7665 1.22005 39.8244 1.67865C40.8845 2.13725 41.8029 2.78434 42.5809 3.62108C43.3588 4.45783 43.9825 5.50376 44.4509 6.75772C44.9204 8.01283 45.1546 9.43575 45.1546 11.0276V24.2213H39.8049V12.4437C39.8049 10.4208 39.3766 8.9036 38.5187 7.891C37.6596 6.8784 36.6006 6.37383 35.3406 6.37383C34.1069 6.37383 33.0274 6.81174 32.102 7.68871C31.1779 8.56568 30.7141 9.70471 30.7141 11.1081V24.2213H25.3644V1.7591H30.312V3.98544C32.0552 1.98898 34.148 0.990173 36.5869 0.990173ZM11.5668 1.07016C13.5237 1.07016 15.388 1.56324 17.1575 2.54825C18.927 3.53211 20.3618 4.91481 21.4619 6.69518C22.562 8.47671 23.1115 10.5272 23.1115 12.8478C23.1115 13.5765 23.0441 14.4121 22.9093 15.3568H5.61285C5.935 16.6798 6.65925 17.7246 7.78561 18.4935C8.91198 19.2624 10.1994 19.6739 11.6468 19.7279C13.6048 19.6463 15.2006 18.9854 16.4332 17.7441H22.3472C21.5693 19.8222 20.2624 21.5221 18.4244 22.8439C17.2352 23.699 15.9009 24.2909 14.425 24.6277C13.8035 24.7978 13.1672 24.9104 12.5127 24.9484C10.1 25.0564 7.94097 24.5369 6.03667 23.3898C4.13236 22.2439 2.66329 20.7669 1.6306 18.9578C0.600199 17.151 0.0564381 15.4247 0.00160508 13.7788C-0.0246691 11.8363 0.271201 10.0686 0.88693 8.47671C0.977176 8.24339 1.07542 8.01581 1.17709 7.79283C1.20565 7.70088 1.23535 7.61583 1.26962 7.54572C2.1538 5.71132 3.48236 4.17231 5.25187 2.93214C7.02024 1.69082 9.12674 1.07016 11.5668 1.07016ZM76.9534 2.10345C75.5723 1.41497 74.0907 1.07131 72.5085 1.07131C71.0338 1.07131 69.6664 1.36785 68.4063 1.96207C67.1452 2.55515 66.1262 3.41948 65.3483 4.55161C64.6514 3.39189 63.7067 2.52182 62.5129 1.94023C61.3192 1.36095 60.0386 1.07131 58.6723 1.07131C57.4386 1.07131 56.3042 1.32072 55.2727 1.81955C54.24 2.31838 53.4952 3.04133 53.0394 3.98497V1.75978H48.173V24.2219H53.5226V11.7156C53.5226 9.9617 53.9316 8.63302 54.7495 7.72962C55.5674 6.82506 56.5658 6.37336 57.7459 6.37336C58.9271 6.37336 59.9655 6.81127 60.8634 7.68824C61.7613 8.56521 62.2114 9.75941 62.2114 11.2708V24.2219H67.561V11.634C67.561 10.0157 68.0305 8.72038 68.9684 7.74916C69.9074 6.77794 70.9801 6.2929 72.1875 6.2929C72.9643 6.2929 73.6486 6.4745 74.2381 6.83886C74.8287 7.20321 75.3039 7.74226 75.6672 8.45717C76.0293 9.17208 76.2098 10.0559 76.2098 11.1076V24.2219H81.6405V10.1364C81.6405 8.27557 81.2042 6.64231 80.3325 5.24008C79.4609 3.8367 78.3346 2.79192 76.9534 2.10345ZM99.3594 2.16365C100.741 2.83948 101.739 3.75553 102.357 4.91639V1.75907H107.223V24.2212H102.357V21.1455C101.606 22.2248 100.486 23.1293 98.9973 23.8569C97.5088 24.5856 96.0683 24.9499 94.6735 24.9499C92.5281 24.9499 90.5976 24.4109 88.8806 23.3316C87.1648 22.2512 85.8511 20.7869 84.9395 18.9399C84.0267 17.0917 83.5984 15.0343 83.6509 12.7677C83.732 10.2311 84.3089 8.08636 85.3816 6.33242C86.4542 4.57848 87.8354 3.27739 89.5238 2.42685C91.2144 1.57747 92.9565 1.1522 94.7546 1.1522C96.4441 1.1522 97.9783 1.48897 99.3594 2.16365ZM145.318 19.6476C143.656 19.5936 142.187 19.0212 140.913 17.927C139.639 16.8351 138.909 15.3444 138.722 13.456C138.587 11.702 139.062 10.0699 140.149 8.55849C141.235 7.04822 142.757 6.29193 144.715 6.29193C145.867 6.29193 146.914 6.47468 147.852 6.83788C148.791 7.20224 149.595 7.99185 150.267 9.20559H156.339C155.991 7.93783 155.328 6.67008 154.348 5.40232C153.37 4.13341 152.09 3.08059 150.508 2.245C148.926 1.40825 147.169 0.991031 145.238 0.991031C143.656 0.991031 142.16 1.28757 140.752 1.88064C139.345 2.47487 138.064 3.32426 136.911 4.42995C135.759 5.5368 134.872 6.88616 134.255 8.47804C133.64 10.0699 133.345 11.8377 133.371 13.7801C133.425 15.426 133.969 17.1523 135 18.9592C136.033 20.7683 137.502 22.2452 139.405 23.3911C141.309 24.5382 143.468 25.0577 145.881 24.9497C148.188 24.8152 150.353 23.9923 152.378 22.482C154.402 20.9694 155.723 19.0948 156.339 16.8547H150.267C148.926 18.7982 147.276 19.7292 145.318 19.6476ZM123.395 6.83842C122.456 6.47407 121.411 6.29247 120.257 6.29247C118.299 6.29247 116.777 7.04876 115.691 8.55903C114.606 10.0705 114.131 11.7026 114.263 13.4554C114.452 15.3449 115.182 16.8345 116.455 17.9276C117.729 19.0206 119.199 19.5941 120.86 19.6482C122.818 19.7286 124.468 18.7976 125.808 16.8552H131.883C131.266 19.0953 129.944 20.9699 127.92 22.4814C125.896 23.9916 123.73 24.8157 121.425 24.9491C119.011 25.0583 116.852 24.5387 114.947 23.3917C113.044 22.2446 111.575 20.7677 110.544 18.9597C109.511 17.1517 108.967 15.4254 108.913 13.7795C108.887 11.837 109.183 10.0705 109.799 8.47742C110.416 6.88669 111.301 5.53733 112.454 4.43049C113.607 3.32479 114.888 2.47426 116.295 1.88118C117.703 1.28811 119.199 0.990418 120.78 0.990418C122.711 0.990418 124.468 1.40879 126.05 2.24553C127.632 3.08113 128.913 4.13395 129.89 5.40286C130.871 6.67061 131.533 7.93837 131.883 9.20613H125.808C125.137 7.99239 124.334 7.20277 123.395 6.83842ZM5.5329 10.6227C5.90873 9.48942 6.61242 8.49177 7.64511 7.62859C8.6778 6.76426 10.0109 6.31946 11.6468 6.29187C13.2027 6.29187 14.5301 6.74357 15.629 7.64813C16.7291 8.55268 17.4534 9.54344 17.8018 10.6227H5.5329ZM95.7599 19.7294C97.6642 19.6754 99.2121 19.0145 100.406 17.7456C101.6 16.4778 102.196 14.8997 102.196 13.0102C102.196 10.9597 101.552 9.34138 100.264 8.15408C98.9779 6.96678 97.4231 6.37256 95.5988 6.37256C93.7745 6.37256 92.2197 6.98747 90.9334 8.215C89.6449 9.44138 89.0017 11.0677 89.0017 13.0906C89.0017 15.1147 89.6985 16.7272 91.0934 17.9272C92.487 19.1283 94.0429 19.7294 95.7599 19.7294Z" fill="#000E33"></path><path d="M176.501 0.978535C176.98 0.978535 177.382 1.0403 177.706 1.16383C178.038 1.28735 178.374 1.48809 178.713 1.76602L178.111 2.47244C177.625 2.0787 177.111 1.88183 176.571 1.88183C175.907 1.88183 175.37 2.1366 174.961 2.64616C174.56 3.15571 174.359 3.97408 174.359 5.10126C174.359 6.19757 174.56 7.00822 174.961 7.53321C175.363 8.05048 175.895 8.30912 176.559 8.30912C176.899 8.30912 177.196 8.25121 177.451 8.13541C177.706 8.0196 177.976 7.85747 178.262 7.64902L178.806 8.34386C178.559 8.59863 178.242 8.81095 177.856 8.9808C177.47 9.15065 177.026 9.23557 176.525 9.23557C175.876 9.23557 175.297 9.0773 174.788 8.76076C174.286 8.4365 173.892 7.96556 173.606 7.34792C173.328 6.72256 173.189 5.97368 173.189 5.10126C173.189 4.22885 173.336 3.48383 173.629 2.86619C173.923 2.24083 174.32 1.76988 174.822 1.45334C175.324 1.1368 175.884 0.978535 176.501 0.978535Z" fill="#000E33"></path><path d="M182.2 2.85461C183.057 2.85461 183.721 3.14027 184.192 3.71158C184.67 4.28289 184.91 5.0588 184.91 6.0393C184.91 6.67238 184.801 7.23211 184.585 7.7185C184.369 8.19717 184.056 8.57161 183.647 8.84183C183.238 9.10432 182.752 9.23557 182.188 9.23557C181.331 9.23557 180.663 8.94991 180.185 8.3786C179.706 7.80729 179.467 7.03138 179.467 6.05088C179.467 5.4178 179.575 4.86193 179.791 4.38326C180.007 3.89687 180.32 3.52243 180.729 3.25993C181.138 2.98972 181.628 2.85461 182.2 2.85461ZM182.2 3.71158C181.142 3.71158 180.613 4.49135 180.613 6.05088C180.613 7.60269 181.138 8.3786 182.188 8.3786C183.238 8.3786 183.763 7.59883 183.763 6.0393C183.763 4.48749 183.242 3.71158 182.2 3.71158Z" fill="#000E33"></path><path d="M189.542 2.85461C190.097 2.85461 190.53 3.0206 190.839 3.35258C191.155 3.68456 191.313 4.14007 191.313 4.7191V9.0966H190.248V4.86965C190.248 4.4373 190.167 4.13234 190.005 3.95477C189.843 3.7772 189.603 3.68842 189.287 3.68842C188.963 3.68842 188.677 3.78106 188.43 3.96635C188.183 4.15165 187.951 4.418 187.735 4.76542V9.0966H186.67V2.99358H187.584L187.677 3.89687C187.893 3.57261 188.16 3.31784 188.476 3.13254C188.8 2.94725 189.156 2.85461 189.542 2.85461Z" fill="#000E33"></path><path d="M196.327 2.85461C196.883 2.85461 197.315 3.0206 197.624 3.35258C197.941 3.68456 198.099 4.14007 198.099 4.7191V9.0966H197.034V4.86965C197.034 4.4373 196.953 4.13234 196.79 3.95477C196.628 3.7772 196.389 3.68842 196.072 3.68842C195.748 3.68842 195.462 3.78106 195.215 3.96635C194.968 4.15165 194.737 4.418 194.521 4.76542V9.0966H193.455V2.99358H194.37L194.463 3.89687C194.679 3.57261 194.945 3.31784 195.262 3.13254C195.586 2.94725 195.941 2.85461 196.327 2.85461Z" fill="#000E33"></path><path d="M204.85 5.86559C204.85 6.04316 204.842 6.22459 204.827 6.40988H200.936C200.982 7.08156 201.152 7.57567 201.445 7.89221C201.738 8.20875 202.117 8.36702 202.58 8.36702C202.873 8.36702 203.144 8.32456 203.391 8.23963C203.638 8.15471 203.896 8.0196 204.167 7.83431L204.63 8.47125C203.981 8.9808 203.271 9.23557 202.499 9.23557C201.65 9.23557 200.986 8.95764 200.507 8.40176C200.036 7.84589 199.801 7.08156 199.801 6.10878C199.801 5.47571 199.901 4.91597 200.102 4.42958C200.31 3.93547 200.604 3.54945 200.982 3.27151C201.368 2.99358 201.82 2.85461 202.337 2.85461C203.147 2.85461 203.769 3.12096 204.201 3.65368C204.634 4.18639 204.85 4.92369 204.85 5.86559ZM203.796 5.55291C203.796 4.95071 203.676 4.49135 203.437 4.17481C203.198 3.85827 202.839 3.7 202.36 3.7C201.488 3.7 201.013 4.3408 200.936 5.62239H203.796V5.55291Z" fill="#000E33"></path><path d="M208.775 2.85461C209.138 2.85461 209.47 2.90865 209.771 3.01674C210.072 3.1171 210.361 3.28309 210.639 3.51471L210.13 4.18639C209.914 4.03198 209.701 3.92003 209.493 3.85055C209.292 3.77334 209.068 3.73474 208.821 3.73474C208.327 3.73474 207.941 3.93161 207.663 4.32536C207.393 4.7191 207.258 5.302 207.258 6.07404C207.258 6.84609 207.393 7.4174 207.663 7.78799C207.933 8.15085 208.319 8.33228 208.821 8.33228C209.06 8.33228 209.28 8.29754 209.481 8.22805C209.682 8.15085 209.906 8.03118 210.153 7.86905L210.639 8.56389C210.083 9.01168 209.462 9.23557 208.775 9.23557C207.949 9.23557 207.296 8.95764 206.818 8.40176C206.347 7.84589 206.111 7.0777 206.111 6.0972C206.111 5.44868 206.219 4.88123 206.435 4.39484C206.652 3.90845 206.957 3.53015 207.35 3.25993C207.752 2.98972 208.227 2.85461 208.775 2.85461Z" fill="#000E33"></path><path d="M215.162 8.81867C214.761 9.0966 214.305 9.23557 213.795 9.23557C213.278 9.23557 212.873 9.08888 212.58 8.79551C212.294 8.49441 212.151 8.06206 212.151 7.49847V3.81581H211.086V2.99358H212.151V1.61547L213.216 1.48809V2.99358H214.664L214.548 3.81581H213.216V7.45214C213.216 7.76868 213.27 8.0003 213.379 8.14699C213.494 8.28595 213.684 8.35544 213.946 8.35544C214.185 8.35544 214.456 8.27437 214.757 8.11224L215.162 8.81867Z" fill="#000E33"></path><path d="M217.331 2.99358V9.0966H216.266V2.99358H217.331ZM216.787 0.0636597C217.011 0.0636597 217.192 0.133144 217.331 0.272112C217.47 0.411081 217.54 0.584791 217.54 0.793244C217.54 1.0017 217.47 1.17541 217.331 1.31437C217.192 1.44562 217.011 1.51125 216.787 1.51125C216.571 1.51125 216.393 1.44562 216.254 1.31437C216.115 1.17541 216.046 1.0017 216.046 0.793244C216.046 0.584791 216.115 0.411081 216.254 0.272112C216.393 0.133144 216.571 0.0636597 216.787 0.0636597Z" fill="#000E33"></path><path d="M222.406 2.85461C222.962 2.85461 223.395 3.0206 223.703 3.35258C224.02 3.68456 224.178 4.14007 224.178 4.7191V9.0966H223.113V4.86965C223.113 4.4373 223.032 4.13234 222.87 3.95477C222.707 3.7772 222.468 3.68842 222.152 3.68842C221.827 3.68842 221.542 3.78106 221.295 3.96635C221.048 4.15165 220.816 4.418 220.6 4.76542V9.0966H219.534V2.99358H220.449L220.542 3.89687C220.758 3.57261 221.024 3.31784 221.341 3.13254C221.665 2.94725 222.02 2.85461 222.406 2.85461Z" fill="#000E33"></path><path d="M231.242 3.27151C231.01 3.34872 230.755 3.3989 230.477 3.42206C230.199 3.44522 229.86 3.4568 229.458 3.4568C230.176 3.78106 230.535 4.29447 230.535 4.99704C230.535 5.60695 230.327 6.10492 229.91 6.49095C229.493 6.87697 228.926 7.06998 228.208 7.06998C227.93 7.06998 227.671 7.03138 227.432 6.95418C227.339 7.01594 227.266 7.10086 227.212 7.20895C227.158 7.30932 227.131 7.41354 227.131 7.52163C227.131 7.85361 227.397 8.0196 227.93 8.0196H228.902C229.312 8.0196 229.674 8.09294 229.991 8.23963C230.308 8.38632 230.551 8.58705 230.721 8.84183C230.898 9.0966 230.987 9.38612 230.987 9.71038C230.987 10.3049 230.744 10.7604 230.257 11.0769C229.771 11.4012 229.061 11.5633 228.126 11.5633C227.47 11.5633 226.949 11.4938 226.563 11.3548C226.185 11.2236 225.915 11.0229 225.752 10.7526C225.59 10.4824 225.509 10.135 225.509 9.71038H226.47C226.47 9.95744 226.517 10.1504 226.609 10.2894C226.702 10.4361 226.868 10.5442 227.107 10.6137C227.347 10.6909 227.686 10.7295 228.126 10.7295C228.767 10.7295 229.223 10.6484 229.493 10.4863C229.771 10.3319 229.91 10.0964 229.91 9.77986C229.91 9.49421 229.802 9.27803 229.586 9.13135C229.369 8.98466 229.068 8.91131 228.682 8.91131H227.721C227.204 8.91131 226.81 8.80323 226.54 8.58705C226.277 8.36316 226.146 8.08522 226.146 7.75324C226.146 7.55251 226.204 7.3595 226.32 7.17421C226.436 6.98892 226.602 6.82293 226.818 6.67624C226.463 6.49095 226.2 6.26319 226.03 5.99298C225.868 5.71504 225.787 5.3792 225.787 4.98546C225.787 4.57627 225.888 4.20955 226.088 3.88529C226.297 3.56103 226.579 3.31011 226.934 3.13254C227.297 2.94725 227.698 2.85461 228.138 2.85461C228.617 2.86233 229.018 2.84689 229.342 2.80828C229.667 2.76196 229.933 2.70406 230.142 2.63457C230.358 2.55737 230.62 2.44928 230.929 2.31031L231.242 3.27151ZM228.138 3.61893C227.737 3.61893 227.424 3.74632 227.2 4.0011C226.984 4.24815 226.876 4.57627 226.876 4.98546C226.876 5.40236 226.988 5.7382 227.212 5.99298C227.436 6.24003 227.752 6.36356 228.161 6.36356C228.578 6.36356 228.895 6.24389 229.111 6.00456C229.335 5.7575 229.447 5.41394 229.447 4.97388C229.447 4.07058 229.01 3.61893 228.138 3.61893Z" fill="#000E33"></path><path d="M176.733 22.7155C176.332 22.9934 175.876 23.1324 175.367 23.1324C174.849 23.1324 174.444 22.9857 174.151 22.6923C173.865 22.3912 173.722 21.9589 173.722 21.3953V17.7126H172.657V16.8904H173.722V15.5123L174.788 15.3849V16.8904H176.235L176.119 17.7126H174.788V21.349C174.788 21.6655 174.842 21.8971 174.95 22.0438C175.065 22.1828 175.255 22.2523 175.517 22.2523C175.756 22.2523 176.027 22.1712 176.328 22.0091L176.733 22.7155Z" fill="#000E33"></path><path d="M180.489 16.7514C180.705 16.7514 180.906 16.7746 181.091 16.8209L180.894 17.8632C180.709 17.8169 180.531 17.7937 180.362 17.7937C179.983 17.7937 179.678 17.9327 179.447 18.2106C179.215 18.4885 179.034 18.9209 178.902 19.5076V22.9934H177.837V16.8904H178.752L178.856 18.1295C179.018 17.674 179.238 17.3305 179.516 17.0989C179.794 16.8673 180.118 16.7514 180.489 16.7514Z" fill="#000E33"></path><path d="M186.008 21.569C186.008 21.8161 186.051 22.0014 186.136 22.1249C186.221 22.2407 186.348 22.3295 186.518 22.3912L186.275 23.1324C185.958 23.0938 185.703 23.005 185.51 22.8661C185.317 22.7271 185.174 22.5109 185.082 22.2175C184.673 22.8275 184.067 23.1324 183.264 23.1324C182.661 23.1324 182.187 22.9626 181.839 22.6229C181.492 22.2832 181.318 21.8392 181.318 21.2911C181.318 20.6426 181.55 20.1446 182.013 19.7972C182.484 19.4497 183.148 19.276 184.005 19.276H184.943V18.8244C184.943 18.392 184.839 18.0832 184.63 17.8979C184.422 17.7126 184.101 17.62 183.669 17.62C183.221 17.62 182.673 17.7281 182.024 17.9443L181.758 17.1683C182.515 16.8904 183.217 16.7514 183.866 16.7514C184.584 16.7514 185.12 16.929 185.476 17.2842C185.831 17.6316 186.008 18.1295 186.008 18.7781V21.569ZM183.507 22.3333C184.117 22.3333 184.595 22.0168 184.943 21.3837V19.9825H184.144C183.017 19.9825 182.453 20.3994 182.453 21.2332C182.453 21.596 182.542 21.8701 182.719 22.0554C182.897 22.2407 183.159 22.3333 183.507 22.3333Z" fill="#000E33"></path><path d="M192.921 14.4353V22.9934H191.983L191.879 22.148C191.678 22.4569 191.427 22.7001 191.126 22.8776C190.825 23.0475 190.489 23.1324 190.119 23.1324C189.393 23.1324 188.826 22.8468 188.416 22.2754C188.015 21.7041 187.814 20.9359 187.814 19.9709C187.814 19.3455 187.911 18.7896 188.104 18.3033C188.297 17.8169 188.575 17.4386 188.938 17.1683C189.3 16.8904 189.725 16.7514 190.211 16.7514C190.837 16.7514 191.385 17.0024 191.856 17.5042V14.3079L192.921 14.4353ZM190.35 22.287C190.675 22.287 190.953 22.2137 191.184 22.067C191.416 21.9126 191.64 21.6848 191.856 21.3837V18.3959C191.655 18.1334 191.439 17.9365 191.207 17.8053C190.983 17.6663 190.729 17.5968 190.443 17.5968C189.972 17.5968 189.605 17.7937 189.343 18.1875C189.088 18.5812 188.961 19.1679 188.961 19.9477C188.961 20.7352 189.08 21.322 189.32 21.708C189.559 22.094 189.903 22.287 190.35 22.287Z" fill="#000E33"></path><path d="M199.727 19.7624C199.727 19.94 199.719 20.1214 199.704 20.3067H195.812C195.859 20.9784 196.029 21.4725 196.322 21.789C196.615 22.1056 196.994 22.2639 197.457 22.2639C197.75 22.2639 198.021 22.2214 198.268 22.1365C198.515 22.0515 198.773 21.9164 199.043 21.7311L199.507 22.3681C198.858 22.8776 198.148 23.1324 197.376 23.1324C196.527 23.1324 195.863 22.8545 195.384 22.2986C194.913 21.7427 194.678 20.9784 194.678 20.0056C194.678 19.3725 194.778 18.8128 194.979 18.3264C195.187 17.8323 195.48 17.4463 195.859 17.1683C196.245 16.8904 196.696 16.7514 197.214 16.7514C198.024 16.7514 198.646 17.0178 199.078 17.5505C199.511 18.0832 199.727 18.8205 199.727 19.7624ZM198.673 19.4497C198.673 18.8476 198.553 18.3882 198.314 18.0716C198.075 17.7551 197.716 17.5968 197.237 17.5968C196.364 17.5968 195.89 18.2376 195.812 19.5192H198.673V19.4497Z" fill="#000E33"></path><path d="M204.08 16.7514C204.296 16.7514 204.497 16.7746 204.682 16.8209L204.486 17.8632C204.3 17.8169 204.123 17.7937 203.953 17.7937C203.574 17.7937 203.27 17.9327 203.038 18.2106C202.806 18.4885 202.625 18.9209 202.494 19.5076V22.9934H201.428V16.8904H202.343L202.447 18.1295C202.609 17.674 202.829 17.3305 203.107 17.0989C203.385 16.8673 203.71 16.7514 204.08 16.7514Z" fill="#000E33"></path><path d="M207.382 16.7514C207.799 16.7514 208.173 16.8093 208.505 16.9252C208.837 17.041 209.154 17.2147 209.455 17.4463L209.003 18.118C208.725 17.9404 208.459 17.8091 208.204 17.7242C207.957 17.6393 207.694 17.5968 207.417 17.5968C207.069 17.5968 206.795 17.6702 206.594 17.8169C206.394 17.9558 206.293 18.1488 206.293 18.3959C206.293 18.643 206.386 18.836 206.571 18.9749C206.764 19.1139 207.108 19.249 207.602 19.3803C208.281 19.5501 208.787 19.7817 209.119 20.0751C209.459 20.3685 209.628 20.7699 209.628 21.2795C209.628 21.8817 209.393 22.3411 208.922 22.6576C208.459 22.9741 207.891 23.1324 207.22 23.1324C206.293 23.1324 205.525 22.8661 204.915 22.3333L205.483 21.6848C206 22.0786 206.571 22.2754 207.196 22.2754C207.598 22.2754 207.914 22.1944 208.146 22.0322C208.385 21.8624 208.505 21.6346 208.505 21.349C208.505 21.1405 208.463 20.9745 208.378 20.851C208.293 20.7198 208.146 20.6078 207.938 20.5152C207.729 20.4148 207.424 20.3106 207.023 20.2025C206.374 20.0326 205.903 19.8049 205.61 19.5192C205.324 19.2336 205.181 18.8707 205.181 18.4306C205.181 18.1141 205.274 17.8284 205.459 17.5737C205.652 17.3112 205.915 17.1104 206.247 16.9715C206.587 16.8248 206.965 16.7514 207.382 16.7514Z" fill="#000E33"></path></svg> 