<svg viewBox="0 0 480 120" xmlns="http://www.w3.org/2000/svg" fill="none" class="h-6 sm:h-8 w-auto"><path d="M102.4 17.6A59.8 59.8 0 000 60a59.8 59.8 0 0068.3 59.4V89.6l-16.6-9.4v21a42 42 0 1129-4.5l17.3 9.8a57.6 57.6 0 007.7-7.6 60 60 0 00-3.3-81.3z" fill="#2A55E2"></path><path d="M50.4 60a9.6 9.6 0 1019.2 0 9.6 9.6 0 00-19.2 0z" fill="#2A55E2"></path><path d="M197.6 43.5c-3.4 0-6.3.7-8.9 2.2l-3 2.4c-1 1-2.6.4-2.6-1V44h-13.5v44H183V65.6c0-3.2.8-5.6 2.4-7.4a8.4 8.4 0 016.5-2.6 8 8 0 016.2 2.5c1.6 1.7 2.3 4 2.3 7V88H214V62.4c0-5.9-1.4-10.5-4.4-13.9-3-3.4-7-5-12-5zM480 66a22.6 22.6 0 10-1 6.8h-15.3a8.7 8.7 0 01-6.3 2.9c-4.1 0-7.6-3.2-8.7-7h31.1l.2-2.7zm-31.2-3c1.2-3.8 4.6-6.9 8.6-6.9s7.4 3 8.6 6.9h-17.2zm-96.1-31.6a28.6 28.6 0 100 57.2 28.6 28.6 0 000-57.2zm0 43.6a15 15 0 110-30 15 15 0 010 30zM150 88h13.5V32.2H150V88zm263.7-44.5c-3.3 0-6.3.7-8.8 2.2l-3 2.4c-1 1-2.6.4-2.6-1V44h-13.5v44h13.5V65.6c0-3.2.8-5.6 2.4-7.4a8.4 8.4 0 016.5-2.6 8 8 0 016.2 2.5c1.6 1.7 2.3 4 2.3 7V88h13.5V62.4c0-5.9-1.5-10.5-4.4-13.9-3-3.4-7-5-12-5zM294 43.4l-7.6 10.8-7.7-10.8H262L278 66l-15.4 21.7h16.5l7.1-10 7.1 10H310L294.5 66l16-22.6h-16.6zm-46.4 29.4a8.7 8.7 0 01-6.3 2.9c-4 0-7.6-3.2-8.7-7h31.1a22.6 22.6 0 10-.9 4.1h-15.2zm-6.3-16.7c4 0 7.4 3 8.6 6.9h-17.2c1.3-3.8 4.6-6.9 8.6-6.9z" fill="#3B384B"></path></svg>