<svg width="136px" height="34px" viewBox="0 0 136 34" version="1.1"><defs><path d="M4.72866519,32.8199366 C4.24086486,33.1721383 3.88050498,33.5 3.60930925,33.5 L2.88256886,33.5 C2.68234464,33.4500888 2.47210264,33.3699525 2.25181337,33.2593622 C1.85103059,33.05816 1.48456644,32.8185693 1.15091096,32.5454968 C0.816568108,32.2718619 0.541888022,31.996983 0.325055546,31.7229823 C0.107875577,31.4485425 5.44547557e-18,31.2561933 0,31.1467393 C0,30.5616433 0.217305685,29.6470201 0.6508255,28.4039511 C1.08447103,27.1605216 1.66921698,25.7520611 2.40255341,24.1787053 C3.13553581,22.606109 3.95323613,20.9495796 4.85440096,19.2122306 C5.75526919,17.4754533 6.68868546,15.8188638 7.65630833,14.2457559 C8.62361648,12.6731596 9.55813534,11.2648249 10.4589301,10.02051 C11.3590839,8.77708056 13.724398,7.187085 12.8607691,7.22219009 C11.0590326,7.29542768 9.37382713,7.44199109 7.80633396,7.66081084 C6.23820886,7.87971882 4.93819503,8.19478845 3.90352419,8.59358417 C3.33556999,8.81249214 2.91007839,8.77584301 2.62687746,8.48332537 C2.34325756,8.19037499 2.16033737,7.80630029 2.07678346,7.33083926 C1.99319774,6.8551973 2.00177064,6.37955534 2.10178773,5.90391338 C2.20180482,5.42827142 2.36009051,5.15580007 2.55186464,5.02586706 C3.25269869,4.5510299 4.28644676,4.11160434 5.65453769,3.70919997 C7.02262861,3.3067956 8.53208009,2.95832973 10.1838831,2.66616785 C11.8355939,2.37402228 13.5280386,2.12711035 15.2633225,1.92574382 C16.9971902,1.72454164 18.6067523,1.59582489 20.0920048,1.54104525 C21.5758298,1.48631825 22.8189286,1.48551506 23.8197847,1.54104525 C24.82067,1.59657705 25.4345489,1.71557147 25.6222355,1.95230251 C25.8551325,2.24605769 25.9808675,2.71201358 25.9972996,3.35186489 C26.013731,3.99168783 25.9556686,4.64132751 25.8222697,5.29950202 C25.6886755,5.95864038 25.4969157,6.52579194 25.246457,7.00086768 C24.9956999,7.47650965 24.7025964,7.70703299 24.3705931,7.65920123 C23.1025192,7.47650965 21.6844522,7.33804299 20.1170091,7.24713916 C18.548884,7.15619577 13.8079517,6.16286764 15.2633225,7.16504867 C15.5297966,7.34854506 15.7890544,7.56730753 16.038455,7.82338221 C16.2884977,8.08011619 16.4882285,8.34514982 16.6385575,8.61933804 C16.7885832,8.89297301 16.8809252,9.15918816 16.9136045,9.41448907 C16.9464673,9.67122306 16.8877746,9.91793608 16.7135703,10.1283544 C14.7446625,12.5065642 13.0350846,14.8751163 11.5841224,17.2348155 C10.1331601,19.5945147 8.98142682,21.7065698 8.13138951,23.5726843 C7.28124424,25.4390357 6.76398488,26.9305171 6.58041019,28.0458112 C6.39680739,29.1612761 6.62192087,29.6292625 7.25623996,29.4453736 C7.88920527,29.2618772 8.08940396,29.3714755 7.85634251,29.7737356 C7.62273116,30.1769447 7.2123792,30.6606929 6.63041874,31.2280249 C6.04674757,31.7970247 5.41225099,32.3263739 4.72866519,32.8199366 Z M21.3864247,13.757255 C22.2961097,13.0028341 23.164703,12.4648648 23.9914962,12.1417673 C24.4881389,11.9624442 25.0917617,11.9529646 25.8030731,12.1149083 C26.5143844,12.2760621 27.1846041,12.5280624 27.8130236,12.8685393 C28.4414431,13.2098061 28.9713842,13.6142705 29.40143,14.0803526 C29.8307673,14.5480145 30.029141,14.9967172 29.9965511,15.4272506 C29.9639611,15.9660099 29.6819871,16.7741487 29.1534629,17.8508772 C28.6235218,18.9283957 27.9540106,20.0319832 27.1435124,21.1632196 C26.3323057,22.294456 25.4637124,23.3269462 24.5377323,24.2606902 C23.6110438,25.1952242 22.7346572,25.769532 21.9078641,25.9844037 C21.3779229,26.1289682 20.8231851,26.030222 20.2450675,25.6881652 C19.6655329,25.3484782 19.1440935,24.9795625 18.6814578,24.5845777 C17.8539561,26.3082913 17.3417269,27.7721048 17.1433532,28.9744385 C16.9449795,30.1783521 17.27513,30.8150675 18.1359301,30.8869548 C18.4001922,30.8869548 18.7565564,30.7882086 19.2028972,30.5907162 C19.649238,30.3940138 20.1536739,30.1246342 20.716205,29.7833673 C21.2787361,29.4428904 21.8830673,29.038426 22.5277818,28.5707641 C23.1732048,28.104682 23.8257125,27.6204307 24.4881389,27.1172201 C24.9181847,26.7577839 25.1909485,26.6313888 25.3071388,26.7396146 C25.4226207,26.8462605 25.3149321,27.1164301 24.9847816,27.5469635 C24.4548405,28.2294972 23.8682211,28.884382 23.2227982,29.5124078 C22.5773752,30.1404336 21.9234506,30.7060518 21.2624411,31.2092624 C20.6000147,31.711683 19.9545917,32.1240471 19.3268807,32.4479346 C18.6977527,32.7710322 18.1678116,32.9503552 17.7384743,32.9866938 C17.4409138,33.0222425 17.0441664,32.9866938 16.5475237,32.878468 C16.0515895,32.7710322 15.5712418,32.6011887 15.108606,32.3673577 C14.6452618,32.1335267 14.2315109,31.8554574 13.868062,31.5323599 C13.5039046,31.2092624 13.2729409,30.8506162 13.1737541,30.4548414 C12.942082,29.4507901 12.942082,28.3456227 13.1737541,27.1424991 C13.4047177,25.9401654 13.7766684,24.7180825 14.2903145,23.4802003 C14.8032522,22.241528 15.4479667,21.0115454 16.2258749,19.7902525 C17.0023662,18.5697495 17.8298679,17.4472028 18.706963,16.4234022 C19.5826411,15.4003917 20.4760311,14.5116759 21.3864247,13.757255 Z M20.4794214,20.8031994 C21.0718945,20.0274566 21.7045233,19.2608134 22.3794213,18.5025115 C23.0529102,17.7449679 23.7362621,17.0465719 24.4273632,16.4080817 C25.1177599,15.7703498 25.7426393,15.2448466 26.302706,14.8308138 C26.7296248,14.5555502 26.9606963,14.4516628 26.9931027,14.5206683 C27.025509,14.5904321 26.9437886,14.8141311 26.7465324,15.1925238 C26.2857983,16.0198311 25.6933253,16.8903617 24.9705222,17.8033572 C24.2463102,18.7171109 23.505895,19.5535179 22.7499811,20.3110615 C21.9926582,21.0701217 21.2776045,21.698754 20.603411,22.1984749 C19.9285131,22.6981958 19.3945124,22.9658764 19,23 C19.3931034,22.3114619 19.8869484,21.5789423 20.4794214,20.8031994 Z M41.8635794,13.5976393 C42.3919377,13.0198285 42.7892687,12.7305257 43.0541561,12.7321153 C43.2850472,12.7321153 43.5917216,12.8131837 43.9720545,12.9761152 C44.3523875,13.1382519 44.7164305,13.3282062 45.0634755,13.5451833 C45.4105204,13.7613656 45.6754078,13.9966228 45.8574293,14.2493653 C46.0387426,14.5021078 46.0472417,14.737365 45.8822183,14.9535473 C45.6506189,15.2436449 45.2624951,15.7666153 44.7164305,16.5256377 C44.1703659,17.2846601 43.5669327,18.1605163 42.9054225,19.1540011 C42.2432041,20.1482806 41.556905,21.2053485 40.8465253,22.3244098 C40.134729,23.4442658 39.4980077,24.4838483 38.9363615,25.4399781 C38.3740071,26.3984922 37.9440963,27.2203028 37.6466292,27.9062047 C37.3491621,28.5929014 37.2662963,29.0085755 37.3987399,29.1524321 C37.4313197,29.1889923 37.5637634,29.1524321 37.7953627,29.0435461 C38.0262539,28.935455 38.2585615,28.845644 38.4901609,28.7725235 C38.721052,28.7017874 38.8945745,28.6827125 39.0107283,28.7184779 C39.1261739,28.7550382 39.068097,28.9362498 38.8372058,29.2605232 C38.5390305,29.6587119 38.2082754,30.0839234 37.8449406,30.5345681 C37.4808975,30.9868024 37.1012729,31.3937338 36.7039418,31.7537727 C36.307319,32.1154011 35.9262778,32.4134466 35.562943,32.647909 C35.1981917,32.883961 34.8844347,33 34.6202556,33 C34.3220803,33 34.0161141,32.910189 33.7023571,32.7289773 C33.3878919,32.5485605 33.0897166,32.3315834 32.8092476,32.0788409 C32.5280704,31.8260984 32.30497,31.5455383 32.1399466,31.2387501 C31.9742149,30.931962 31.8920574,30.6514019 31.8920574,30.3978646 C31.8920574,30.0378257 31.9912131,29.5681061 32.1895245,28.9895006 C32.3878359,28.4124846 32.6690131,27.7623481 33.0330562,27.0390912 C32.371546,27.833879 31.7185349,28.5929014 31.0733146,29.3145688 C30.4288026,30.0378257 29.84945,30.6696821 29.3373816,31.2117274 C28.8238967,31.7537727 28.3776961,32.186932 27.9973632,32.5127951 C27.6170302,32.8370685 27.3606419,33 27.2289065,33 C26.9307311,33 26.624765,32.910189 26.311008,32.7289773 C25.9958345,32.5485605 25.6983674,32.3315834 25.4178985,32.0788409 C25.136013,31.8260984 24.9129127,31.5455383 24.7478892,31.2387501 C24.5828658,30.931962 24.5,30.6514019 24.5,30.3978646 C24.5,29.8931743 24.6983114,29.1071292 25.0949342,28.0413187 C25.4922652,26.9755082 26.0383298,25.7833264 26.7324197,24.4639786 C27.4272179,23.1454256 28.2367533,21.772827 29.1631509,20.345388 C30.0888402,18.9187439 31.0733146,17.5906534 32.1151577,16.3619114 C33.1570008,15.134759 34.2314236,14.0776911 35.3398427,13.1922975 C36.4475535,12.3069038 37.5304754,11.7553211 38.5893166,11.5391388 C38.8534957,11.4676079 39.1346729,11.4938359 39.43214,11.6202071 C39.7296071,11.7465784 40.0192834,11.9182526 40.3004607,12.1344349 C40.5809296,12.3522067 40.8628151,12.5954118 41.1439924,12.8664345 C41.4244613,13.1366623 41.665268,13.3806622 41.8635794,13.5976393 Z M29.8736735,27.595507 C30.2173167,26.8065225 30.7166514,25.8643217 31.3716775,24.7681149 C32.0267036,23.6734877 32.7792121,22.5156785 33.6313071,21.2954772 C34.4827008,20.0752759 35.3579391,18.9530065 36.2598272,17.929459 C37.1603128,16.9067013 38.0278366,16.064012 38.8631001,15.3990221 C39.6983636,14.7348219 40.4108973,14.4386565 41,14.5105259 C40.2138284,15.444829 39.3210573,16.6200132 38.3230893,18.0376581 C37.3237187,19.4560928 36.3657255,20.9369197 35.4491097,22.4801387 C34.7618232,23.3062426 34.0738355,24.1141818 33.3858477,24.9031663 C32.6985612,25.6937304 32.0757955,26.402158 31.5189532,27.0300286 C30.9614095,27.658689 30.5034523,28.1522979 30.1436789,28.5108555 C29.7825028,28.8702028 29.5868366,29.0313167 29.5545762,28.9949871 C29.4227294,28.8528277 29.5300303,28.3852813 29.8736735,27.595507 Z M57.4780733,21.6507315 C58.2709507,20.393006 59.063828,19.1898266 59.8581199,18.0388219 C58.9987569,18.9732227 58.082103,20.0325265 57.1088655,21.2191048 C56.1342134,22.4048926 55.1765365,23.626254 54.2351273,24.8839796 C53.293718,26.1424957 52.4095997,27.3812487 51.5841868,28.6026101 C50.7580666,29.8255526 50.0479428,30.9401931 49.4538153,31.9457411 L49.057023,32.6999022 C48.891516,32.9876533 48.6517431,33.0682869 48.3384116,32.9425934 C48.0236654,32.8168999 47.7103339,32.583695 47.3970024,32.2421881 C47.0829635,31.9006812 46.8021675,31.5220196 46.5546144,31.1093655 C46.3070613,30.6967113 46.1832847,30.3639002 46.1832847,30.1125132 C46.1832847,29.6453128 46.3728397,28.9709948 46.7533642,28.0911403 C47.1331814,27.2104952 47.6282877,26.213643 48.2400976,25.0990024 C48.8504929,23.9851524 49.5436417,22.8175467 50.3202512,21.5953948 C51.0961535,20.3740334 51.8812506,19.1882456 52.6741279,18.0380314 C51.7822293,19.0080058 50.8323326,20.1044643 49.825145,21.3258257 C48.8172501,22.5479776 47.8348178,23.8151895 46.8771408,25.1258803 C45.9187565,26.4381521 45.019785,27.721965 44.177397,28.9796906 C43.335009,30.2382067 42.6333727,31.3710293 42.0717808,32.3757868 C42.0052951,32.4485151 41.9395167,32.5560266 41.8737383,32.6991116 C41.7407669,32.9868628 41.517969,33.0674964 41.2046375,32.9418029 C40.8898914,32.8161094 40.5680723,32.5829044 40.238473,32.2413975 C39.9074591,31.8998907 39.6188828,31.5212291 39.3713297,31.1085749 C39.1237766,30.6959208 39,30.3631097 39,30.1117227 C39,29.5725845 39.2560407,28.7551814 39.768122,27.658723 C40.2794961,26.5630551 40.9238415,25.3401126 41.7004511,23.9930577 C42.475646,22.6460028 43.3265215,21.2625837 44.2516629,19.8428004 C45.1760971,18.4238077 46.0764832,17.1305085 46.952114,15.9621123 C47.8263302,14.7945066 48.6029398,13.8419237 49.2805281,13.1051542 C49.9567018,12.3691753 50.42776,12 50.6922882,12 C50.9228663,12 51.2369051,12.0806336 51.6336974,12.2426912 C52.0304898,12.4047489 52.4095997,12.6023802 52.7731492,12.8355851 C53.1359913,13.0695806 53.4174946,13.3122718 53.6155371,13.5636588 C53.8135796,13.8150458 53.8135796,14.0308592 53.6155371,14.2103084 C53.2512804,14.6063616 52.7059562,15.2269238 51.9802718,16.0704142 C51.2538802,16.9146951 50.42776,17.9479115 49.5033259,19.169273 C48.5781845,20.3914249 47.5872646,21.7661482 46.5305664,23.2926524 C45.4731608,24.819947 44.4497055,26.4642394 43.4587856,28.224739 C44.647748,26.4278753 45.9852422,24.56856 47.4719756,22.6460028 C48.9580017,20.724236 50.4030047,18.9724322 51.8069846,17.3905913 C53.2102573,15.8103314 54.4734856,14.5162417 55.5966695,13.5099031 C56.7191461,12.5043551 57.4787806,12.0007905 57.8755729,12.0007905 C58.106151,12.0007905 58.4201898,12.0814241 58.8169821,12.2434818 C59.2130672,12.4055394 59.5928844,12.6031707 59.9564339,12.8363757 C60.319276,13.0703711 60.6007793,13.3130623 60.7988218,13.5644494 C60.9968643,13.8158364 60.9968643,14.0316497 60.7988218,14.211099 C60.4345651,14.6071521 59.8892409,15.2277144 59.1635565,16.0712047 C58.4371649,16.9154856 57.6110447,17.9487021 56.6866106,19.1700635 C55.7614692,20.3922154 54.7705493,21.7669387 53.7138511,23.2934429 C52.6564455,24.8207376 51.6329902,26.46503 50.6420703,28.2255296 C51.8310327,26.4286658 53.1685269,24.5693506 54.6552603,22.6467933 C56.1412864,20.7250265 57.5862894,18.9732227 58.9902693,17.3913818 C60.3928347,15.811122 61.6567703,14.5170322 62.7799542,13.5106936 C63.9024308,12.5051456 64.6620653,12.0015811 65.0588576,12.0015811 L65.1083683,12.0015811 C65.3389463,12.0015811 65.6452049,12.0822146 66.0250222,12.2442723 C66.4041321,12.4063299 66.759194,12.6039612 67.0902079,12.8371662 C67.4191,13.0711616 67.6758479,13.3138529 67.8576226,13.5652399 C68.0386901,13.8166269 68.0471776,14.0324403 67.882378,14.2118895 C67.6510926,14.464067 67.2458128,14.9937189 66.6686603,15.8024262 C66.0908006,16.6103429 65.4464551,17.5455342 64.7370386,18.604838 C64.0262074,19.6649323 63.283548,20.7795728 62.5076457,21.9471785 C61.7310362,23.1147842 61.0456677,24.2104521 60.4515401,25.2349728 C59.8567053,26.2594934 59.3856471,27.1306522 59.0390727,27.8492396 C58.6924983,28.5686175 58.5849895,29.0002443 58.7172536,29.1433293 C58.7497891,29.1796935 58.8820533,29.1433293 59.1140459,29.0350274 C59.344624,28.9275159 59.575202,28.8381866 59.8071947,28.7654583 C60.0377727,28.6951015 60.2110599,28.6761289 60.3270563,28.7117026 C60.4423453,28.7480667 60.3843471,28.9283065 60.1537691,29.2508407 C59.855998,29.6468939 59.5256914,30.0698248 59.1628492,30.5180526 C58.7992998,30.9678615 58.4201898,31.3726104 58.0233975,31.7307183 C57.6273125,32.0904072 57.246788,32.3868542 56.8839458,32.6200591 C56.519689,32.8548451 56.2070648,32.9702618 55.9425366,32.9702618 C55.6454728,32.9702618 55.3392142,32.8809324 55.0258827,32.7006927 C54.7111366,32.5212435 54.4140728,32.3054301 54.1339841,32.0540431 C53.8531881,31.8026561 53.6303903,31.5236007 53.4655906,31.2184579 C53.3000837,30.9133152 53.2180375,30.6342598 53.2180375,30.3820823 C53.2180375,29.9156724 53.4153727,29.2239629 53.812165,28.3069537 C54.2082501,27.3915255 54.7196241,26.3670048 55.3477018,25.2349728 C55.9750721,24.1029407 56.685196,22.9092477 57.4780733,21.6507315 Z M73.2473305,7.23664518 L73.2473305,7.23503386 L74.9736356,7.23503386 C75.8290375,6.10066638 76.5780425,5.19430031 77.2192416,4.51593566 C77.8611452,3.83918232 78.3135077,3.5 78.5770334,3.5 C78.8067377,3.5 79.1118357,3.58217719 79.4902136,3.74733723 C79.8678869,3.91249727 80.2307633,4.10504971 80.5760243,4.32418888 C80.9212854,4.54413371 81.1841065,4.7826087 81.365897,5.03800251 C81.5462783,5.29500765 81.5540291,5.53267697 81.3898539,5.7526218 L80.2053972,7.23583952 L81.883084,7.23583952 C82.4094309,7.23583952 82.5989722,7.40099956 82.4517078,7.73051398 C82.3030341,8.0600284 82.0972867,8.42660312 81.8344656,8.82943249 C81.5378229,9.23226185 81.2172234,9.60689316 80.8719624,9.95493773 C80.5267013,10.303788 80.1067512,10.4770046 79.6135211,10.4770046 L77.8371884,10.4770046 C76.3236767,12.638587 74.8763989,14.7888901 73.4939455,16.9319423 C72.1114921,19.0733832 70.9192847,21.0246887 69.9159138,22.782636 C68.9118384,24.5405834 68.1304211,25.995603 67.5709573,27.1493063 C67.0114935,28.3030096 66.8142014,28.9539819 66.9790812,29.0998061 C67.0114935,29.1368664 67.143961,29.0998061 67.3743699,28.9894308 C67.6040741,28.8798613 67.834483,28.7888218 68.0648919,28.7147012 C68.2945962,28.6429976 68.4672267,28.6236618 68.5827835,28.6599164 C68.6976356,28.6969767 68.6398572,28.8806669 68.4101529,29.2093757 C68.1142149,29.6130107 67.7844554,30.0440381 67.4229882,30.5008466 C67.0608165,30.9592664 66.6824386,31.3717637 66.2878545,31.7367271 C65.8932705,32.1033018 65.514188,32.4054239 65.1527208,32.6430932 C64.7898444,32.8823738 64.4777003,33 64.2148791,33 C63.9182365,33 63.6138431,32.9089606 63.3016989,32.7252704 C62.9881455,32.5423858 62.6922075,32.322441 62.4131802,32.0662415 C62.1327437,31.8100421 61.9114948,31.5256445 61.746615,31.2146603 C61.5824399,30.903676 61.5,30.6192785 61.5,30.3622733 C61.5,29.85068 61.8459656,28.8605255 62.5364877,27.3958379 C63.2277144,25.931956 64.1162331,24.2473236 65.2020438,22.3427463 C66.2878545,20.4389748 67.4885174,18.4425524 68.804737,16.3550907 C70.120252,14.2676289 71.4040593,12.3090725 72.6547498,10.4778102 L71.0750044,10.4778102 C70.6141866,10.4778102 70.4415561,10.2852578 70.5571129,9.9009586 C70.671965,9.51665938 70.8615063,9.10416211 71.125032,8.66507811 C71.3878532,8.26224874 71.6760405,7.92306642 71.9895939,7.64833679 C72.3010334,7.37360717 72.7209836,7.23664518 73.2473305,7.23664518 Z M85.8635794,13.5976393 C86.3919377,13.0198285 86.7885605,12.7305257 87.0548643,12.7321153 C87.2857555,12.7321153 87.5917216,12.8139785 87.9720545,12.9761152 C88.3523875,13.1382519 88.7164305,13.3282062 89.0634755,13.5451833 C89.4112287,13.7613656 89.6754078,13.9966228 89.8574293,14.2493653 C90.0387426,14.5021078 90.0472417,14.737365 89.8822183,14.9535473 C89.6506189,15.2436449 89.2624951,15.7666153 88.7164305,16.5256377 C88.1710742,17.2846601 87.5669327,18.1605163 86.9054225,19.1540011 C86.2446206,20.1482806 85.5583215,21.2053485 84.8472335,22.3244098 C84.1354372,23.4442658 83.4994243,24.4838483 82.9370698,25.4399781 C82.3747153,26.3984922 81.9455128,27.2203028 81.6480457,27.9062047 C81.3498704,28.5929014 81.2662963,29.0085755 81.3994482,29.1524321 C81.4320279,29.1889923 81.5651799,29.1524321 81.796071,29.0435461 C82.0269621,28.935455 82.2592698,28.845644 82.4908691,28.7725235 C82.7217603,28.7017874 82.8952827,28.6827125 83.0114366,28.7184779 C83.1268821,28.7550382 83.0688052,28.9362498 82.8379141,29.2605232 C82.5397387,29.6587119 82.2096919,30.0839234 81.8456488,30.5345681 C81.482314,30.9868024 81.1019811,31.3937338 80.7053583,31.7537727 C80.3087355,32.1154011 79.9276943,32.4134466 79.5643595,32.647909 C79.1996082,32.883961 78.8858512,33 78.6216721,33 C78.324205,33 78.0175306,32.910189 77.7037736,32.7289773 C77.3886002,32.5485605 77.0911331,32.3315834 76.8106641,32.0788409 C76.5301951,31.8260984 76.3056783,31.5455383 76.1413631,31.2387501 C75.9749232,30.931962 75.8927656,30.6514019 75.8927656,30.3978646 C75.8927656,30.0378257 75.9919213,29.5681061 76.190941,28.9895006 C76.3885441,28.4124846 76.6690131,27.7623481 77.0337644,27.0390912 C76.371546,27.833879 75.7185349,28.5929014 75.0740229,29.3145688 C74.4288026,30.0378257 73.8501582,30.6696821 73.3373816,31.2117274 C72.824605,31.7537727 72.3776961,32.186932 71.9973632,32.5127951 C71.6170302,32.8370685 71.3613502,33 71.2289065,33 C70.9307311,33 70.624765,32.910189 70.311008,32.7289773 C69.9958345,32.5485605 69.6983674,32.3315834 69.4178985,32.0788409 C69.1367212,31.8260984 68.9129127,31.5455383 68.7478892,31.2387501 C68.5828658,30.931962 68.5,30.6514019 68.5,30.3978646 C68.5,29.8931743 68.6983114,29.1071292 69.0949342,28.0413187 C69.491557,26.9755082 70.0383298,25.7833264 70.7324197,24.4639786 C71.4272179,23.1454256 72.2367533,21.772827 73.1631509,20.345388 C74.0888402,18.9187439 75.0733146,17.5906534 76.1151577,16.3619114 C77.1570008,15.134759 78.2321319,14.0776911 79.3398427,13.1922975 C80.4482617,12.3069038 81.5311836,11.7553211 82.5893166,11.5391388 C82.8534957,11.4676079 83.1353812,11.4938359 83.4328483,11.6202071 C83.7303154,11.7465784 84.0199917,11.9182526 84.3011689,12.1344349 C84.5809296,12.3522067 84.8628151,12.5962066 85.1439924,12.8664345 C85.4251696,13.1366623 85.6659763,13.3806622 85.8635794,13.5976393 Z M74.373099,27.595507 C74.0294597,28.3852813 73.9228614,28.8528277 74.0547067,28.9949871 C74.0869667,29.0313167 74.283332,28.8702028 74.6438027,28.5108555 C75.0042733,28.1522979 75.4622253,27.658689 76.0197626,27.0300286 C76.5765985,26.402158 77.1986558,25.6937304 77.8859345,24.9031663 C78.5732131,24.1141818 79.2618944,23.3062426 79.949173,22.4801387 C80.8657783,20.9369197 81.8237606,19.4560928 82.8231198,18.0376581 C83.8210765,16.6200132 84.7138374,15.444829 85.5,14.5105259 C84.910904,14.4386565 84.1983784,14.7348219 83.3631245,15.3990221 C82.5271692,16.064012 81.6596553,16.9067013 80.75918,17.929459 C79.8580034,18.9530065 78.9827751,20.0752759 78.1313911,21.2954772 C77.2793059,22.5156785 76.5268059,23.6734877 75.8717873,24.7681149 C75.215366,25.8643217 74.7167384,26.8065225 74.373099,27.595507 Z M93.5575906,13.1337656 C94.2609515,12.377658 94.7468447,12 95.0152702,12 C95.2492453,12 95.5679109,12.0807571 95.9705491,12.2430629 C96.3724696,12.404577 96.7406575,12.5938018 97.0765482,12.8099457 C97.4110035,13.0252978 97.6708164,13.2604434 97.8552692,13.5114236 C98.039722,13.7631956 98.0476169,13.9975494 97.8803893,14.2129015 C97.679429,14.4654652 97.2846856,14.9959282 96.69903,15.8058739 C96.111939,16.6150279 95.4494879,17.5516513 94.7131121,18.6125773 C93.9753009,19.674295 93.2123696,20.7906424 92.425036,21.9600362 C91.6377024,23.12943 90.9422364,24.2267758 90.3393556,25.2528653 C89.7357572,26.2789549 89.2577588,27.1514477 88.9060784,27.8711356 C88.5543979,28.5916151 88.4453052,29.0239029 88.579518,29.1672071 C88.6125329,29.2036269 88.7474633,29.1672071 88.9821562,29.0587393 C89.2161314,28.9510632 89.4508242,28.861597 89.6855171,28.7887574 C89.9194923,28.7182929 90.0953325,28.6992912 90.2130378,28.7349193 C90.3300253,28.7713392 90.2711727,28.9518549 90.0371975,29.2748831 C89.7357572,29.6715428 89.4005842,30.0951214 89.0316786,30.5440356 C88.6634907,30.9945333 88.2780776,31.399902 87.8761571,31.7585583 C87.4742366,32.1187981 87.0888235,32.415699 86.7199179,32.649261 C86.3502946,32.8844066 86.0323467,33 85.764639,33 C85.4631986,33 85.1531456,32.9105339 84.8351978,32.7300181 C84.5150968,32.5502941 84.2136564,32.3341502 83.9294412,32.0823782 C83.645226,31.8306062 83.4191457,31.5511235 83.2512003,31.2455135 C83.0839727,30.9399035 83,30.6604208 83,30.407857 C83,29.8678932 83.2590952,29.0405293 83.778721,27.9249736 C84.2983468,26.8102096 84.9600802,25.5679762 85.764639,24.2006485 C86.5691977,22.8333208 87.4483988,21.4295732 88.4043955,19.9901976 C89.3603921,18.5508219 90.2819384,17.2365405 91.1697521,16.0489368 C92.0575658,14.8613331 92.8542297,13.8898733 93.5575906,13.1337656 Z M99.6429657,10.3596774 C99.1481855,10.7240258 98.7696998,10.9242172 98.5082134,10.9602517 C98.2770341,11.0331214 97.9563432,11.0058953 97.545436,10.8777728 C97.1331192,10.7512518 96.7468805,10.5774857 96.3853104,10.3596774 C96.0223306,10.1410684 95.7587297,9.87761644 95.5952126,9.56772011 C95.4302859,9.2594253 95.479623,8.93991978 95.7432238,8.6124066 C96.039951,8.24965973 96.36769,7.83966768 96.7306698,7.38403199 C97.0922399,6.92919706 97.4622678,6.50158817 97.8414583,6.10120531 C98.2185344,5.70162322 98.5730564,5.34608324 98.9029099,5.0361869 C99.2306489,4.7278921 99.5111653,4.55492671 99.7416398,4.51809148 C100.070084,4.48205703 100.424606,4.49967387 100.803091,4.57254355 C101.180872,4.64541323 101.534689,4.76312579 101.864543,4.92728277 C102.192987,5.09063897 102.464341,5.30124036 102.678604,5.55508309 C102.892868,5.81052735 103,6.11962292 103,6.48317056 C103,6.77464928 102.8097,7.16542295 102.431919,7.6570931 C102.053433,8.14876325 101.617153,8.63162498 101.124487,9.10407675 C100.629707,9.57732929 100.136336,9.99612976 99.6429657,10.3596774 Z M111.215003,1.70745499e-14 C111.421008,0.000881986597 111.707558,0.0500331546 112.075657,0.148186805 C112.552557,0.276348366 112.995863,0.476600806 113.405574,0.748944124 C113.815286,1.02208845 114.128594,1.32246711 114.350612,1.6500801 C114.57263,1.97769309 114.547069,2.30530608 114.274659,2.63291907 C112.841765,4.34467693 111.392074,6.1645711 109.925586,8.0942036 C108.459828,10.0254381 107.053226,11.9542696 105.705781,13.8839021 C104.359065,15.8143356 103.105101,17.6702753 101.946079,19.454124 C100.787056,21.2395747 99.7981993,22.8319821 98.9795074,24.2337492 C98.1615458,25.6355163 97.5378501,26.7729501 97.1120718,27.6476528 C96.684833,28.5215544 96.5234316,29.0125734 96.6264072,29.1223118 C96.660002,29.1591582 96.8053363,29.1223118 97.0616796,29.0125734 C97.3172926,28.9036361 97.5641417,28.813122 97.8036876,28.7394291 C98.0417728,28.6681392 98.211938,28.648915 98.3141832,28.6849604 C98.4171588,28.7218069 98.3485084,28.9044371 98.1104232,29.2312491 C97.8365521,29.632555 97.5042552,30.0610952 97.1128022,30.5152677 C96.7206188,30.9710423 96.3277051,31.3811593 95.9369824,31.7440167 C95.5440687,32.1084761 95.1606492,32.4088548 94.7859936,32.6451527 C94.4098773,32.8830526 94.0863443,33 93.8139339,33 C93.506468,33 93.182935,32.9086849 92.8418742,32.7268557 C92.5008134,32.5450265 92.1933475,32.3263508 91.9209371,32.0716297 C91.6477964,31.8169086 91.4265085,31.5341521 91.255613,31.2249624 C91.0854478,30.9157726 91,30.6330162 91,30.3774941 C91,29.8688529 91.255613,29.0398078 91.7675693,27.8927618 C92.2795256,26.7465168 92.9514226,25.4264527 93.7883726,23.9333706 C94.6238619,22.4410894 95.5864274,20.8294577 96.6789904,19.1000777 C97.7693624,17.3714986 98.9042841,15.6317054 100.080104,13.8839021 C101.256654,12.1360988 102.433934,10.4427642 103.609754,8.80469926 C104.786304,7.16583329 105.877407,5.71039856 106.883791,4.43519103 C107.889446,3.16158551 108.75853,2.12347687 109.492505,1.32246711 C110.225749,0.522258362 110.745739,0.0849070343 111.052474,0.0120151464 C111.096646,0.00425668025 111.147078,0.000246306418 111.203787,0 L111.215003,1.70745499e-14 Z M117.077269,14.6488429 C117.568166,15.2026074 117.865899,15.7469461 117.966112,16.2826445 C118.067777,16.9251684 117.940695,17.7734885 117.584868,18.8260338 C117.229041,19.88015 116.728704,21.0049596 116.084584,22.2004625 C115.440463,23.3975364 114.67725,24.6197457 113.796396,25.8686614 C112.914089,27.119148 112.007092,28.2525979 111.074679,29.2697965 C110.14154,30.2877806 109.226556,31.1361007 108.328273,31.8131858 C107.429264,32.4926273 106.623933,32.8845826 105.912278,32.9921936 C105.607283,33.0267548 105.14035,32.9466357 104.513658,32.7502653 C103.885514,32.5546804 103.258096,32.2876166 102.631404,31.9482886 C102.002534,31.6089606 101.435389,31.2335004 100.926338,30.8226935 C100.418739,30.4118867 100.12972,30.0285717 100.062185,29.6711776 C99.9271161,28.9210427 100.012079,27.9926035 100.317074,26.8866455 C100.621343,25.779902 101.071573,24.6016796 101.664135,23.351193 C102.256696,22.1014919 102.961815,20.8345101 103.775861,19.5486768 C104.589181,18.2628435 105.445345,17.094047 106.344354,16.0407162 C107.24191,14.9881709 108.141645,14.1037187 109.039928,13.389716 C109.93821,12.6757132 110.76097,12.2295597 111.506756,12.0504699 C112.048485,11.9436444 112.667915,12.0064829 113.363594,12.2382 C114.05782,12.471488 114.728083,12.79275 115.372929,13.2027713 C116.017049,13.6135782 116.584921,14.0950784 117.077269,14.6488429 Z M113.680203,16.1299143 C113.32988,17.0473529 112.806097,18.1452712 112.107492,19.4220861 C111.408887,20.698901 110.614369,22.048541 109.725297,23.4694231 C108.834865,24.8918883 107.969602,26.1869095 107.128147,27.3552782 C106.286692,28.5252301 105.53979,29.4600834 104.889483,30.1622129 C104.237134,30.8643423 103.817427,31.125563 103.62628,30.9442917 C103.403842,30.7646035 103.475267,30.2073328 103.840555,29.2716879 C104.205163,28.336043 104.730307,27.2302089 105.413266,25.9526025 C106.096225,24.6757876 106.873738,23.3348549 107.748524,21.9313875 C108.621951,20.5287118 109.470888,19.2518969 110.297378,18.0993597 C111.123187,16.9484057 111.861926,16.0309671 112.513594,15.3470439 C113.163902,14.6639123 113.616261,14.3939843 113.87135,14.5372599 C114.092428,14.681327 114.028485,15.2124757 113.680203,16.1299143 Z M136,14.2614886 C135.961709,14.4232032 135.826883,14.6658307 135.595522,14.9900465 C135.288501,15.4202906 134.885488,15.9144793 134.389417,16.4702441 C133.892613,17.0275879 133.354775,17.6101936 132.772972,18.2204298 C132.19117,18.8314553 131.659926,19.4045878 131.182174,19.942985 C130.702223,20.4813822 130.30947,20.9297834 130.001715,21.2881886 C129.69396,21.6473832 129.573057,21.8621105 129.642668,21.9339495 C129.676374,21.9694742 129.813398,21.9426333 130.05374,21.8526373 C130.292616,21.7626413 130.531493,21.6829079 130.771834,21.6102796 C131.010711,21.5400195 131.182174,21.521073 131.284759,21.5565978 C131.387344,21.5929119 131.318465,21.772904 131.079589,22.094995 C130.805541,22.4905037 130.471407,22.9025908 130.079386,23.3328349 C129.685167,23.7638684 129.291681,24.1593772 128.898927,24.5169929 C128.505441,24.8761875 128.120748,25.1722271 127.744115,25.4051115 C127.366749,25.6395748 127.042141,25.7548328 126.768825,25.7548328 C126.460338,25.7548328 126.14379,25.6656262 125.819182,25.4856342 C125.493109,25.3064316 125.185354,25.0917043 124.895186,24.8398734 C124.604284,24.5896213 124.373468,24.3204227 124.202005,24.033067 C124.030542,23.7465007 123.945543,23.4773021 123.945543,23.2262606 C123.945543,22.9760086 124.125066,22.5631321 124.484113,21.9876313 C124.843893,21.4144988 125.254233,20.8034732 125.715865,20.1585018 C126.17823,19.5127409 126.648655,18.8661906 127.127873,18.2212192 C127.607091,17.5746689 127.966138,17.0362717 128.205747,16.6060276 C127.247311,17.5391441 126.187023,18.6704098 125.023417,19.9974563 C123.859811,21.3245028 122.696205,22.7154938 121.533332,24.168061 C120.368994,25.6222071 119.265473,27.0574067 118.222039,28.4744492 C117.178604,29.8930705 116.331546,31.1577514 115.681597,32.2692811 L115.476427,32.7003146 C115.304231,32.9876703 115.056562,33.068193 114.731954,32.9426723 C114.406613,32.8171515 114.081273,32.5842671 113.756665,32.2432296 C113.431324,31.9021921 113.141888,31.5240509 112.884693,31.1119639 C112.628231,30.6998769 112.5,30.3675232 112.5,30.1164817 C112.5,29.5780845 112.757195,28.7618049 113.270119,27.6668534 C113.783044,26.5726913 114.441053,25.3514296 115.245611,24.0062261 C116.049437,22.6610225 116.939727,21.2795048 117.915017,19.8616728 C118.890306,18.4446304 119.82163,17.1531086 120.71192,15.9863182 C121.601478,14.8203172 122.406037,13.8690436 123.124131,13.1332867 C123.842225,12.3983193 124.338296,12.0296514 124.611612,12.0288619 C124.850488,12.0288619 125.176561,12.1093847 125.586901,12.2712196 C125.99724,12.4330546 126.389994,12.6304142 126.76736,12.8632987 C127.142528,13.0969725 127.434894,13.3393302 127.639331,13.5903717 C127.844501,13.8414132 127.844501,14.05693 127.639331,14.2361326 C127.263431,14.6308519 126.707274,15.222931 125.971594,16.0123697 C125.235914,16.8018084 124.407175,17.779923 123.482445,18.9459239 C122.559181,20.1127143 121.583159,21.4223932 120.55731,22.8757498 C119.531461,24.3291065 118.504147,25.8985107 117.477565,27.5855412 C118.606732,25.971139 119.856069,24.3291065 121.224112,22.6610225 C122.592155,20.9921491 123.936017,19.4401126 125.2535,18.004913 C126.57025,16.5697134 127.785149,15.3318735 128.898195,14.2906039 C130.009042,13.2501236 130.873687,12.5506809 131.489929,12.1914863 C131.695098,12.0841227 132.019706,12.0209676 132.465218,12.0028105 C132.909997,11.9854428 133.371629,12.0485979 133.850847,12.1914863 C134.329332,12.3351642 134.774843,12.5680486 135.185183,12.890929 C135.589074,13.2087356 135.860214,13.6137319 136,14.1051652 L136,14.2614886 Z" id="color"></path></defs><g stroke="none" stroke-width="1" fill-rule="evenodd"><g transform="translate(-187.000000, -18.000000)"><g transform="translate(187.000000, 18.000000)"></g></g></g></svg>